<svg width="50" height="50" viewBox="0 0 50 50" fill="none" xmlns="http://www.w3.org/2000/svg">
<rect x="0.5" y="0.5" width="49" height="49" rx="19.5" fill="white" stroke="#DA6713"/>
<rect x="31.7708" y="22.9166" width="6.25" height="2.08333" rx="1.04167" fill="#DA6713"/>
<rect x="31.7708" y="18.75" width="10.4167" height="2.08333" rx="1.04167" fill="#DA6713"/>
<rect x="31.7708" y="14.5834" width="10.4167" height="2.08333" rx="1.04167" fill="#DA6713"/>
<path d="M28.1666 32.8125V34.4167H9.33325V32.8125C9.33325 32.3166 9.57486 31.8067 10.1519 31.2754C10.7354 30.7382 11.5913 30.2504 12.6165 29.8398C14.6686 29.018 17.1465 28.6042 18.7499 28.6042C20.3534 28.6042 22.8312 29.018 24.8834 29.8398C25.9086 30.2504 26.7645 30.7382 27.348 31.2754C27.925 31.8067 28.1666 32.3166 28.1666 32.8125ZM15.7742 16.816C16.5634 16.0268 17.6338 15.5834 18.7499 15.5834C19.3026 15.5834 19.8498 15.6922 20.3604 15.9037C20.871 16.1152 21.3349 16.4252 21.7257 16.816L22.4084 16.1332L21.7257 16.816C22.1164 17.2067 22.4264 17.6707 22.6379 18.1812C22.8494 18.6918 22.9583 19.2391 22.9583 19.7917C22.9583 20.3444 22.8494 20.8916 22.6379 21.4022C22.4264 21.9127 22.1164 22.3767 21.7257 22.7674C21.3349 23.1582 20.871 23.4682 20.3604 23.6797C19.8498 23.8912 19.3026 24 18.7499 24C17.6338 24 16.5634 23.5567 15.7742 22.7674C15.3834 22.3767 15.0734 21.9127 14.8619 21.4022C14.6504 20.8916 14.5416 20.3444 14.5416 19.7917C14.5416 18.6756 14.985 17.6052 15.7742 16.816Z" stroke="#DA6713" stroke-width="2"/>
</svg>
