<svg width="46" height="46" viewBox="0 0 46 46" fill="none" xmlns="http://www.w3.org/2000/svg">
<path d="M40.825 40.25C42.55 38.8125 46 35.65 46 31.05C46 27.025 42.55 23.575 37.95 21.5625C39.3875 19.8375 40.25 17.25 40.25 14.6625C40.25 6.6125 31.9125 0 21.275 0C11.2125 0 0 6.0375 0 14.6625C0 20.7 4.6 25.0125 6.6125 26.7375C6.325 30.1875 4.8875 31.625 4.8875 31.625L1.4375 34.5H5.75C9.2 34.5 12.075 33.6375 14.375 32.4875C15.2375 37.95 21.5625 42.2625 29.6125 42.2625H31.05C32.775 43.7 36.225 46 41.1125 46H45.1375L41.975 43.4125C41.975 43.4125 41.1125 42.55 40.825 40.25ZM29.6125 39.3875C23 39.3875 17.25 35.65 17.25 31.3375V30.7625C17.825 30.1875 18.4 29.9 18.6875 29.325H20.7C26.7375 29.325 32.2 27.3125 35.65 23.8625C39.9625 25.3 43.125 28.175 43.125 31.05C43.125 33.925 40.5375 36.8 38.2375 38.2375L37.375 38.8125V39.675C37.375 41.1125 37.95 41.975 38.2375 42.8375C35.3625 42.2625 33.35 40.825 32.775 39.9625L32.4875 39.3875H29.6125ZM21.275 2.875C30.1875 2.875 37.375 8.3375 37.375 14.6625C37.375 20.9875 29.9 26.45 20.7 26.45H17.5375L17.25 27.025C16.3875 28.175 12.9375 30.475 8.3375 31.3375C8.625 30.1875 8.625 28.4625 8.625 26.1625V25.3C5.75 23 2.5875 18.975 2.5875 14.95C2.5875 8.625 11.7875 2.875 21.275 2.875Z" fill="#DA6713"/>
</svg>
