<svg width="48" height="48" viewBox="0 0 48 48" fill="none" xmlns="http://www.w3.org/2000/svg">
<path d="M31.0358 15.0679L26.7814 45.6788C26.6812 46.4016 26.063 46.9389 25.3336 46.9389H8.34549C7.61485 46.9389 6.99661 46.4004 6.89642 45.6776L2.65796 15.0679" stroke="#DA6713" stroke-width="2" stroke-linecap="round" stroke-linejoin="round"/>
<path d="M24.3095 31.469C24.4092 31.4979 24.509 31.5273 24.6087 31.5565L25 31.6713V32.0407C25 32.1203 25 32.1999 25 32.2793C25 32.3584 25 32.4377 25 32.5169C25 32.6754 25 32.8336 25 32.9921C25 33.0715 25 33.1506 25 33.2299C25 33.3091 25 33.3882 25 33.4676C25 33.6256 25 33.7838 25 33.9419V34.6534L24.9987 34.6538L23.9696 35.0481C23.7928 35.7729 23.5274 36.4652 23.131 37.0867C22.0454 38.7885 20.2074 39.6044 18.1314 39.9762L17.999 40L17.8668 39.9761C15.9004 39.6234 14.1265 38.8665 13.0175 37.3087C12.5356 36.6318 12.2256 35.8595 12.0274 35.047L11 34.6534V33.9419C11 33.7838 11 33.6256 11 33.4676C11 33.3882 11 33.3091 11 33.2299C11 33.1506 11 33.0715 11 32.9921C11 32.8336 11 32.6754 11 32.5169C11 32.4377 11 32.3584 11 32.2793C11 32.1999 11 32.1203 11 32.0407V31.6718L11.3906 31.5567C11.4898 31.5273 11.5892 31.4984 11.6885 31.4692C11.6885 31.1549 11.692 30.8466 11.696 30.547C11.7071 29.755 11.7257 28.9624 11.7215 28.1704L11.7194 27.8195L12.0574 27.6429C13.8964 26.6825 15.8155 25.9152 17.9738 25.8426L17.999 25.8419L18.0244 25.8426C20.1827 25.9152 22.1018 26.6825 23.9409 27.6429L24.2788 27.8195L24.2768 28.1704C24.2725 28.9624 24.2911 29.755 24.3022 30.547C24.3062 30.847 24.3098 31.1554 24.3095 31.469Z" fill="white" stroke="#DA6713" stroke-miterlimit="22.9256"/>
<path fill-rule="evenodd" clip-rule="evenodd" d="M12.2727 35.5787C12.3493 35.8274 12.4383 36.0691 12.5496 36.3084C16.0535 35.0963 19.3088 34.9971 22.686 36.2076C19.0363 35.4976 16.5206 35.2028 12.7282 36.6765C12.829 36.8627 12.9412 37.0429 13.0652 37.2166L13.1831 37.3682C14.328 36.9341 15.6584 36.6016 17.0785 36.4999C18.8263 36.3748 20.4055 36.6449 21.767 37.1206C18.7798 36.4859 16.1549 36.5134 13.4402 37.6804C13.5862 37.8402 13.7455 37.9935 13.9186 38.1394L14.1211 38.297C16.2497 37.4795 18.6734 37.3638 20.8478 38.1208C18.4359 37.6375 16.5156 37.7021 14.4796 38.5542C14.7314 38.7175 14.9987 38.8638 15.2773 38.9942L15.5438 39.0899C16.212 38.8318 17.0695 38.6859 17.9989 38.6778C18.9407 38.6861 19.8087 38.8357 20.4805 39.1C20.5923 39.0535 20.6962 39.0074 20.7894 38.9625C21.6672 38.5407 22.4195 37.9598 22.9714 37.1591C23.3087 36.6696 23.552 36.1247 23.7273 35.55C22.0784 34.9483 20.1289 34.6 18.0394 34.6C15.9166 34.6 13.9381 34.9591 12.2727 35.5787Z" fill="#DA6713"/>
<path d="M17.6437 23.5556L17.8222 23.6984L17.7545 23.9597L17.9987 23.8166L18.2426 23.9596L18.1749 23.6984L18.3534 23.5556L18.1186 23.5391L17.9986 23.2613L17.8785 23.5391L17.6437 23.5556Z" fill="#DA6713" stroke="#DA6713"/>
<path fill-rule="evenodd" clip-rule="evenodd" d="M11.6708 27.7204C11.6753 28.6354 11.6537 30.0269 11.642 30.9416C11.6395 31.15 11.6375 31.3567 11.6364 31.5623C11.9228 31.4767 12.2739 31.3913 12.6597 31.275C13.4927 29.963 14.2694 28.7835 15.4059 27.6905C15.2546 27.5589 15.1718 27.4866 15.0327 27.3656C14.9931 27.3212 15.0412 27.2648 15.0944 27.2975L15.1826 27.3767L15.2574 27.4339L15.6953 27.8203L16.2301 27.8264L16.3434 27.6903C16.2176 27.5795 16.0461 27.4278 16.0176 27.4029C15.9781 27.3586 16.0264 27.3019 16.0796 27.3346C16.3462 27.5667 16.5624 27.7508 16.8617 28.0111L16.794 28.0872L16.798 28.0928L16.7516 28.1316C16.4335 28.4393 16.0737 28.9632 15.753 29.5186C15.468 30.0121 15.2216 30.5034 15.0563 30.9148C15.532 30.7251 16.4424 30.6041 17.1118 30.5296L17.1115 30.2618C17.1115 30.2358 17.1129 30.2035 17.1121 30.1717C17.1115 30.1382 17.1468 30.0936 17.1841 30.0983L17.2353 30.091V29.1986C17.2313 29.0564 17.3135 28.9936 17.4227 28.9707C17.4227 28.8854 17.4227 28.8 17.4227 28.7146C17.4 28.7144 17.3832 28.6965 17.3869 28.6831C17.3883 28.6644 17.4 28.658 17.4318 28.6566C17.4355 28.5453 17.419 28.4546 17.4907 28.453H17.495H17.497L17.5528 26.9457C17.5368 26.9393 17.5257 26.9242 17.5257 26.9064C17.5257 26.8874 17.5383 26.8715 17.5556 26.8659L17.569 26.5022L17.5826 26.8659C17.6 26.8715 17.6125 26.8874 17.6125 26.9064C17.6125 26.9242 17.6014 26.9393 17.5855 26.9457L17.6415 28.453H17.6438C17.7155 28.4546 17.699 28.5453 17.7027 28.6566C17.7343 28.658 17.7459 28.6644 17.7474 28.6831C17.7513 28.6965 17.7343 28.7144 17.7115 28.7146C17.7115 28.8 17.7115 28.8854 17.7115 28.9707C17.821 28.9936 17.895 29.0564 17.8913 29.1986V30.0897C17.9468 30.0897 18.0006 30.0788 18.023 30.139V30.2618C18.023 30.4007 18.023 30.37 18.0225 30.5109L18.5118 30.5131V30.074C18.4444 30.0601 18.4555 29.9828 18.5289 29.9864C18.5263 29.8642 18.5246 29.6695 18.705 29.6514C18.705 29.566 18.705 29.4876 18.705 29.402C18.705 29.3744 18.7218 29.3323 18.7468 29.3069L18.7567 29.2137C18.7511 29.2092 18.7474 29.2023 18.7474 29.1945C18.7474 29.185 18.7531 29.1769 18.7613 29.1727L18.7724 29.0672L18.7829 29.1727C18.7909 29.1769 18.7969 29.1852 18.7969 29.1945C18.7969 29.2028 18.7929 29.2095 18.7869 29.2137L18.796 29.3072C18.8213 29.3323 18.8381 29.3747 18.8381 29.402C18.8381 29.4876 18.8381 29.566 18.8381 29.6514C19.0179 29.6695 19.0165 29.8642 19.0139 29.9864C19.0876 29.9828 19.0984 30.0601 19.031 30.074C19.031 30.1468 19.031 30.2194 19.031 30.2922C19.0865 30.2428 19.1181 30.2216 19.1915 30.2222V30.076C19.1502 30.0676 19.1568 30.0205 19.2017 30.0227C19.2003 29.9482 19.1994 29.8542 19.309 29.8433V29.7691C19.2919 29.7566 19.2816 29.7368 19.2808 29.7144C19.2791 29.6701 19.3354 29.6589 19.3314 29.6003C19.3275 29.5962 19.3249 29.5928 19.3249 29.5842C19.3249 29.5758 19.3323 29.5644 19.3422 29.5613L19.3508 29.419L19.359 29.5618C19.3681 29.566 19.3741 29.5764 19.3741 29.5842C19.3741 29.5928 19.3715 29.5962 19.3678 29.6003C19.3676 29.6628 19.4168 29.6662 19.4182 29.7144C19.4193 29.7368 19.4071 29.7566 19.39 29.7691V29.8433C19.4999 29.8542 19.499 29.9482 19.4973 30.0227C19.5423 30.0205 19.5488 30.0676 19.5078 30.076V30.2241C19.7909 30.2422 19.9462 30.5366 19.9368 30.7871C20.2947 30.8356 20.5252 30.8641 20.9329 30.9268C20.6063 29.8899 20.202 28.5473 19.7226 27.6462L19.7209 27.6437L19.6751 27.5667L19.6669 27.5555C19.9542 27.3502 20.1508 27.2121 20.4307 27.0138C20.4871 26.9862 20.5295 27.0473 20.4854 27.0874C20.425 27.1307 20.5588 27.0355 20.412 27.1396L20.002 27.4305L20.0754 27.5667C20.2492 27.5714 20.423 27.5762 20.5966 27.5812C20.926 27.3452 21.0518 27.2587 21.3195 27.0685C21.3755 27.0411 21.4177 27.1022 21.3738 27.1424C21.1551 27.2978 21.0546 27.3689 20.8134 27.5402C21.8057 28.7051 22.5036 29.8935 23.1153 30.9358L23.3326 31.3087L24.3636 31.6C24.3619 31.4167 24.3596 31.1188 24.3574 30.9416C24.346 30.0269 24.3244 28.6354 24.3289 27.7204C22.3676 26.6017 20.3061 25.6848 17.9997 25.6C15.6936 25.6848 13.6321 26.6017 11.6708 27.7204Z" fill="#DA6713"/>
<path fill-rule="evenodd" clip-rule="evenodd" d="M22.9283 34.8929C22.8408 34.8679 22.7695 34.7845 22.7728 34.7056C22.775 34.6266 22.8457 34.5823 22.9338 34.6068C23.021 34.6312 23.093 34.7152 23.0908 34.7948C23.0875 34.8744 23.0161 34.918 22.9283 34.8929Z" fill="#DA6713"/>
<path fill-rule="evenodd" clip-rule="evenodd" d="M13.0713 34.8929C13.1592 34.8679 13.2302 34.7845 13.2271 34.7056C13.2247 34.6266 13.154 34.5823 13.0658 34.6068C12.9786 34.6312 12.9067 34.7152 12.9091 34.7948C12.9122 34.8744 12.9835 34.918 13.0713 34.8929Z" fill="#DA6713"/>
<path fill-rule="evenodd" clip-rule="evenodd" d="M12.4707 33.4633C12.4507 33.4694 12.4307 33.4756 12.411 33.4819C12.411 33.5885 12.411 33.695 12.411 33.8015C12.411 33.9126 12.411 34.0235 12.411 34.1346V34.148L12.3977 34.1523C12.2586 34.1985 12.1198 34.2452 11.9807 34.2914L11.9546 34.3V34.2734C11.9546 34.0248 11.9546 33.7763 11.9546 33.5277C11.9546 33.2789 11.9546 33.0301 11.9546 32.7813C11.9546 32.6456 11.9546 32.5097 11.9546 32.374V32.3597L11.9686 32.3558C12.1077 32.3176 12.2468 32.2793 12.3858 32.2415L12.411 32.2347V32.2598C12.411 32.3943 12.411 32.5286 12.411 32.6631C12.411 32.789 12.411 32.9149 12.411 33.0408C12.4315 33.0346 12.4519 33.0285 12.4724 33.0223C12.5479 32.8687 12.6235 32.7148 12.7001 32.5611C12.7766 32.4073 12.8539 32.2534 12.9314 32.1L12.9354 32.092L12.9442 32.0899C13.0907 32.0526 13.2373 32.0155 13.384 31.9782L13.4266 31.9672L13.4066 32.005C13.3089 32.1899 13.2112 32.3749 13.1151 32.5607C13.0198 32.7448 12.9245 32.9288 12.8304 33.1134C12.9285 33.2272 13.0267 33.3413 13.1258 33.4546C13.2266 33.57 13.3291 33.6843 13.4318 33.7983L13.4515 33.8202L13.4228 33.8288C13.2697 33.8748 13.1166 33.9213 12.9635 33.9675L12.9516 33.9713L12.943 33.9622C12.8627 33.8778 12.7821 33.7938 12.702 33.7091C12.6247 33.6272 12.5472 33.5457 12.4707 33.4633ZM14.0318 33.2547C14.0318 33.3843 14.0318 33.5138 14.0318 33.6436V33.6579L14.0175 33.6618C13.878 33.6993 13.7384 33.7362 13.5996 33.7751L13.5742 33.7822V33.7569C13.5742 33.4548 13.5742 33.153 13.5742 32.8509C13.5742 32.5489 13.5742 32.2463 13.5742 31.9443V31.9292L13.5892 31.9258C14.0247 31.8225 14.4609 31.7228 14.8999 31.6342L14.9237 31.6294V31.6529C14.9237 31.8819 14.9237 32.1111 14.9237 32.3401C14.9237 32.5691 14.9237 32.7983 14.9237 33.0273V33.0424L14.9083 33.0458C14.6149 33.1104 14.3225 33.1799 14.0318 33.2547ZM15.5601 32.4241C15.639 32.2716 15.7182 32.1191 15.7973 31.9668C15.8884 31.792 15.9801 31.6178 16.0736 31.4444L16.0783 31.4355L16.0885 31.4344C16.2281 31.4175 16.3674 31.4011 16.5067 31.3843L16.529 31.3818V31.4032C16.529 31.6945 16.529 31.9859 16.529 32.2771C16.529 32.5682 16.529 32.8593 16.529 33.1503V33.1667L16.5119 33.1692C16.3726 33.1878 16.2333 33.2063 16.0938 33.2245L16.0712 33.2277V33.2058C16.0712 33.0512 16.0712 32.8965 16.0712 32.7417C16.0712 32.6121 16.0712 32.4826 16.0712 32.3531C15.9908 32.4983 15.9112 32.6442 15.8325 32.7908C15.7408 32.962 15.6495 33.1336 15.5579 33.3053L15.5534 33.3135L15.5439 33.3151C15.4046 33.3408 15.2651 33.3663 15.126 33.3934L15.1022 33.3979V33.3747C15.1022 33.1439 15.1022 32.9126 15.1022 32.6818C15.1022 32.4505 15.1022 32.2192 15.1022 31.9882C15.1022 31.8619 15.1022 31.7357 15.1022 31.6096V31.5944L15.1182 31.5912C15.257 31.5637 15.397 31.5411 15.537 31.5184L15.5601 31.5145V31.537C15.5601 31.6982 15.5601 31.8596 15.5601 32.021C15.5601 32.1553 15.5601 32.2896 15.5601 32.4241ZM17.5862 32.6807C17.5862 32.6568 17.5862 32.6326 17.5862 32.6087V32.5903L17.6052 32.5898C17.7447 32.5862 17.8843 32.5823 18.0238 32.58L18.0438 32.5796V32.5989C18.0438 32.6763 18.0438 32.7535 18.0438 32.8309C18.0438 32.9081 18.0438 32.985 18.0438 33.0622V33.0806L18.0245 33.0811C17.5878 33.0922 17.1511 33.1123 16.7159 33.1475L16.6943 33.1494V33.1289C16.6943 32.8377 16.6943 32.5464 16.6943 32.2552C16.6943 31.9638 16.6943 31.6725 16.6943 31.3809V31.3636L16.7126 31.3622C17.1488 31.3299 17.5862 31.3098 18.0236 31.3005L18.0438 31.3V31.3196C18.0438 31.3968 18.0438 31.4744 18.0438 31.5516C18.0438 31.629 18.0438 31.7062 18.0438 31.7833V31.802L18.0243 31.8022C17.885 31.8045 17.7457 31.8079 17.6064 31.8115L17.5862 31.812V31.7927C17.5862 31.769 17.5862 31.7455 17.5862 31.7219C17.4414 31.7255 17.2966 31.7312 17.1521 31.7414C17.1521 31.9019 17.1521 32.0624 17.1521 32.2229C17.1521 32.3822 17.1521 32.5416 17.1521 32.7007C17.2966 32.69 17.4414 32.6845 17.5862 32.6807ZM19.0983 31.7608C19.0983 31.9825 19.0983 32.2042 19.0983 32.4262C19.0983 32.6547 19.0983 32.8833 19.0983 33.1118V33.1325L19.0769 33.1307C18.9376 33.1195 18.7983 33.1082 18.659 33.0981L18.6407 33.097V33.0795C18.6407 32.8512 18.6407 32.6228 18.6407 32.3945C18.6407 32.1721 18.6407 31.9499 18.6407 31.7278C18.4983 31.7241 18.3561 31.7205 18.214 31.7168L18.1947 31.7164V31.698C18.1947 31.5734 18.1947 31.4489 18.1947 31.3242V31.3048L18.2149 31.3053C18.6531 31.316 19.0905 31.3479 19.5264 31.3886L19.5443 31.3904V31.4075C19.5443 31.5325 19.5443 31.6574 19.5443 31.7822V31.8038L19.5219 31.8011C19.3812 31.784 19.24 31.7713 19.0983 31.7608ZM20.4909 32.9069C20.3494 32.8817 20.208 32.8568 20.0663 32.8334C20.0525 32.9627 20.039 33.0918 20.0261 33.2208L20.0242 33.2406L20.0038 33.2379C19.8645 33.219 19.7249 33.2003 19.5856 33.1817L19.5666 33.1792L19.5688 33.161C19.6001 32.8739 19.6313 32.5866 19.6627 32.2994C19.694 32.0116 19.7266 31.7237 19.7592 31.4359L19.7613 31.4166L19.7815 31.4193C20.1162 31.463 20.4495 31.5168 20.7823 31.5718L20.7973 31.5743L20.7987 31.5887C20.8301 31.8889 20.8615 32.1894 20.8926 32.4899C20.924 32.7911 20.9554 33.0922 20.9879 33.3934L20.9908 33.4198L20.9637 33.4136C20.8253 33.3825 20.686 33.357 20.5465 33.3317L20.5318 33.329L20.5303 33.3151C20.5163 33.1789 20.5035 33.0431 20.4909 32.9069ZM22.0646 32.2689C21.9761 32.2477 21.888 32.227 21.7995 32.2058C21.7681 32.4252 21.7377 32.6447 21.7073 32.8644C21.6761 33.0897 21.6448 33.3151 21.6134 33.5404L21.6103 33.5614L21.5891 33.5564C21.4477 33.5238 21.3063 33.4917 21.165 33.4594L21.1472 33.4553L21.1501 33.438C21.1981 33.153 21.2404 32.8673 21.2801 32.5812C21.32 32.2923 21.3586 32.0037 21.3983 31.7148L21.4011 31.6941L21.4223 31.6989C21.7848 31.7797 22.1466 31.8628 22.5072 31.9509L22.5222 31.9545V31.9693C22.5222 32.2723 22.5222 32.5753 22.5222 32.878C22.5222 33.181 22.5222 33.4838 22.5222 33.7865V33.8122L22.4963 33.8045C22.3584 33.7626 22.2186 33.7248 22.0791 33.6879L22.0646 33.6841V33.6697C22.0646 33.4339 22.0646 33.1981 22.0646 32.962C22.0646 32.731 22.0646 32.4999 22.0646 32.2689ZM23.5877 32.6756C23.4976 32.6497 23.407 32.624 23.3169 32.598C23.2888 32.8004 23.2598 33.0025 23.233 33.2049C23.2054 33.4143 23.1764 33.6233 23.1486 33.8329C23.1415 33.8794 23.1355 33.9258 23.1293 33.9723L23.1265 33.9948L23.1039 33.988C23.0637 33.9759 23.0235 33.9638 22.9834 33.9515C22.8869 33.9226 22.7906 33.8933 22.6941 33.8641L22.6784 33.8593L22.6805 33.8436C22.7205 33.5504 22.759 33.257 22.7972 32.9636C22.836 32.6681 22.8757 32.3727 22.9154 32.0774L22.9185 32.0558L22.9403 32.0615C23.3045 32.1571 23.668 32.2566 24.0312 32.3558L24.0455 32.3597V32.374C24.0455 32.6907 24.0455 33.0073 24.0455 33.324C24.0455 33.6406 24.0455 33.957 24.0455 34.2734V34.3L24.0193 34.2912C23.8798 34.2447 23.7405 34.1983 23.601 34.1521L23.5877 34.1478V34.1343C23.5877 33.8889 23.5877 33.6436 23.5877 33.3982C23.5877 33.1573 23.5877 32.9165 23.5877 32.6756ZM14.0318 32.2452C14.0318 32.3444 14.0318 32.4437 14.0318 32.5427C14.0318 32.6385 14.0318 32.7346 14.0318 32.8304C14.1766 32.794 14.3211 32.7578 14.4661 32.723C14.4661 32.6249 14.4661 32.5265 14.4661 32.428C14.4661 32.3331 14.4661 32.2379 14.4661 32.1428C14.3213 32.1767 14.1766 32.2108 14.0318 32.2452ZM20.3927 31.9866C20.3742 31.9834 20.3556 31.9804 20.3371 31.9773C20.29 31.9693 20.2429 31.9616 20.1961 31.9538C20.1852 31.952 20.1742 31.9502 20.1633 31.9484C20.1623 31.9554 20.1619 31.9627 20.1612 31.97C20.1517 32.0487 20.1407 32.1275 20.1322 32.2065C20.1245 32.2793 20.1146 32.3522 20.1065 32.4252C20.2211 32.4448 20.3356 32.4644 20.4502 32.4844C20.4414 32.4143 20.4319 32.3442 20.4243 32.2739C20.416 32.1953 20.4062 32.117 20.3979 32.0387C20.396 32.0212 20.3941 32.0041 20.3927 31.9866Z" fill="#DA6713"/>
<path d="M13.8822 34.2976C13.7697 34.3314 13.6577 34.3646 13.5454 34.3977C13.5454 34.4816 13.5454 34.5652 13.5454 34.6491C13.5454 34.7327 13.5454 34.8166 13.5454 34.9C13.6577 34.8671 13.7697 34.834 13.8822 34.8009C13.8822 34.7487 13.8822 34.6964 13.8822 34.6442C13.8456 34.6549 13.8099 34.6655 13.7743 34.6762C13.7743 34.6924 13.7743 34.7086 13.7743 34.7249C13.7333 34.7371 13.6923 34.749 13.6523 34.7608C13.6523 34.713 13.6523 34.6651 13.6523 34.6173C13.6523 34.5694 13.6523 34.5217 13.6523 34.4737C13.6923 34.4619 13.7333 34.4496 13.7743 34.4375C13.7743 34.454 13.7743 34.4702 13.7743 34.4864C13.8099 34.4758 13.8456 34.4653 13.8822 34.4545C13.8822 34.4021 13.8822 34.3502 13.8822 34.2976ZM14.5047 34.6412C14.496 34.5592 14.488 34.4769 14.4798 34.3947C14.4718 34.3127 14.4638 34.2304 14.4558 34.1484C14.3685 34.1715 14.2812 34.1947 14.1949 34.2179C14.1857 34.3041 14.1779 34.3905 14.1697 34.4765C14.1617 34.5627 14.1537 34.6489 14.1457 34.7351C14.1813 34.7256 14.2179 34.7161 14.2545 34.7066C14.2579 34.666 14.2616 34.6255 14.2652 34.5849C14.3052 34.5745 14.3455 34.5641 14.3855 34.5534C14.3891 34.5923 14.3925 34.631 14.3961 34.6697C14.4318 34.6602 14.4684 34.6507 14.5047 34.6412ZM14.2749 34.4744C14.2802 34.4165 14.2858 34.3585 14.2909 34.3006C14.3132 34.2943 14.3365 34.2883 14.3598 34.2821C14.3648 34.3374 14.3702 34.3924 14.3758 34.4477C14.3418 34.4565 14.3079 34.4653 14.2749 34.4744ZM14.7792 34.0779C14.7792 34.1627 14.7792 34.2475 14.7792 34.3321C14.7792 34.4167 14.7792 34.5015 14.7792 34.5861C14.8158 34.5791 14.8524 34.5719 14.8897 34.565C14.8897 34.4973 14.8897 34.4301 14.8897 34.3627C14.9317 34.3546 14.9734 34.3462 15.0153 34.3379C15.0153 34.4053 15.0153 34.473 15.0153 34.5406C15.0519 34.5335 15.0883 34.5261 15.1259 34.5191C15.1259 34.4338 15.1259 34.3486 15.1259 34.2635C15.1259 34.1783 15.1259 34.093 15.1259 34.0077C15.0883 34.0154 15.0519 34.0228 15.0153 34.0302C15.0153 34.0965 15.0153 34.1625 15.0153 34.2285C14.9734 34.2369 14.9317 34.2452 14.8897 34.2533C14.8897 34.1875 14.8897 34.1215 14.8897 34.0555C14.8524 34.0631 14.8158 34.0705 14.7792 34.0779ZM15.4313 33.9449C15.4313 34.0309 15.4313 34.1164 15.4313 34.2024C15.4313 34.2881 15.4313 34.3736 15.4313 34.4593C15.4679 34.4533 15.5053 34.4473 15.5429 34.4412C15.5429 34.3729 15.5429 34.3048 15.5429 34.2364C15.5596 34.2336 15.5766 34.2309 15.5935 34.2278C15.6265 34.2909 15.6595 34.3534 15.6934 34.4167C15.7334 34.4097 15.7744 34.4032 15.8153 34.3965C15.7707 34.3145 15.7264 34.2327 15.6825 34.1512C15.7244 34.0608 15.7664 33.9702 15.8083 33.8796C15.769 33.8863 15.73 33.8935 15.6915 33.9C15.6585 33.9727 15.6255 34.0453 15.5935 34.1173C15.5766 34.1203 15.5596 34.1234 15.5429 34.1261C15.5429 34.0594 15.5429 33.9927 15.5429 33.9259C15.5053 33.9322 15.4679 33.9387 15.4313 33.9449ZM16.3919 33.8015C16.2743 33.8177 16.1577 33.8342 16.0408 33.8509C16.0408 33.8879 16.0408 33.9252 16.0408 33.9623C16.0801 33.9568 16.1201 33.9514 16.1601 33.9459C16.1601 34.0142 16.1601 34.0826 16.1601 34.1507C16.1601 34.219 16.1601 34.2874 16.1601 34.3555C16.1977 34.3507 16.235 34.346 16.2723 34.3409C16.2723 34.2726 16.2723 34.2042 16.2723 34.1356C16.2723 34.0673 16.2723 33.9987 16.2723 33.9303C16.3116 33.9248 16.3516 33.9192 16.3919 33.9137C16.3919 33.8764 16.3919 33.8388 16.3919 33.8015ZM16.6297 34.0803C16.6297 34.1016 16.6297 34.1229 16.6297 34.1442C16.6884 34.1384 16.7482 34.1326 16.8079 34.1266C16.8079 34.1053 16.8079 34.084 16.8079 34.0624C16.7482 34.0684 16.6884 34.0745 16.6297 34.0803ZM17.4414 34.2496C17.4414 34.1611 17.4414 34.0726 17.4414 33.9841C17.4414 33.8954 17.4414 33.8068 17.4414 33.7183C17.3236 33.726 17.2062 33.7334 17.0884 33.741C17.0884 33.8293 17.0884 33.9174 17.0884 34.0056C17.0884 34.0937 17.0884 34.1822 17.0884 34.2703C17.126 34.2682 17.1633 34.2658 17.2006 34.2635C17.2006 34.1943 17.2006 34.1247 17.2006 34.0555C17.2006 33.9862 17.2006 33.9167 17.2006 33.8472C17.2426 33.8446 17.2855 33.8418 17.3282 33.839C17.3282 33.9086 17.3282 33.9783 17.3282 34.0478C17.3282 34.1171 17.3282 34.1866 17.3282 34.2561C17.3655 34.2538 17.4031 34.2517 17.4414 34.2496ZM18.0935 33.7C17.9777 33.7016 17.8627 33.704 17.7478 33.7063C17.7478 33.795 17.7478 33.8838 17.7478 33.9725C17.7478 34.061 17.7478 34.1498 17.7478 34.2385C17.8627 34.2364 17.9777 34.2343 18.0935 34.2325C18.0935 34.1945 18.0935 34.1565 18.0935 34.1185C18.016 34.1196 17.9384 34.1208 17.861 34.1222C17.861 34.0907 17.861 34.0589 17.861 34.0272C17.9001 34.0263 17.9393 34.0256 17.9794 34.0249C17.9794 33.9869 17.9794 33.9489 17.9794 33.9109C17.9393 33.9116 17.9001 33.9123 17.861 33.913C17.861 33.8814 17.861 33.8497 17.861 33.8182C17.9384 33.8166 18.016 33.8154 18.0935 33.8143C18.0935 33.7763 18.0935 33.738 18.0935 33.7ZM18.6851 33.7308C18.5675 33.7232 18.4499 33.716 18.3323 33.7088C18.3323 33.7471 18.3323 33.7851 18.3323 33.8228C18.3723 33.8256 18.4123 33.8277 18.4526 33.8302C18.4526 33.8998 18.4526 33.9695 18.4526 34.039C18.4526 34.1083 18.4526 34.178 18.4526 34.2475C18.4899 34.2496 18.5275 34.2517 18.5648 34.2538C18.5648 34.1845 18.5648 34.115 18.5648 34.0455C18.5648 33.976 18.5648 33.9065 18.5648 33.8367C18.6048 33.8395 18.6448 33.8418 18.6851 33.8446C18.6851 33.8066 18.6851 33.7686 18.6851 33.7308ZM19.2989 33.7781C19.184 33.7663 19.0691 33.7542 18.9542 33.7424C18.9542 33.8305 18.9542 33.9188 18.9542 34.0066C18.9542 34.0948 18.9542 34.1829 18.9542 34.2709C19.0691 34.2821 19.184 34.293 19.2989 34.3041C19.2989 34.2665 19.2989 34.229 19.2989 34.1912C19.2214 34.1838 19.144 34.1762 19.0664 34.1685C19.0664 34.1373 19.0664 34.1057 19.0664 34.0745C19.1055 34.0782 19.1447 34.0821 19.185 34.0863C19.185 34.0485 19.185 34.0107 19.185 33.9732C19.1447 33.9693 19.1055 33.9653 19.0664 33.9614C19.0664 33.9299 19.0664 33.8984 19.0664 33.8671C19.144 33.875 19.2214 33.8831 19.2989 33.8907C19.2989 33.8532 19.2989 33.8156 19.2989 33.7781ZM19.9271 33.8495C19.8095 33.833 19.6927 33.8166 19.576 33.8001C19.576 33.8875 19.576 33.9746 19.576 34.0619C19.576 34.1491 19.576 34.2364 19.576 34.3238C19.6134 34.3286 19.651 34.3335 19.6883 34.3384C19.6883 34.2862 19.6883 34.2339 19.6883 34.1817C19.7676 34.1924 19.8468 34.2031 19.9271 34.2135C19.9271 34.153 19.9271 34.0923 19.9271 34.0316C19.9271 33.9709 19.9271 33.9102 19.9271 33.8495ZM19.6883 33.9278C19.7302 33.9338 19.7719 33.9396 19.8148 33.9454C19.8148 33.9927 19.8148 34.0399 19.8148 34.087C19.7719 34.0812 19.7302 34.0754 19.6883 34.0696C19.6883 34.0226 19.6883 33.9753 19.6883 33.9278ZM20.5766 33.9568C20.4597 33.9368 20.3441 33.9167 20.2282 33.8965C20.2282 33.9827 20.2282 34.0689 20.2282 34.1551C20.2282 34.2413 20.2282 34.3275 20.2282 34.4137C20.3441 34.4329 20.4597 34.4517 20.5766 34.4707C20.5766 34.4176 20.5766 34.3648 20.5766 34.3117C20.5766 34.2589 20.5766 34.2058 20.5766 34.1528C20.4973 34.1396 20.418 34.1261 20.3395 34.1127C20.3395 34.084 20.3395 34.0552 20.3395 34.0263C20.418 34.0399 20.4973 34.0536 20.5766 34.067C20.5766 34.0302 20.5766 33.9936 20.5766 33.9568ZM20.3395 34.3215C20.3395 34.2888 20.3395 34.2561 20.3395 34.2232C20.3814 34.2304 20.4234 34.2373 20.4651 34.2443C20.4651 34.277 20.4651 34.3096 20.4651 34.3423C20.4234 34.3354 20.3814 34.3284 20.3395 34.3215ZM20.8794 34.5254C20.9926 34.5513 21.1056 34.5775 21.2198 34.6032C21.2198 34.5186 21.2198 34.4338 21.2198 34.3493C21.2198 34.2647 21.2198 34.1799 21.2198 34.0953C21.1832 34.0867 21.1468 34.0779 21.1102 34.0694C21.1102 34.1389 21.1102 34.2084 21.1102 34.2781C21.0692 34.2686 21.0292 34.2594 20.989 34.2499C20.989 34.1801 20.989 34.1104 20.989 34.0406C20.9526 34.0321 20.916 34.0233 20.8794 34.0144C20.8794 34.0677 20.8794 34.1208 20.8794 34.1741C20.8794 34.2272 20.8794 34.2802 20.8794 34.3335C20.956 34.3513 21.0328 34.3692 21.1102 34.387C21.1102 34.4146 21.1102 34.4419 21.1102 34.4693C21.0328 34.4517 20.956 34.4338 20.8794 34.416C20.8794 34.4524 20.8794 34.4887 20.8794 34.5254ZM21.8603 34.2457C21.7463 34.2158 21.6331 34.1854 21.5199 34.1551C21.5199 34.2394 21.5199 34.3238 21.5199 34.4079C21.5199 34.4925 21.5199 34.5766 21.5199 34.6609C21.5555 34.6704 21.5921 34.6799 21.6288 34.6894C21.6288 34.6391 21.6288 34.5884 21.6288 34.5379C21.7054 34.5583 21.7827 34.5784 21.8603 34.5986C21.8603 34.5397 21.8603 34.4809 21.8603 34.4222C21.8603 34.3634 21.8603 34.3045 21.8603 34.2457ZM21.6288 34.2925C21.6697 34.3034 21.7107 34.3143 21.7517 34.3249C21.7517 34.3708 21.7517 34.4165 21.7517 34.4619C21.7107 34.4512 21.6697 34.4403 21.6288 34.4297C21.6288 34.384 21.6288 34.3381 21.6288 34.2925ZM22.4545 34.4146C22.3549 34.3852 22.255 34.356 22.1561 34.3263C22.1561 34.4102 22.1561 34.4941 22.1561 34.578C22.1561 34.6618 22.1561 34.7455 22.1561 34.8294C22.1917 34.84 22.2273 34.8507 22.2639 34.8613C22.2639 34.7955 22.2639 34.7295 22.2639 34.6639C22.2639 34.5981 22.2639 34.5318 22.2639 34.466C22.3272 34.4848 22.3905 34.5038 22.4545 34.5223C22.4545 34.4864 22.4545 34.4505 22.4545 34.4146Z" fill="#DA6713"/>
<path d="M17.0454 39.1H17.3543V39.217L17.1682 39.3378H17.3543V39.4H17.0454V39.3358L17.2477 39.202V39.1621H17.152V39.1901H17.0454V39.1ZM17.4758 39.1H17.7845V39.4H17.4758V39.1ZM17.5824 39.1621V39.3378H17.6779V39.1621H17.5824ZM17.9029 39.1H18.2117V39.4H17.9029V39.1ZM18.0095 39.1621V39.3378H18.1051V39.1621H18.0095ZM18.6363 39.4H18.3276V39.1H18.6363V39.1621C18.569 39.1621 18.5015 39.1621 18.4342 39.1621V39.2201H18.6363V39.4ZM18.4342 39.28V39.3378H18.5297V39.28H18.4342Z" fill="#DA6713"/>
<path fill-rule="evenodd" clip-rule="evenodd" d="M16.5681 39.4C16.4802 39.4 16.4091 39.333 16.4091 39.25C16.4091 39.1671 16.4802 39.1 16.5681 39.1C16.6561 39.1 16.7272 39.1671 16.7272 39.25C16.7272 39.333 16.6561 39.4 16.5681 39.4Z" fill="#DA6713"/>
<path fill-rule="evenodd" clip-rule="evenodd" d="M19.1138 39.4C19.0259 39.4 18.9546 39.333 18.9546 39.25C18.9546 39.1671 19.0259 39.1 19.1138 39.1C19.2014 39.1 19.2728 39.1671 19.2728 39.25C19.2728 39.333 19.2014 39.4 19.1138 39.4Z" fill="#DA6713"/>
<path d="M15.7545 15.0679H1.96884C1.4679 15.0679 1.06104 14.6613 1.06104 14.1606V12.1996C1.06104 11.699 1.4679 11.2924 1.96884 11.2924H31.9179C32.4188 11.2924 32.8257 11.699 32.8257 12.1996V14.1606C32.8257 14.6613 32.4188 15.0679 31.9179 15.0679H18.8421" stroke="#DA6713" stroke-width="2" stroke-linejoin="round"/>
<path d="M30.4565 16L5 24.6793" stroke="#DA6713" stroke-width="2" stroke-linecap="round" stroke-linejoin="round"/>
<path d="M8 46L27.5 39" stroke="#DA6713" stroke-width="2" stroke-linecap="round" stroke-linejoin="round"/>
<path d="M15.7545 11.2923V4.35667C15.7545 3.89389 16.0624 3.4885 16.5084 3.36395C18.3142 2.85965 22.8642 1.5873 24.5467 1.11352C25.325 0.894951 26.0629 1.37239 26.2963 2.38465C26.4832 3.1991 26.0923 3.8194 25.2358 4.07461C23.3285 4.64362 18.9703 5.88911 18.9703 5.88911V11.2911" stroke="#DA6713" stroke-width="2" stroke-linecap="round" stroke-linejoin="round"/>
<rect x="20" y="40" width="25" height="2" fill="white"/>
<rect x="20" y="33" width="25" height="2" fill="white"/>
<path d="M16.9189 32.1811H46.9376C46.9376 23.4725 40.2177 19.134 31.9277 19.134C23.6377 19.134 16.9177 22.68 16.9177 32.1811H16.9189Z" fill="white" stroke="#DA6713" stroke-width="2" stroke-miterlimit="10"/>
<path d="M29.5757 23.1012C29.9563 23.1012 30.2648 22.7929 30.2648 22.4126C30.2648 22.0322 29.9563 21.7239 29.5757 21.7239C29.1951 21.7239 28.8866 22.0322 28.8866 22.4126C28.8866 22.7929 29.1951 23.1012 29.5757 23.1012Z" fill="white" stroke="#DA6713" stroke-miterlimit="10"/>
<path d="M33.874 23.1012C34.2546 23.1012 34.5631 22.7929 34.5631 22.4126C34.5631 22.0322 34.2546 21.7239 33.874 21.7239C33.4935 21.7239 33.1849 22.0322 33.1849 22.4126C33.1849 22.7929 33.4935 23.1012 33.874 23.1012Z" fill="white" stroke="#DA6713" stroke-miterlimit="10"/>
<path d="M40.3862 26.4299C40.7668 26.4299 41.0753 26.1215 41.0753 25.7412C41.0753 25.3608 40.7668 25.0525 40.3862 25.0525C40.0057 25.0525 39.6971 25.3608 39.6971 25.7412C39.6971 26.1215 40.0057 26.4299 40.3862 26.4299Z" fill="white" stroke="#DA6713" stroke-miterlimit="10"/>
<path d="M42.5563 29.6425C42.9369 29.6425 43.2454 29.3342 43.2454 28.9538C43.2454 28.5735 42.9369 28.2651 42.5563 28.2651C42.1757 28.2651 41.8672 28.5735 41.8672 28.9538C41.8672 29.3342 42.1757 29.6425 42.5563 29.6425Z" fill="white" stroke="#DA6713" stroke-miterlimit="10"/>
<path d="M23.105 26.3468C23.4856 26.3468 23.7941 26.0385 23.7941 25.6582C23.7941 25.2778 23.4856 24.9695 23.105 24.9695C22.7244 24.9695 22.4159 25.2778 22.4159 25.6582C22.4159 26.0385 22.7244 26.3468 23.105 26.3468Z" fill="white" stroke="#DA6713" stroke-miterlimit="10"/>
<path d="M27.4046 26.3468C27.7851 26.3468 28.0937 26.0385 28.0937 25.6582C28.0937 25.2778 27.7851 24.9695 27.4046 24.9695C27.024 24.9695 26.7155 25.2778 26.7155 25.6582C26.7155 26.0385 27.024 26.3468 27.4046 26.3468Z" fill="white" stroke="#DA6713" stroke-miterlimit="10"/>
<path d="M31.7249 26.4299C32.1054 26.4299 32.414 26.1215 32.414 25.7412C32.414 25.3608 32.1054 25.0525 31.7249 25.0525C31.3443 25.0525 31.0358 25.3608 31.0358 25.7412C31.0358 26.1215 31.3443 26.4299 31.7249 26.4299Z" fill="white" stroke="#DA6713" stroke-miterlimit="10"/>
<path d="M36.0244 26.4299C36.405 26.4299 36.7135 26.1215 36.7135 25.7412C36.7135 25.3608 36.405 25.0525 36.0244 25.0525C35.6439 25.0525 35.3353 25.3608 35.3353 25.7412C35.3353 26.1215 35.6439 26.4299 36.0244 26.4299Z" fill="white" stroke="#DA6713" stroke-miterlimit="10"/>
<path d="M38.2151 29.7255C38.5957 29.7255 38.9042 29.4172 38.9042 29.0368C38.9042 28.6565 38.5957 28.3481 38.2151 28.3481C37.8345 28.3481 37.526 28.6565 37.526 29.0368C37.526 29.4172 37.8345 29.7255 38.2151 29.7255Z" fill="white" stroke="#DA6713" stroke-miterlimit="10"/>
<path d="M20.9351 29.6425C21.3157 29.6425 21.6242 29.3342 21.6242 28.9538C21.6242 28.5735 21.3157 28.2651 20.9351 28.2651C20.5545 28.2651 20.246 28.5735 20.246 28.9538C20.246 29.3342 20.5545 29.6425 20.9351 29.6425Z" fill="white" stroke="#DA6713" stroke-miterlimit="10"/>
<path d="M25.2346 29.6425C25.6152 29.6425 25.9237 29.3342 25.9237 28.9538C25.9237 28.5735 25.6152 28.2651 25.2346 28.2651C24.8541 28.2651 24.5455 28.5735 24.5455 28.9538C24.5455 29.3342 24.8541 29.6425 25.2346 29.6425Z" fill="white" stroke="#DA6713" stroke-miterlimit="10"/>
<path d="M29.5537 29.7255C29.9343 29.7255 30.2428 29.4172 30.2428 29.0368C30.2428 28.6565 29.9343 28.3481 29.5537 28.3481C29.1731 28.3481 28.8646 28.6565 28.8646 29.0368C28.8646 29.4172 29.1731 29.7255 29.5537 29.7255Z" fill="white" stroke="#DA6713" stroke-miterlimit="10"/>
<path d="M33.8533 29.7255C34.2339 29.7255 34.5424 29.4172 34.5424 29.0368C34.5424 28.6565 34.2339 28.3481 33.8533 28.3481C33.4727 28.3481 33.1642 28.6565 33.1642 29.0368C33.1642 29.4172 33.4727 29.7255 33.8533 29.7255Z" fill="white" stroke="#DA6713" stroke-miterlimit="10"/>
<path d="M44.2423 39.0851V42.2354" stroke="#DA6713" stroke-width="2" stroke-miterlimit="10"/>
<path d="M19.3857 42.2452V39.0851" stroke="#DA6713" stroke-width="2" stroke-miterlimit="10"/>
<path d="M43.8049 34.8406C45.3077 34.8406 46.1837 35.7857 46.1837 36.953V36.9738C46.1837 38.1399 45.2381 39.0862 44.07 39.0862H19.3491C18.1823 39.0862 17.2354 38.1411 17.2354 36.9738V36.953C17.2354 35.7869 18.0491 34.8406 19.9734 34.8406" fill="white"/>
<path d="M43.8049 34.8406C45.3077 34.8406 46.1837 35.7857 46.1837 36.953V36.9738C46.1837 38.1399 45.2381 39.0862 44.07 39.0862H19.3491C18.1823 39.0862 17.2354 38.1411 17.2354 36.9738V36.953C17.2354 35.7869 18.0491 34.8406 19.9734 34.8406" stroke="#DA6713" stroke-width="2" stroke-linecap="round" stroke-linejoin="round"/>
<path d="M34.2246 42.2451H46.455V45.3478C46.455 46.2258 45.7427 46.9377 44.8642 46.9377H18.8274C17.9489 46.9377 17.2366 46.2258 17.2366 45.3478V42.2451H31.2618" fill="white"/>
<path d="M34.2246 42.2451H46.455V45.3478C46.455 46.2258 45.7427 46.9377 44.8642 46.9377H18.8274C17.9489 46.9377 17.2366 46.2258 17.2366 45.3478V42.2451H31.2618" stroke="#DA6713" stroke-width="2" stroke-linecap="round" stroke-linejoin="round"/>
<path d="M44.3474 32.528V33.3021C44.3474 34.7967 42.9032 36.008 41.6398 36.008C40.236 36.008 39.2866 34.9237 38.9348 34.9237C38.5621 34.9237 37.7643 36.008 36.3763 36.008C35.1862 36.008 34.4922 34.9237 34.1306 34.9237C33.7689 34.9237 32.9638 36.008 31.5758 36.008C30.3344 36.008 29.776 34.9237 29.3093 34.9237C28.8426 34.9237 27.9556 36.008 26.8804 36.008C25.8052 36.008 24.8717 34.9237 24.488 34.9237C24.1301 34.9237 23.3848 36.008 22.1324 36.008C21.0205 36.008 19.0962 34.4499 19.0962 32.5267" stroke="#DA6713" stroke-width="2" stroke-linejoin="round"/>
</svg>
