<svg width="12" height="20" viewBox="0 0 12 20" fill="none" xmlns="http://www.w3.org/2000/svg">
<path d="M9.62212 0.395779L0.304164 9.26121C0.193565 9.36676 0.11504 9.48109 0.0685884 9.60422C0.0221368 9.72735 -0.000720045 9.85928 1.72812e-05 10C1.72812e-05 10.1407 0.0228742 10.2726 0.0685884 10.3958C0.114303 10.5189 0.192828 10.6332 0.304164 10.7388L9.62212 19.6306C9.88019 19.8769 10.2028 20 10.5899 20C10.977 20 11.3088 19.8681 11.5853 19.6042C11.8618 19.3404 12 19.0325 12 18.6807C12 18.3289 11.8618 18.0211 11.5853 17.7573L3.45623 10L11.5853 2.24274C11.8433 1.99648 11.9724 1.69288 11.9724 1.33193C11.9724 0.970978 11.8341 0.658926 11.5576 0.395779C11.2811 0.131926 10.9585 0 10.5899 0C10.2212 0 9.89862 0.131926 9.62212 0.395779Z" fill="#232323"/>
</svg>
