<svg width="12" height="20" viewBox="0 0 12 20" fill="none" xmlns="http://www.w3.org/2000/svg">
<path d="M2.37788 0.395779L11.6958 9.26121C11.8064 9.36676 11.885 9.48109 11.9314 9.60422C11.9779 9.72735 12.0007 9.85928 12 10C12 10.1407 11.9771 10.2726 11.9314 10.3958C11.8857 10.5189 11.8072 10.6332 11.6958 10.7388L2.37788 19.6306C2.11981 19.8769 1.79723 20 1.41014 20C1.02304 20 0.691243 19.8681 0.414745 19.6042C0.138248 19.3404 -9.53674e-07 19.0325 -9.53674e-07 18.6807C-9.53674e-07 18.3289 0.138248 18.0211 0.414745 17.7573L8.54377 10L0.414745 2.24274C0.156681 1.99648 0.0276489 1.69288 0.0276489 1.33193C0.0276489 0.970978 0.165897 0.658926 0.442395 0.395779C0.718892 0.131926 1.04147 0 1.41014 0C1.7788 0 2.10138 0.131926 2.37788 0.395779Z" fill="white"/>
</svg>
