<svg width="58" height="81" viewBox="0 0 58 81" fill="none" xmlns="http://www.w3.org/2000/svg">
<path d="M54.2386 41.9743C54.6374 42.1033 55.0363 42.2343 55.4352 42.3643L57.0005 42.8762V44.5229C57.0005 44.8776 57.0005 45.2323 57.0005 45.586C57.0005 45.9387 57.0005 46.2925 57.0005 46.6452C57.0005 47.3516 57.0005 48.057 57.0005 48.7634C57.0005 49.1171 57.0005 49.4699 57.0005 49.8236C57.0005 50.1763 57.0005 50.529 57.0005 50.8827C57.0005 51.5871 57.0005 52.2925 57.0005 52.9969V56.1683L56.9954 56.1703L52.8787 57.9278C52.1716 61.1586 51.1099 64.2443 49.5245 67.0145C45.1821 74.5997 37.83 78.2367 29.526 79.8941L28.9962 80L28.4674 79.8937C20.6016 78.3213 13.5063 74.9474 9.07026 68.0041C7.14233 64.987 5.90239 61.5445 5.10967 57.9227L1 56.1683V52.9969C1 52.2925 1 51.5871 1 50.8827C1 50.529 1 50.1763 1 49.8236C1 49.4699 1 49.1171 1 48.7634C1 48.057 1 47.3516 1 46.6452C1 46.2925 1 45.9387 1 45.586C1 45.2323 1 44.8776 1 44.5229V42.8783L2.56226 42.3653C2.95913 42.2343 3.35701 42.1053 3.75388 41.9753C3.75388 40.5746 3.76796 39.2 3.78407 37.8648C3.8284 34.3347 3.90296 30.8016 3.88584 27.2715L3.87777 25.7075L5.22953 24.9204C12.5857 20.6396 20.2621 17.2193 28.8955 16.8958L28.9962 16.8928L29.0979 16.8958C37.7313 17.2193 45.4078 20.6396 52.7639 24.9204L54.1157 25.7075L54.1076 27.2715C54.0905 30.8016 54.165 34.3347 54.2093 37.8648C54.2255 39.202 54.2396 40.5766 54.2386 41.9743Z" stroke="white" stroke-miterlimit="22.9256"/>
<path fill-rule="evenodd" clip-rule="evenodd" d="M54.2386 41.9743C54.6374 42.1033 55.0363 42.2343 55.4352 42.3643L57.0005 42.8762V44.5229C57.0005 44.8776 57.0005 45.2323 57.0005 45.586C57.0005 45.9388 57.0005 46.2925 57.0005 46.6452C57.0005 47.3516 57.0005 48.057 57.0005 48.7634C57.0005 49.1171 57.0005 49.4699 57.0005 49.8236C57.0005 50.1763 57.0005 50.529 57.0005 50.8827C57.0005 51.5871 57.0005 52.2925 57.0005 52.9969V56.1683L56.9954 56.1703L52.8787 57.9278C52.1716 61.1586 51.1099 64.2443 49.5245 67.0145C45.1821 74.5997 37.83 78.2367 29.526 79.8941L28.9962 80L28.4674 79.8937C20.6016 78.3213 13.5063 74.9474 9.07026 68.0041C7.14233 64.987 5.90239 61.5445 5.10967 57.9227L1 56.1683V52.9969C1 52.2925 1 51.5871 1 50.8827C1 50.529 1 50.1763 1 49.8236C1 49.4699 1 49.1171 1 48.7634C1 48.057 1 47.3516 1 46.6452C1 46.2925 1 45.9388 1 45.586C1 45.2323 1 44.8776 1 44.5229V42.8783L2.56226 42.3653C2.95913 42.2343 3.35701 42.1053 3.75388 41.9753C3.75388 40.5746 3.76796 39.2 3.78408 37.8648C3.8284 34.3347 3.90296 30.8016 3.88584 27.2715L3.87777 25.7075L5.22953 24.9204C12.5857 20.6396 20.2621 17.2193 28.8955 16.8958L28.9962 16.8928L29.0979 16.8958C37.7313 17.2193 45.4078 20.6396 52.7639 24.9204L54.1157 25.7075L54.1076 27.2715C54.0905 30.8016 54.165 34.3347 54.2093 37.8648C54.2255 39.202 54.2396 40.5766 54.2386 41.9743Z" fill="#231F20"/>
<path fill-rule="evenodd" clip-rule="evenodd" d="M6.58306 27.2548C6.59917 30.5602 6.52265 35.5868 6.48135 38.8911C6.47228 39.6439 6.46521 40.3906 6.46118 41.1333C7.47551 40.824 8.71851 40.5156 10.0844 40.0954C13.0337 35.356 15.7835 31.0953 19.8076 27.147C19.2717 26.6713 18.9776 26.4103 18.486 25.973C18.346 25.8127 18.5162 25.6092 18.7046 25.7271L19.0169 26.0133L19.2818 26.2199L20.832 27.6156L22.7257 27.6378L23.1266 27.146C22.6824 26.7459 22.074 26.1977 21.9732 26.108C21.8332 25.9478 22.0045 25.7432 22.1928 25.8611C23.1367 26.6996 23.9022 27.3647 24.9618 28.3049L24.7221 28.58L24.7362 28.6001L24.572 28.7402C23.4458 29.8517 22.1717 31.7443 21.0365 33.7507C20.0272 35.5334 19.1559 37.308 18.5707 38.7944C20.2538 38.1091 23.4771 37.6718 25.8472 37.4027L25.8462 36.4353C25.8462 36.3416 25.8513 36.2247 25.8482 36.1098C25.8462 35.9889 25.9711 35.8276 26.1031 35.8447L26.2844 35.8185V32.5948C26.2703 32.0809 26.5614 31.8541 26.9482 31.7715C26.9482 31.4631 26.9482 31.1547 26.9482 30.8464C26.8676 30.8454 26.8081 30.7809 26.8212 30.7325C26.8263 30.665 26.8676 30.6418 26.9804 30.6368C26.9925 30.2347 26.9351 29.9072 27.1889 29.9011H27.204H27.2101L27.4085 24.4563C27.3521 24.4332 27.3128 24.3787 27.3128 24.3142C27.3128 24.2457 27.3571 24.1883 27.4186 24.1681L27.4669 22.854L27.5142 24.1681C27.5757 24.1883 27.62 24.2457 27.62 24.3142C27.62 24.3787 27.5807 24.4332 27.5243 24.4563L27.7217 29.9011H27.7298C27.9846 29.9072 27.9262 30.2347 27.9393 30.6368C28.0511 30.6418 28.0924 30.665 28.0974 30.7325C28.1105 30.7809 28.0511 30.8454 27.9715 30.8464C27.9715 31.1547 27.9715 31.4631 27.9715 31.7715C28.3583 31.8541 28.6202 32.0809 28.6071 32.5948V35.8135C28.8025 35.8135 28.994 35.7742 29.0735 35.9919V36.4353C29.0735 36.9371 29.0735 36.8263 29.0705 37.3352L30.804 37.3432V35.7571C30.5653 35.7067 30.6046 35.4275 30.8645 35.4406C30.8554 34.9993 30.8504 34.2959 31.487 34.2304C31.487 33.922 31.487 33.6388 31.487 33.3294C31.488 33.2297 31.5464 33.0775 31.636 32.9858L31.6723 32.6492C31.6511 32.6331 31.6381 32.6079 31.6381 32.5797C31.6381 32.5454 31.6582 32.5162 31.6864 32.5011L31.7267 32.1202L31.764 32.5011C31.7932 32.5162 31.8123 32.5464 31.8123 32.5797C31.8123 32.6099 31.7992 32.6341 31.778 32.6492L31.8103 32.9868C31.9 33.0775 31.9584 33.2307 31.9594 33.3294C31.9594 33.6388 31.9594 33.922 31.9594 34.2304C32.596 34.2959 32.5909 34.9993 32.5818 35.4406C32.8427 35.4275 32.881 35.7067 32.6423 35.7571C32.6423 36.0201 32.6423 36.2821 32.6423 36.5451C32.8387 36.3668 32.9495 36.2902 33.2104 36.2922V35.7641C33.0644 35.7339 33.0875 35.5636 33.2467 35.5717C33.2416 35.3026 33.2376 34.963 33.6264 34.9237V34.6556C33.566 34.6103 33.5297 34.5387 33.5267 34.4581C33.5207 34.2979 33.7201 34.2576 33.706 34.0459C33.6919 34.0308 33.6828 34.0187 33.6828 33.9875C33.6828 33.9573 33.708 33.9159 33.7442 33.9049L33.7745 33.3909L33.8037 33.9069C33.8359 33.922 33.8571 33.9593 33.8571 33.9875C33.8571 34.0187 33.848 34.0308 33.8349 34.0459C33.8339 34.2717 34.0082 34.2838 34.0142 34.4581C34.0162 34.5387 33.9739 34.6103 33.9135 34.6556V34.9237C34.3023 34.963 34.2993 35.3026 34.2932 35.5717C34.4524 35.5636 34.4756 35.7339 34.3305 35.7641V36.2992C35.3327 36.3647 35.8827 37.4279 35.8494 38.3328C37.1166 38.5082 37.9325 38.611 39.3759 38.8377C38.2196 35.092 36.7883 30.2417 35.09 26.9868L35.0849 26.9777L34.9228 26.6995L34.8936 26.6592C35.9119 25.9176 36.6079 25.4187 37.5991 24.7022C37.7975 24.6025 37.9466 24.8232 37.7915 24.9683C37.578 25.1245 38.0514 24.7808 37.5316 25.1567L36.0801 26.2078L36.34 26.6995C36.9554 26.7167 37.5709 26.7338 38.1854 26.752C39.3518 25.8994 39.797 25.587 40.7448 24.8997C40.9432 24.801 41.0923 25.0217 40.9372 25.1668C40.1626 25.7281 39.807 25.9851 38.9529 26.6038C42.4662 30.8121 44.9361 35.1051 47.1027 38.87L47.8723 40.2173L51.5227 41.2694C51.5166 40.6073 51.5086 39.531 51.5005 38.8911C51.4602 35.5868 51.3837 30.5602 51.3998 27.2548C44.4556 23.2138 37.1569 19.9014 28.9909 19.595C20.8249 19.9014 13.5272 23.2138 6.58306 27.2548Z" fill="white"/>
<path fill-rule="evenodd" clip-rule="evenodd" d="M8.05469 58.7141C8.33572 59.8085 8.66107 60.8717 9.06801 61.9248C21.8765 56.5918 33.7765 56.1555 46.1207 61.4814C32.7803 58.3574 23.5839 57.0604 9.72073 63.5442C10.0894 64.3635 10.4993 65.1566 10.9526 65.9204L11.3838 66.5875C15.569 64.6779 20.4321 63.2147 25.6236 62.7672C32.0128 62.217 37.7855 63.4051 42.7624 65.4982C31.8425 62.7057 22.2472 62.8267 12.3236 67.9611C12.8574 68.6645 13.4396 69.3387 14.0722 69.9806L14.8125 70.6739C22.5937 67.0773 31.4547 66.5684 39.4021 69.899C30.5854 67.7726 23.5658 68.0568 16.122 71.8056C17.0437 72.5241 18.0207 73.1681 19.04 73.7415L20.0131 74.1627C22.4557 73.027 25.5904 72.385 28.9879 72.3498C32.4308 72.386 35.6037 73.0441 38.0595 74.207C38.4684 74.0025 38.8482 73.7999 39.1886 73.6024C42.3978 71.7461 45.1476 69.1905 47.1652 65.6675C48.3981 63.514 49.2875 61.1166 49.9282 58.5881C43.9006 55.9408 36.7741 54.4081 29.136 54.4081C21.3759 54.4081 14.1437 55.9882 8.05469 58.7141Z" fill="#F36418"/>
<path fill-rule="evenodd" clip-rule="evenodd" d="M49.8503 55.7192C49.561 55.6375 49.3252 55.3664 49.3363 55.1095C49.3434 54.8525 49.5772 54.7084 49.8694 54.788C50.1566 54.8676 50.3945 55.1407 50.3874 55.3997C50.3763 55.6587 50.1405 55.8008 49.8503 55.7192Z" fill="white"/>
<path fill-rule="evenodd" clip-rule="evenodd" d="M4.39844 41.8026C20.1835 35.5395 36.6202 35.9013 53.6039 41.8026V50.0781H4.39844C4.39844 47.3189 4.39844 44.5608 4.39844 41.8026Z" fill="#231F20"/>
<path fill-rule="evenodd" clip-rule="evenodd" d="M5.57638 49.3659C5.49278 49.3931 5.40817 49.4203 5.32456 49.4485C5.32456 49.9201 5.32456 50.3918 5.32456 50.8634C5.32456 51.3551 5.32456 51.8459 5.32456 52.3377V52.3972L5.26815 52.4163C4.6789 52.6209 4.09069 52.8274 3.50144 53.032L3.39062 53.0703V52.9524C3.39062 51.852 3.39062 50.7515 3.39062 49.6511C3.39062 48.5496 3.39062 47.4482 3.39062 46.3467C3.39062 45.7461 3.39062 45.1445 3.39062 44.5439V44.4804L3.45004 44.4632C4.03929 44.2939 4.62853 44.1247 5.21779 43.9574L5.32456 43.9271V44.038C5.32456 44.6336 5.32456 45.2281 5.32456 45.8237C5.32456 46.381 5.32456 46.9383 5.32456 47.4955C5.41119 47.4683 5.49785 47.4411 5.58347 47.4139C5.90479 46.7337 6.22609 46.0524 6.54943 45.3722C6.87377 44.691 7.20113 44.0098 7.52951 43.3306L7.54662 43.2953L7.5839 43.2862C8.20438 43.1209 8.82688 42.9567 9.44736 42.7914L9.62767 42.743L9.54406 42.9103C9.12906 43.7286 8.71507 44.5479 8.30813 45.3702C7.90421 46.1855 7.50029 46.9997 7.10141 47.817C7.51742 48.3209 7.93344 48.8257 8.35347 49.3276C8.78056 49.8385 9.21466 50.3444 9.6498 50.8493L9.73243 50.946L9.61154 50.9843C8.96285 51.1879 8.31416 51.3934 7.66648 51.598L7.61513 51.6151L7.57889 51.5748C7.23843 51.201 6.89594 50.8291 6.55749 50.4542C6.22912 50.0915 5.90173 49.7307 5.57638 49.3659ZM12.1922 48.4428C12.1922 49.0162 12.1922 49.5896 12.1922 50.164V50.2275L12.1317 50.2446C11.5415 50.4109 10.9492 50.5742 10.3609 50.7465L10.2532 50.7777V50.6659C10.2532 49.3286 10.2532 47.9923 10.2532 46.6551C10.2532 45.3178 10.2532 43.9785 10.2532 42.6413V42.5747L10.3166 42.5596C12.162 42.1021 14.0103 41.6607 15.8708 41.2687L15.9715 41.2476V41.3514C15.9715 42.3651 15.9715 43.3799 15.9715 44.3937C15.9715 45.4075 15.9715 46.4223 15.9715 47.4361V47.5026L15.907 47.5177C14.663 47.8039 13.4241 48.1112 12.1922 48.4428ZM18.668 44.7656C19.0024 44.0904 19.3378 43.4152 19.6732 42.741C20.058 41.9671 20.4468 41.1962 20.8437 40.4283L20.8638 40.389L20.9071 40.3839C21.4974 40.3094 22.0887 40.2368 22.6789 40.1622L22.7736 40.1512V40.2459C22.7736 41.5358 22.7736 42.8257 22.7736 44.1146C22.7736 45.4035 22.7736 46.6924 22.7736 47.9802V48.0528L22.7011 48.0639C22.1108 48.1465 21.5196 48.2281 20.9293 48.3088L20.8336 48.3229V48.2261C20.8336 47.5419 20.8336 46.8566 20.8336 46.1714C20.8336 45.598 20.8336 45.0246 20.8336 44.4512C20.4921 45.0941 20.1557 45.7401 19.8223 46.389C19.4335 47.1469 19.0467 47.9067 18.6589 48.6665L18.6397 48.7028L18.5995 48.7098C18.0092 48.8237 17.4179 48.9366 16.8287 49.0565L16.729 49.0767V48.9739C16.729 47.952 16.729 46.9282 16.729 45.9063C16.729 44.8825 16.729 43.8586 16.729 42.8358C16.729 42.2765 16.729 41.7182 16.729 41.1599V41.0924L16.7955 41.0783C17.3837 40.9563 17.977 40.8566 18.5702 40.7558L18.668 40.7387V40.8384C18.668 41.5519 18.668 42.2664 18.668 42.9809C18.668 43.5754 18.668 44.17 18.668 44.7656ZM27.253 45.9013C27.253 45.7955 27.253 45.6887 27.253 45.5828V45.5012L27.3346 45.4992C27.9248 45.4831 28.5161 45.466 29.1074 45.4559L29.192 45.4539V45.5395C29.192 45.8821 29.192 46.2238 29.192 46.5664C29.192 46.908 29.192 47.2486 29.192 47.5902V47.6719L29.1104 47.6739C27.26 47.7233 25.4097 47.812 23.5643 47.9681L23.4737 47.9762V47.8855C23.4737 46.5966 23.4737 45.3067 23.4737 44.0178C23.4737 42.7279 23.4737 41.438 23.4737 40.1471V40.0705L23.5512 40.0645C25.4006 39.9214 27.253 39.8327 29.1064 39.7914L29.192 39.7894V39.876C29.192 40.2177 29.192 40.5613 29.192 40.9029C29.192 41.2456 29.192 41.5872 29.192 41.9288V42.0114L29.1094 42.0124C28.5191 42.0225 27.9289 42.0376 27.3386 42.0538L27.253 42.0558V41.9701C27.253 41.8653 27.253 41.7615 27.253 41.6567C26.6395 41.6728 26.0261 41.698 25.4137 41.7434C25.4137 42.4538 25.4137 43.1643 25.4137 43.8747C25.4137 44.5801 25.4137 45.2856 25.4137 45.99C26.0251 45.9426 26.6395 45.9184 27.253 45.9013ZM33.6602 41.829C33.6602 42.8106 33.6602 43.7921 33.6602 44.7746C33.6602 45.7864 33.6602 46.7982 33.6602 47.8099V47.9016L33.5696 47.8936C32.9793 47.8442 32.3891 47.7938 31.7978 47.7495L31.7212 47.7444V47.6668C31.7212 46.6561 31.7212 45.6453 31.7212 44.6346C31.7212 43.65 31.7212 42.6665 31.7212 41.6829C31.1179 41.6668 30.5156 41.6507 29.9132 41.6345L29.8316 41.6325V41.5509C29.8316 40.9997 29.8316 40.4484 29.8316 39.8962V39.8105L29.9172 39.8126C31.7737 39.8599 33.627 40.001 35.4744 40.1814L35.5499 40.1894V40.265C35.5499 40.8183 35.5499 41.3715 35.5499 41.9238V42.0195L35.4562 42.0074C34.8589 41.9318 34.2596 41.8754 33.6602 41.829ZM39.5609 46.903C38.9615 46.7911 38.3622 46.6813 37.7619 46.5775C37.7035 47.1499 37.6461 47.7213 37.5917 48.2926L37.5836 48.3803L37.497 48.3682C36.9067 48.2846 36.3154 48.2019 35.7252 48.1193L35.6456 48.1082L35.6536 48.0276C35.7866 46.7568 35.9186 45.4851 36.0515 44.2133C36.1845 42.9396 36.3225 41.6648 36.4605 40.391L36.4696 40.3053L36.5552 40.3174C37.9734 40.5109 39.3856 40.7487 40.7958 40.9926L40.8593 41.0037L40.8653 41.0672C40.9983 42.3964 41.1312 43.7266 41.2632 45.0568C41.3961 46.39 41.5291 47.7233 41.6671 49.0565L41.6792 49.1734L41.5644 49.1462C40.9791 49.0081 40.3868 48.8953 39.7956 48.7834L39.7341 48.7713L39.7281 48.7098C39.6687 48.1072 39.6153 47.5056 39.5609 46.903ZM46.2291 44.0783C45.8544 43.9846 45.4796 43.8929 45.1059 43.7991C44.9729 44.7706 44.844 45.7421 44.7151 46.7145C44.5831 47.7122 44.4502 48.7098 44.3172 49.7075L44.3041 49.8002L44.2145 49.778C43.6152 49.6339 43.0168 49.4919 42.4165 49.3488L42.341 49.3306L42.354 49.254C42.5575 47.9923 42.7368 46.7276 42.905 45.4609C43.0743 44.1821 43.2374 42.9043 43.4056 41.6255L43.4177 41.5338L43.5074 41.5549C45.0435 41.9127 46.5765 42.2805 48.1046 42.6705L48.1681 42.6866V42.7521C48.1681 44.0934 48.1681 45.4347 48.1681 46.775C48.1681 48.1163 48.1681 49.4566 48.1681 50.7969V50.9107L48.0582 50.8765C47.474 50.691 46.8818 50.5238 46.2905 50.3605L46.2291 50.3434V50.2799C46.2291 49.2359 46.2291 48.1919 46.2291 47.1468C46.2291 46.124 46.2291 45.1011 46.2291 44.0783ZM52.6827 45.8791C52.3009 45.7642 51.9171 45.6504 51.5354 45.5355C51.4165 46.4314 51.2936 47.3262 51.1798 48.2221C51.063 49.1492 50.94 50.0743 50.8222 51.0024C50.792 51.208 50.7658 51.4136 50.7407 51.6192L50.7285 51.7189L50.6328 51.6887C50.4626 51.6353 50.2924 51.5819 50.1222 51.5275C49.7132 51.3995 49.3053 51.2695 48.8963 51.1405L48.8298 51.1193L48.8389 51.0498C49.0081 49.7518 49.1713 48.4529 49.3335 47.1539C49.4977 45.8459 49.6659 44.5378 49.8341 43.2308L49.8462 43.1351L49.9398 43.1602C51.483 43.5835 53.0231 44.0239 54.5622 44.4632L54.6227 44.4804V44.5439C54.6227 45.9456 54.6227 47.3474 54.6227 48.7491C54.6227 50.1509 54.6227 51.5517 54.6227 52.9524V53.0703L54.5109 53.031C53.9206 52.8254 53.3303 52.6199 52.7391 52.4153L52.6827 52.3961V52.3367C52.6827 51.2503 52.6827 50.164 52.6827 49.0777C52.6827 48.0115 52.6827 46.9453 52.6827 45.8791ZM12.1922 43.9735C12.1922 44.4129 12.1922 44.8522 12.1922 45.2906C12.1922 45.7149 12.1922 46.1401 12.1922 46.5644C12.8056 46.4031 13.418 46.2429 14.0325 46.0887C14.0325 45.6544 14.0325 45.219 14.0325 44.7827C14.0325 44.3625 14.0325 43.9412 14.0325 43.52C13.4191 43.6702 12.8056 43.8213 12.1922 43.9735ZM39.1449 42.8287C39.0663 42.8146 38.9877 42.8015 38.9082 42.7874C38.7097 42.7521 38.5103 42.7179 38.3119 42.6836C38.2645 42.6755 38.2192 42.6675 38.1729 42.6594C38.1688 42.6906 38.1668 42.7229 38.1638 42.7551C38.1225 43.1038 38.0772 43.4525 38.0409 43.8022C38.0077 44.1247 37.9664 44.4471 37.9321 44.7706C38.4176 44.8573 38.9031 44.9439 39.3886 45.0326C39.3514 44.7222 39.3111 44.4119 39.2789 44.1005C39.2426 43.7528 39.2023 43.4061 39.167 43.0595C39.159 42.9819 39.1509 42.9063 39.1449 42.8287Z" fill="white"/>
<path fill-rule="evenodd" clip-rule="evenodd" d="M29.0026 -0.000200272L30.9194 4.69283L35.974 5.06669L32.104 8.34082L33.3107 13.2656L29.0026 10.5951L24.6934 13.2656L25.9002 8.34082L22.0312 5.06669L27.0847 4.69283L29.0026 -0.000200272Z" fill="#F7A627"/>
<path d="M12.0231 52.6963C11.5568 52.8434 11.0914 52.9875 10.625 53.1316C10.625 53.4964 10.625 53.8602 10.625 54.225C10.625 54.5888 10.625 54.9536 10.625 55.3164C11.0914 55.1733 11.5568 55.0292 12.0231 54.8851C12.0231 54.6584 12.0231 54.4306 12.0231 54.2039C11.872 54.2502 11.7239 54.2966 11.5759 54.3429C11.5759 54.4135 11.5759 54.484 11.5759 54.5546C11.4056 54.608 11.2354 54.6594 11.0692 54.7108C11.0692 54.5032 11.0692 54.2946 11.0692 54.087C11.0692 53.8784 11.0692 53.6708 11.0692 53.4622C11.2354 53.4108 11.4056 53.3574 11.5759 53.305C11.5759 53.3765 11.5759 53.4471 11.5759 53.5176C11.7239 53.4712 11.872 53.4259 12.0231 53.3785C12.0231 53.1508 12.0231 52.9251 12.0231 52.6963ZM14.6108 54.1908C14.5746 53.834 14.5413 53.4763 14.507 53.1185C14.4748 52.7618 14.4406 52.4041 14.4074 52.0473C14.0447 52.1481 13.6821 52.2489 13.3235 52.3496C13.2852 52.7245 13.253 53.1004 13.2187 53.4743C13.1865 53.8492 13.1523 54.224 13.12 54.5989C13.2671 54.5576 13.4192 54.5163 13.5713 54.4749C13.5854 54.2986 13.6005 54.1222 13.6156 53.9459C13.7818 53.9005 13.949 53.8552 14.1153 53.8088C14.1304 53.9781 14.1445 54.1464 14.1596 54.3147C14.3076 54.2734 14.4597 54.2321 14.6108 54.1908ZM13.6559 53.4652C13.6781 53.2133 13.7002 52.9613 13.7224 52.7094C13.815 52.6822 13.9117 52.656 14.0074 52.6288C14.0306 52.8696 14.0518 53.1085 14.0749 53.3493C13.9339 53.3876 13.7929 53.4259 13.6559 53.4652ZM15.751 51.741C15.751 52.1098 15.751 52.4786 15.751 52.8464C15.751 53.2143 15.751 53.5831 15.751 53.9509C15.9031 53.9207 16.0542 53.8895 16.2104 53.8592C16.2104 53.565 16.2104 53.2727 16.2104 52.9795C16.3846 52.9442 16.5579 52.9079 16.7322 52.8716C16.7322 53.1649 16.7322 53.4591 16.7322 53.7534C16.8842 53.7222 17.0353 53.6899 17.1904 53.6597C17.1904 53.2888 17.1904 52.918 17.1904 52.5482C17.1904 52.1773 17.1904 51.8065 17.1904 51.4356C17.0353 51.4689 16.8842 51.5011 16.7322 51.5334C16.7322 51.8216 16.7322 52.1088 16.7322 52.396C16.5579 52.4323 16.3846 52.4686 16.2104 52.5038C16.2104 52.2176 16.2104 51.9304 16.2104 51.6432C16.0542 51.6765 15.9031 51.7087 15.751 51.741ZM18.4606 51.1625C18.4606 51.5364 18.4606 51.9082 18.4606 52.2821C18.4606 52.655 18.4606 53.0268 18.4606 53.3997C18.6127 53.3735 18.7678 53.3473 18.924 53.3211C18.924 53.0238 18.924 52.7275 18.924 52.4303C18.9935 52.4182 19.064 52.4061 19.1345 52.393C19.2715 52.6671 19.4085 52.9392 19.5485 53.2143C19.7157 53.184 19.8859 53.1558 20.0562 53.1266C19.8708 52.7699 19.6855 52.4141 19.5052 52.0594C19.6784 51.6664 19.8527 51.2724 20.0269 50.8783C19.8638 50.9076 19.7006 50.9388 19.5414 50.967C19.4044 51.2835 19.2674 51.5989 19.1345 51.9123C19.064 51.9254 18.9935 51.9385 18.924 51.9506C18.924 51.6604 18.924 51.3701 18.924 51.0799C18.7678 51.1071 18.6127 51.1353 18.4606 51.1625ZM22.4514 50.5387C21.9629 50.6093 21.4774 50.6808 20.9929 50.7534C20.9929 50.9146 20.9929 51.0769 20.9929 51.2381C21.1551 51.2139 21.3223 51.1907 21.4885 51.1666C21.4885 51.4638 21.4885 51.7611 21.4885 52.0574C21.4885 52.3547 21.4885 52.652 21.4885 52.9482C21.6436 52.9271 21.7997 52.9069 21.9548 52.8847C21.9548 52.5875 21.9548 52.2902 21.9548 51.9919C21.9548 51.6946 21.9548 51.3963 21.9548 51.099C22.118 51.0749 22.2842 51.0507 22.4514 51.0265C22.4514 50.8642 22.4514 50.701 22.4514 50.5387ZM23.4396 51.751C23.4396 51.8438 23.4396 51.9365 23.4396 52.0292C23.6833 52.004 23.9322 51.9788 24.1799 51.9526C24.1799 51.8599 24.1799 51.7672 24.1799 51.6735C23.9322 51.6997 23.6833 51.7258 23.4396 51.751ZM26.8119 52.4877C26.8119 52.1027 26.8119 51.7178 26.8119 51.3328C26.8119 50.9469 26.8119 50.5619 26.8119 50.177C26.3234 50.2102 25.8349 50.2425 25.3453 50.2757C25.3453 50.6597 25.3453 51.0426 25.3453 51.4266C25.3453 51.8095 25.3453 52.1944 25.3453 52.5774C25.5015 52.5683 25.6566 52.5582 25.8117 52.5482C25.8117 52.2468 25.8117 51.9445 25.8117 51.6432C25.8117 51.3419 25.8117 51.0396 25.8117 50.7373C25.986 50.7262 26.1643 50.7141 26.3416 50.702C26.3416 51.0043 26.3416 51.3076 26.3416 51.61C26.3416 51.9113 26.3416 52.2136 26.3416 52.5159C26.4967 52.5058 26.6528 52.4968 26.8119 52.4877ZM29.5215 50.0974C29.04 50.1044 28.5626 50.1145 28.0852 50.1246C28.0852 50.5105 28.0852 50.8965 28.0852 51.2825C28.0852 51.6674 28.0852 52.0534 28.0852 52.4393C28.5626 52.4303 29.04 52.4212 29.5215 52.4131C29.5215 52.2479 29.5215 52.0826 29.5215 51.9173C29.1992 51.9224 28.8768 51.9274 28.5545 51.9334C28.5545 51.7964 28.5545 51.6583 28.5545 51.5203C28.7187 51.5162 28.8809 51.5132 29.0471 51.5102C29.0471 51.3449 29.0471 51.1797 29.0471 51.0144C28.8809 51.0174 28.7187 51.0204 28.5545 51.0235C28.5545 50.8864 28.5545 50.7483 28.5545 50.6113C28.8768 50.6042 29.1992 50.5992 29.5215 50.5942C29.5215 50.4289 29.5215 50.2626 29.5215 50.0974ZM31.9792 50.2314C31.4907 50.1981 31.0022 50.1669 30.5137 50.1356C30.5137 50.3019 30.5137 50.4672 30.5137 50.6314C30.6799 50.6435 30.8461 50.6526 31.0133 50.6637C31.0133 50.966 31.0133 51.2694 31.0133 51.5717C31.0133 51.873 31.0133 52.1763 31.0133 52.4786C31.1684 52.4877 31.3245 52.4968 31.4796 52.5058C31.4796 52.2045 31.4796 51.9022 31.4796 51.5999C31.4796 51.2976 31.4796 50.9952 31.4796 50.6919C31.6458 50.704 31.812 50.7141 31.9792 50.7262C31.9792 50.5609 31.9792 50.3956 31.9792 50.2314ZM34.5297 50.437C34.0523 50.3856 33.5748 50.3332 33.0964 50.2818C33.0964 50.6647 33.0964 51.0487 33.0964 51.4306C33.0964 51.8145 33.0964 52.1975 33.0964 52.5804C33.5748 52.6288 34.0523 52.6761 34.5297 52.7245C34.5297 52.5613 34.5297 52.398 34.5297 52.2337C34.2074 52.2015 33.886 52.1682 33.5637 52.135C33.5637 51.9989 33.5637 51.8619 33.5637 51.7258C33.7259 51.742 33.8891 51.7591 34.0553 51.7772C34.0553 51.613 34.0553 51.4487 34.0553 51.2855C33.8891 51.2683 33.7259 51.2512 33.5637 51.2341C33.5637 51.097 33.5637 50.96 33.5637 50.8239C33.886 50.8582 34.2074 50.8935 34.5297 50.9267C34.5297 50.7635 34.5297 50.6002 34.5297 50.437ZM37.1395 50.7473C36.651 50.6758 36.1655 50.6042 35.681 50.5327C35.681 50.9126 35.681 51.2915 35.681 51.6714C35.681 52.0503 35.681 52.4303 35.681 52.8102C35.8361 52.8313 35.9913 52.8525 36.1474 52.8737C36.1474 52.6469 36.1474 52.4192 36.1474 52.1924C36.4768 52.2388 36.8061 52.2851 37.1395 52.3305C37.1395 52.0675 37.1395 51.8034 37.1395 51.5394C37.1395 51.2754 37.1395 51.0114 37.1395 50.7473ZM36.1474 51.088C36.3217 51.1142 36.4949 51.1393 36.6732 51.1645C36.6732 51.3701 36.6732 51.5757 36.6732 51.7803C36.4949 51.7551 36.3217 51.7299 36.1474 51.7047C36.1474 51.5001 36.1474 51.2945 36.1474 51.088ZM39.838 51.2139C39.3525 51.1273 38.8721 51.0396 38.3906 50.9519C38.3906 51.3268 38.3906 51.7017 38.3906 52.0765C38.3906 52.4514 38.3906 52.8263 38.3906 53.2012C38.8721 53.2848 39.3525 53.3664 39.838 53.4491C39.838 53.2183 39.838 52.9885 39.838 52.7578C39.838 52.528 39.838 52.2972 39.838 52.0665C39.5086 52.009 39.1793 51.9506 38.8529 51.8921C38.8529 51.7672 38.8529 51.6422 38.8529 51.5162C39.1793 51.5757 39.5086 51.6352 39.838 51.6936C39.838 51.5334 39.838 51.3742 39.838 51.2139ZM38.8529 52.8001C38.8529 52.658 38.8529 52.5159 38.8529 52.3728C39.0272 52.4041 39.2015 52.4343 39.3747 52.4645C39.3747 52.6066 39.3747 52.7487 39.3747 52.8908C39.2015 52.8606 39.0272 52.8303 38.8529 52.8001ZM41.0961 53.6869C41.5665 53.7998 42.0359 53.9136 42.5103 54.0255C42.5103 53.6577 42.5103 53.2888 42.5103 52.921C42.5103 52.5532 42.5103 52.1844 42.5103 51.8165C42.3582 51.7793 42.2072 51.741 42.0551 51.7037C42.0551 52.006 42.0551 52.3083 42.0551 52.6116C41.8848 52.5703 41.7176 52.53 41.5514 52.4887C41.5514 52.1854 41.5514 51.882 41.5514 51.5787C41.3993 51.5414 41.2482 51.5031 41.0961 51.4648C41.0961 51.6966 41.0961 51.9274 41.0961 52.1592C41.0961 52.3899 41.0961 52.6207 41.0961 52.8525C41.4144 52.9301 41.7327 53.0077 42.0551 53.0853C42.0551 53.2052 42.0551 53.3241 42.0551 53.443C41.7327 53.3664 41.4144 53.2888 41.0961 53.2112C41.0961 53.3695 41.0961 53.5277 41.0961 53.6869ZM45.1716 52.4706C44.6981 52.3406 44.2277 52.2086 43.7573 52.0765C43.7573 52.4434 43.7573 52.8102 43.7573 53.176C43.7573 53.5438 43.7573 53.9096 43.7573 54.2764C43.9054 54.3177 44.0575 54.3591 44.2096 54.4004C44.2096 54.1817 44.2096 53.961 44.2096 53.7413C44.5279 53.83 44.8492 53.9177 45.1716 54.0053C45.1716 53.7494 45.1716 53.4934 45.1716 53.2385C45.1716 52.9825 45.1716 52.7265 45.1716 52.4706ZM44.2096 52.6741C44.3799 52.7215 44.5501 52.7689 44.7203 52.8152C44.7203 53.0147 44.7203 53.2133 44.7203 53.4108C44.5501 53.3644 44.3799 53.3171 44.2096 53.2707C44.2096 53.0722 44.2096 52.8727 44.2096 52.6741ZM47.6404 53.2052C47.2264 53.0772 46.8114 52.9502 46.4005 52.8213C46.4005 53.1861 46.4005 53.5509 46.4005 53.9157C46.4005 54.2805 46.4005 54.6443 46.4005 55.0091C46.5485 55.0554 46.6966 55.1018 46.8487 55.1481C46.8487 54.8619 46.8487 54.5747 46.8487 54.2895C46.8487 54.0033 46.8487 53.7151 46.8487 53.4289C47.1116 53.5105 47.3745 53.5932 47.6404 53.6738C47.6404 53.5176 47.6404 53.3614 47.6404 53.2052Z" fill="white"/>
<path fill-rule="evenodd" clip-rule="evenodd" d="M22.4625 75.9336C22.1894 75.9336 21.9688 75.7129 21.9688 75.4398C21.9688 75.1667 22.1894 74.946 22.4625 74.946C22.7346 74.946 22.9564 75.1667 22.9564 75.4398C22.9564 75.7129 22.7346 75.9336 22.4625 75.9336Z" fill="white"/>
<path fill-rule="evenodd" clip-rule="evenodd" d="M35.4167 75.9336C35.1436 75.9336 34.9219 75.7129 34.9219 75.4398C34.9219 75.1667 35.1436 74.946 35.4167 74.946C35.6888 74.946 35.9105 75.1667 35.9105 75.4398C35.9105 75.7129 35.6888 75.9336 35.4167 75.9336Z" fill="white"/>
<path fill-rule="evenodd" clip-rule="evenodd" d="M7.81853 55.7192C8.10876 55.6375 8.34357 55.3664 8.33249 55.1095C8.32543 54.8525 8.09166 54.7084 7.80043 54.788C7.51221 54.8676 7.27435 55.1407 7.2814 55.3997C7.2935 55.6587 7.52831 55.8008 7.81853 55.7192Z" fill="white"/>
<path d="M24.7969 74.2096H26.4287V75.1377L25.4456 76.0961H26.4287V76.5898H24.7969V76.0799L25.8656 75.0188V74.7024H25.3599V74.9241H24.7969V74.2096ZM27.0703 74.2096H28.7011V76.5898H27.0703V74.2096ZM27.6334 74.7024V76.0961H28.138V74.7024H27.6334ZM29.3266 74.2096H30.9574V76.5898H29.3266V74.2096ZM29.8897 74.7024V76.0961H30.3943V74.7024H29.8897ZM33.2006 76.5898H31.5698V74.2096H33.2006V74.7024C32.845 74.7024 32.4884 74.7024 32.1329 74.7024V75.1619H33.2006V76.5898ZM32.1329 75.6375V76.0961H32.6375V75.6375H32.1329Z" fill="white"/>
<path fill-rule="evenodd" clip-rule="evenodd" d="M22.4625 75.9336C22.1894 75.9336 21.9688 75.7129 21.9688 75.4398C21.9688 75.1667 22.1894 74.946 22.4625 74.946C22.7346 74.946 22.9564 75.1667 22.9564 75.4398C22.9564 75.7129 22.7346 75.9336 22.4625 75.9336Z" fill="white"/>
<path fill-rule="evenodd" clip-rule="evenodd" d="M35.4167 75.9336C35.1436 75.9336 34.9219 75.7129 34.9219 75.4398C34.9219 75.1667 35.1436 74.946 35.4167 74.946C35.6888 74.946 35.9105 75.1667 35.9105 75.4398C35.9105 75.7129 35.6888 75.9336 35.4167 75.9336Z" fill="white"/>
<path fill-rule="evenodd" clip-rule="evenodd" d="M22.4625 75.9336C22.1894 75.9336 21.9688 75.7129 21.9688 75.4398C21.9688 75.1667 22.1894 74.946 22.4625 74.946C22.7346 74.946 22.9564 75.1667 22.9564 75.4398C22.9564 75.7129 22.7346 75.9336 22.4625 75.9336Z" fill="white"/>
<path fill-rule="evenodd" clip-rule="evenodd" d="M35.4167 75.9336C35.1436 75.9336 34.9219 75.7129 34.9219 75.4398C34.9219 75.1667 35.1436 74.946 35.4167 74.946C35.6888 74.946 35.9105 75.1667 35.9105 75.4398C35.9105 75.7129 35.6888 75.9336 35.4167 75.9336Z" fill="white"/>
<path d="M24.7969 74.2096H26.4287V75.1377L25.4456 76.0961H26.4287V76.5898H24.7969V76.0799L25.8656 75.0188V74.7024H25.3599V74.9241H24.7969V74.2096ZM27.0703 74.2096H28.7011V76.5898H27.0703V74.2096ZM27.6334 74.7024V76.0961H28.138V74.7024H27.6334ZM29.3266 74.2096H30.9574V76.5898H29.3266V74.2096ZM29.8897 74.7024V76.0961H30.3943V74.7024H29.8897ZM33.2006 76.5898H31.5698V74.2096H33.2006V74.7024C32.845 74.7024 32.4884 74.7024 32.1329 74.7024V75.1619H33.2006V76.5898ZM32.1329 75.6375V76.0961H32.6375V75.6375H32.1329Z" fill="white"/>
<path fill-rule="evenodd" clip-rule="evenodd" d="M22.4625 75.9336C22.1894 75.9336 21.9688 75.7129 21.9688 75.4398C21.9688 75.1667 22.1894 74.946 22.4625 74.946C22.7346 74.946 22.9564 75.1667 22.9564 75.4398C22.9564 75.7129 22.7346 75.9336 22.4625 75.9336Z" fill="white"/>
<path fill-rule="evenodd" clip-rule="evenodd" d="M35.4167 75.9336C35.1436 75.9336 34.9219 75.7129 34.9219 75.4398C34.9219 75.1667 35.1436 74.946 35.4167 74.946C35.6888 74.946 35.9105 75.1667 35.9105 75.4398C35.9105 75.7129 35.6888 75.9336 35.4167 75.9336Z" fill="white"/>
</svg>
