<svg width="32" height="43" viewBox="0 0 32 43" fill="none" xmlns="http://www.w3.org/2000/svg">
<path fill-rule="evenodd" clip-rule="evenodd" d="M23.0047 40.0518L28.6913 19.4401L29.4184 14.7004C26.884 13.7246 24.6546 12.2624 22.9084 10.1855L21.2135 11.6252C22.91 13.1131 24.759 14.4805 26.7572 15.7325L23.1138 32.9095L15.7885 38.5447L8.46153 32.9095L4.81812 15.7325C6.81477 14.4789 8.66537 13.1114 10.3619 11.6252L8.66697 10.1855C6.92231 12.2624 4.69292 13.7246 2.15698 14.7004L2.88406 19.4401L8.57067 40.0518H23.0015H23.0047Z" fill="#CD7C00"/>
<path fill-rule="evenodd" clip-rule="evenodd" d="M20.9727 11.5081L15.7885 11.5353L10.6043 11.5081C8.82751 13.0874 6.91271 14.503 4.90161 15.7678L8.52737 32.8677L15.7869 38.4516L23.0464 32.8677L26.6722 15.7678C24.6611 14.503 22.7463 13.0874 20.9695 11.5081H20.9727ZM15.7901 23.2857L25.4764 17.1465L22.5023 32.5644L15.7901 37.8032L9.07789 32.5644L6.10378 17.1465L15.7901 23.2857ZM21.2456 13.0954L25.1474 16.1787L15.7885 22.2906L6.4296 16.1787L10.3314 13.0954H21.2456Z" fill="#EBB811"/>
<path fill-rule="evenodd" clip-rule="evenodd" d="M25.5214 28.4667V28.4603C25.4588 27.8873 25.47 27.1666 25.9884 26.8055L26.0976 26.7285L26.0109 26.6257C25.7429 26.3063 25.3849 25.7959 25.4909 25.3514C25.5824 24.971 25.9884 24.7398 26.3207 24.6018L26.4041 24.5665L26.3961 24.4766C26.3608 24.1059 26.3977 23.703 26.6545 23.4125C26.9033 23.1493 27.2372 23.0642 27.5854 23.0273C28.412 23.1348 28.6448 23.7816 28.6576 24.5424V24.6323L28.7459 24.658C29.5965 24.91 29.5773 25.9597 29.4826 26.6803L29.4055 26.7461H29.4071C29.359 26.7493 29.3092 26.7509 29.2579 26.7558C28.9305 26.9002 28.7057 27.141 28.5597 27.4539C28.4329 27.4315 28.3141 27.4202 28.2034 27.4186C28.2676 27.3223 28.3478 27.2341 28.4329 27.149C28.3205 27.2373 28.2002 27.3288 28.0702 27.4218C27.9787 27.4283 27.892 27.4427 27.8101 27.4652H27.815C27.7652 27.2533 27.7829 27.0623 27.8471 26.8842C27.9642 26.4331 28.29 26.0977 28.595 25.7526C28.3639 25.9548 28.1472 26.1763 27.8551 26.3063C27.7748 25.613 27.5983 24.934 27.3704 24.2648C27.5052 24.9469 27.6127 25.6226 27.5999 26.2807C27.3784 25.9468 27.0397 25.7847 26.6465 25.7029C27.1071 25.9468 27.4586 26.2454 27.5999 26.6723C27.6448 27.0093 27.6288 27.3031 27.5598 27.5615H27.563C27.4185 27.6353 27.2917 27.7364 27.1826 27.8616C26.9065 27.7156 26.6593 27.4828 26.4057 27.2645C26.6706 27.5262 26.9113 27.7846 27.051 28.035C26.9852 28.1329 26.9258 28.2404 26.8728 28.3576C26.4732 28.1569 26.0366 28.1281 25.5214 28.4651V28.4667ZM28.6769 21.7721C28.6271 21.5137 28.6335 21.2457 28.656 20.9744C28.7972 20.716 28.969 20.4881 29.1487 20.2682C28.9818 20.4191 28.8213 20.5636 28.664 20.6679C28.5115 19.9793 28.473 19.2828 28.4682 18.583C28.3847 19.3084 28.3815 20.0467 28.4682 20.7947C28.1665 20.6326 27.9626 20.2779 27.754 19.9344C27.8984 20.4031 28.1023 20.8123 28.4522 21.074C28.5019 21.3243 28.5083 21.5699 28.4682 21.8107H28.4714C28.2563 21.8733 28.0734 21.9985 27.9225 22.1911L27.9257 22.1862C27.7315 22.053 27.5806 21.8396 27.4217 21.6389C27.579 21.8893 27.7636 22.1541 27.8182 22.3419C27.7267 22.496 27.6496 22.6822 27.5903 22.9021C27.2837 22.9342 26.9916 23.0016 26.7476 23.1717L26.7268 23.1589C26.1778 22.3805 26.2886 21.6646 26.9306 20.9744L27.0076 20.891L26.9306 20.8075C26.2212 20.05 26.3576 19.5203 27.2981 19.111L27.3784 19.0757L27.3704 18.989C27.3014 18.156 27.6191 17.6906 28.4746 17.6569C29.375 17.7066 29.6286 18.1929 29.4473 19.042L29.428 19.1319L29.5099 19.1752C30.0829 19.4834 30.367 19.8895 30.0957 20.525L30.0347 20.6037L30.0572 20.6005C29.3783 20.6791 28.9497 21.0435 28.8358 21.7593C28.7716 21.7593 28.709 21.7625 28.648 21.7705C28.6576 21.7705 28.6672 21.7673 28.6785 21.7673L28.6769 21.7721ZM28.5404 27.5759C28.1825 27.5117 27.815 27.5294 27.5084 27.738L27.4827 27.7557C27.2644 27.913 27.1104 28.1457 26.9964 28.3881L26.9932 28.4507C27.0815 28.5229 27.1617 28.5967 27.2339 28.6706C27.6978 29.1521 27.8101 29.6769 27.5742 30.2499C27.7171 30.4746 27.8246 30.6945 27.8968 30.908L27.9931 30.8357C27.9626 30.6287 27.9129 30.4184 27.8567 30.2066C27.9498 30.4024 28.0252 30.6174 28.1809 30.7507C28.3189 30.664 28.4168 30.5436 28.4538 30.3767C28.5292 29.9594 28.5099 29.5228 28.4714 29.083C28.5051 29.3832 28.5276 29.6897 28.6335 29.9417C29.0155 29.2644 29.3767 28.6192 29.7217 28.0013C29.3446 28.7091 28.9802 29.4185 28.7523 30.1375C29.0653 30.1199 29.351 30.0332 29.6286 29.9257C29.2884 30.0782 28.9529 30.2403 28.6592 30.4618C28.2579 30.7651 28.0092 31.1086 28.0044 31.3863C28.0365 31.7233 27.9723 32.0459 27.8118 32.3509C28.2242 32.3766 28.534 32.5162 28.6496 32.8741L28.6608 32.8934L28.6785 32.8854L28.6945 32.8821C29.473 32.7265 29.6302 32.1904 29.5676 31.4697L29.5596 31.3734L29.6511 31.3429C30.8469 30.9497 30.9223 30.2226 30.4472 29.1745L30.4103 29.0927L30.4777 29.0333C31.2931 28.3142 31.2738 27.6658 30.4328 27.0029C30.0588 26.8842 29.6864 26.844 29.2948 26.8761C29.0075 27.0077 28.8085 27.2212 28.6753 27.5069L28.6351 27.592L28.542 27.5759H28.5404ZM15.7853 39.1096C15.1064 39.1353 14.4242 39.0759 13.7565 38.9507C13.8191 39.6698 13.8191 40.3921 13.7421 41.1095L13.7389 41.1448L13.718 41.1721C13.4548 41.5092 13.3777 41.9249 13.3794 42.3438L13.4516 42.989H18.1254L18.1976 42.3438C18.1992 41.9265 18.1222 41.5092 17.859 41.1721L17.8381 41.1448L17.8349 41.1095C17.7563 40.3921 17.7579 39.6682 17.8205 38.9507C17.1528 39.0759 16.4706 39.1337 15.7917 39.1096H15.7853ZM13.4387 39.535C12.8882 38.9186 11.5544 38.7517 10.7808 38.6875C10.0842 38.6281 9.37802 38.6169 8.67983 38.6217C7.95596 38.6265 7.23049 38.6506 6.50663 38.6811C7.46001 40.3889 9.00405 42.6134 11.0585 42.9152C11.8241 43.0275 12.564 42.8606 13.2558 42.53L13.275 42.5219L13.2558 42.3518C13.2542 42.0228 13.2991 41.7162 13.4163 41.4466C11.1419 41.3246 9.20788 40.4852 7.45199 39.2348C9.4358 40.1401 11.4325 40.9153 13.4853 41.1833L13.5639 41.1769C13.5816 41.1496 13.6008 41.124 13.6217 41.0983C13.6763 40.6039 13.6923 40.1032 13.6747 39.5976L13.4692 39.5687L13.4403 39.535H13.4387ZM18.2699 42.7659C19.2233 43.058 20.4944 43.2554 21.0562 42.2234L21.1059 42.1319L21.2039 42.1672C22.4815 42.6247 23.422 42.4577 23.666 40.9843L23.6788 40.9041L23.7575 40.8848C24.3529 40.7452 24.8344 40.4547 24.8055 39.7822V39.7677L24.8071 39.7533C24.9211 39.1706 24.706 38.6827 24.3 38.267C23.7896 37.8754 23.2968 37.9492 22.8041 38.3392L22.7318 38.397L22.6564 38.3424C21.8298 37.7422 21.1445 37.7855 20.5634 38.6683L20.5041 38.7597L20.4078 38.71C19.4319 38.2189 18.5716 38.7822 17.8991 39.4949C17.8766 40.0357 17.8911 40.5686 17.9489 41.0983C17.9842 41.1432 18.0163 41.1882 18.0452 41.2347C18.5475 41.2058 18.9552 41.1272 19.2682 41.0036C19.4528 40.6697 19.5475 40.2829 19.6165 39.8801C19.6277 40.2444 19.5972 40.6023 19.472 40.9442C20.0274 40.8993 20.5474 40.8013 21.0129 40.62C21.3274 40.3198 21.5184 39.925 21.6517 39.4884L21.4815 40.2974C22.1155 39.9908 22.7206 39.7067 23.3273 39.421C22.4927 39.8865 21.504 40.36 21.1236 40.7997C21.1653 40.8415 21.7175 40.9025 22.2889 40.9699C21.5136 40.933 20.7031 40.8591 20.0932 41.0132C19.578 41.1143 18.9071 41.2411 18.1238 41.3792C18.2618 41.6648 18.3164 41.9939 18.3148 42.3518L18.2683 42.7659H18.2699ZM29.5998 26.7445C29.8694 26.7493 30.115 26.7879 30.3461 26.8521L30.4135 26.7959L30.4199 26.7911C31.1326 26.3288 30.9769 25.7173 30.5403 25.1074L30.4633 24.9999L30.5756 24.9308C31.7601 24.2134 31.9286 23.4285 30.8806 22.4671L30.8115 22.4029L30.8549 22.3195C31.0106 22.0225 31.1534 21.6325 31.025 21.3003C30.9078 20.9937 30.5884 20.8156 30.2947 20.708C29.5628 20.7241 29.0733 21.021 28.9529 21.7802L28.9369 21.8845H28.8309C28.1873 21.8797 27.8776 22.3323 27.7154 22.9021L27.7219 22.9246C28.4393 23.069 28.7667 23.634 28.7812 24.5392C28.9321 24.5842 29.0621 24.6516 29.1728 24.7398C29.3221 24.6307 29.428 24.5119 29.497 24.3916C29.5259 24.2936 29.5243 24.2086 29.4794 24.1444C29.2771 23.7993 29.1231 23.4253 28.977 23.0465C29.16 23.3836 29.3349 23.756 29.5468 23.9486C29.8694 23.4301 29.8903 22.6052 29.9047 21.6758C30.0074 22.5586 29.9785 23.3916 29.7169 24.1604C29.9641 24.0449 30.2016 23.9149 30.4312 23.7768C30.0026 24.0577 29.5998 24.3883 29.2803 24.8394C29.6238 25.2117 29.7185 25.8569 29.5965 26.7381L29.5998 26.7445ZM24.9179 32.4087C25.027 32.6831 25.1474 32.9463 25.3256 33.1422C25.5053 32.9624 25.7124 32.8533 25.9563 32.8468C26.0221 32.4905 26.0671 32.1326 26.0526 31.765C25.9002 31.481 25.6867 31.1985 25.4652 30.9144C25.6755 31.123 25.8825 31.3477 26.104 31.4842C26.2051 30.8341 26.1955 30.1857 26.2228 29.5357C26.2372 30.1825 26.2324 30.8293 26.3078 31.4761C26.5582 31.375 26.7813 31.2386 26.9964 31.0925C26.7412 31.3301 26.4218 31.497 26.2308 31.8068C26.1602 32.1535 26.1345 32.505 26.1538 32.8629C26.3046 32.8902 26.4716 32.956 26.6513 33.0635C26.86 32.6157 27.1713 32.3782 27.5903 32.3509L27.7138 32.269C28.0493 31.5997 27.8551 30.9272 27.4683 30.3189L27.4346 30.2659L27.4586 30.2066C27.7636 29.4715 27.4025 28.9113 26.8086 28.4667C26.3271 28.2292 25.9066 28.3303 25.4796 28.6481L25.4732 28.6529C25.1827 28.8439 25.1827 29.1521 25.2533 29.4618L25.279 29.5742L25.1699 29.6063C24.9018 29.6849 24.6627 29.8214 24.5166 30.0669C24.2582 30.5019 24.3754 31.1616 24.4877 31.6254L24.5038 31.6928L24.454 31.741C24.0849 32.0957 23.9645 32.6494 23.9164 33.1438L23.9356 33.1646C24.5439 33.0796 24.9548 33.1325 25.1715 33.3235L25.1956 33.293C25.0623 33.0362 24.9741 32.7393 24.9195 32.4135L24.9179 32.4087ZM25.6546 36.5063C25.6835 37.2478 25.2277 37.7807 24.2855 38.1049C24.3192 38.1274 24.3529 38.1514 24.385 38.1771C24.8136 38.6169 25.0046 39.0936 24.9564 39.6056L24.9789 39.6377C25.8857 39.3504 26.3881 38.7052 26.5662 37.763L26.5823 37.678L26.6674 37.6651C27.128 37.5945 27.5838 37.426 27.884 37.0536C28.3061 36.5288 28.2884 35.7584 28.1841 35.1308L28.1729 35.0602L28.2291 35.0152C28.9609 34.4278 28.9866 33.736 28.5404 32.9383L28.534 32.9271L28.5308 32.9158C28.4056 32.5274 28.0011 32.4696 27.6432 32.4729C27.2099 32.4841 26.9402 32.7361 26.7637 33.1181L26.7075 33.2417L26.5903 33.1727C26.0591 32.8565 25.6498 32.9046 25.2742 33.3877L25.271 33.3941C26.043 33.9591 25.9804 34.6477 25.34 35.4197C25.4893 35.7262 25.5856 36.0103 25.6289 36.272C25.722 36.2286 25.7766 36.158 25.7958 36.0617C25.7846 35.5882 25.8231 35.1212 25.9018 34.6605C25.8793 35.1404 25.8793 35.593 25.9483 35.959C26.5245 35.3362 27.0734 34.6878 27.6031 34.0185C27.0895 34.7071 26.5823 35.3956 26.0896 36.0858C26.2982 36.1034 26.6497 36.0569 27.0237 36.0007C26.6802 36.0681 26.3367 36.1339 25.9997 36.2366C25.852 36.296 25.7445 36.3939 25.653 36.5095L25.6546 36.5063ZM22.3113 37.9861C22.4494 38.0535 22.589 38.1386 22.7318 38.2429C23.2214 37.8561 23.6933 37.7823 24.1491 38.0214L24.2438 37.9877C25.5583 37.5351 25.8263 36.6925 25.2277 35.4678L25.1923 35.3972L25.2421 35.3362C25.836 34.6204 25.9403 33.9752 25.0977 33.4198L25.0912 33.415L25.0848 33.4086C24.8071 33.1646 24.1475 33.2449 23.8136 33.2994C23.4653 33.4086 23.3321 33.6509 23.345 34.0105L23.3498 34.1292L23.231 34.1373C22.7174 34.1694 21.9566 34.2849 21.7014 34.8082C21.5521 35.1131 21.6019 35.4903 21.6886 35.8065L21.7207 35.9221L21.6051 35.9558C20.4736 36.2864 20.1606 37.3489 20.1108 38.4179L20.1253 38.466C20.2376 38.4981 20.35 38.5431 20.4623 38.5992C20.8524 38.007 21.2921 37.7711 21.7736 37.8224L21.8362 36.8241L21.8667 37.8353C21.9518 37.8513 22.0385 37.8754 22.1267 37.9075C22.5232 37.5159 22.8795 37.0937 23.1636 36.6122C23.1283 36.2639 23.0866 35.9028 23.0448 35.5401C23.1074 35.8691 23.1796 36.1917 23.2824 36.4935C23.6628 35.8418 24.0175 35.1773 24.3625 34.5112L23.5119 36.4678C23.6018 36.4935 23.857 36.4951 24.2261 36.4597C23.8939 36.5143 23.597 36.5849 23.3321 36.6716C22.971 37.113 22.6307 37.5512 22.3065 37.9845L22.3113 37.9861ZM7.53705 34.691C8.9575 36.1018 9.70705 37.3586 10.0393 38.519C10.6877 38.5463 11.2832 38.5992 11.7984 38.6939C11.8449 38.4339 11.8514 38.1707 11.8161 37.9075C11.6844 36.9429 11.0007 36.1371 10.2897 35.5208C9.81138 35.1051 9.28172 34.7392 8.74082 34.4069C8.16141 34.0506 7.55952 33.728 6.94961 33.4262L6.92875 34.3989L6.93677 34.5289C7.91744 35.5272 8.42142 36.8305 8.34278 38.5013C8.85799 38.4933 9.35555 38.4949 9.82582 38.5094C9.30258 37.2221 8.44871 35.9526 7.53705 34.6878V34.691ZM7.48248 35.4117C6.36378 33.6493 4.13761 32.8244 2.17626 32.3894C2.84556 34.9639 4.10872 37.2815 6.53391 38.5575C6.94159 38.5415 7.34445 38.5254 7.74089 38.5158C6.12623 37.0921 4.52602 35.3988 2.93384 33.5001C4.94333 35.0746 6.63984 36.7326 7.87732 38.5126C7.99288 38.5094 8.10684 38.5078 8.22079 38.5045V38.4965C8.27215 37.4035 8.07634 36.3442 7.48409 35.4101L7.48248 35.4117ZM5.16322 28.6208C5.04445 30.0685 4.71381 31.4858 4.43454 32.9094V32.9463C5.05889 33.1983 5.61744 33.4937 6.10376 33.8339C5.72016 32.8629 5.54842 31.5339 5.39274 30.1745C5.80202 31.4729 6.16957 32.7714 6.41995 34.0699C6.55478 34.1774 6.68478 34.2898 6.80677 34.4053L6.83245 33.2352C7.29309 33.46 7.73126 33.6863 8.14375 33.9174C8.15338 33.6798 8.14375 33.4423 8.11165 33.2064C7.8725 31.4151 6.46008 29.8262 5.16482 28.6224L5.16322 28.6208ZM1.27584 26.8087C2.25972 28.5405 3.17138 30.274 3.95142 32.0058C3.4635 31.5387 3.04779 30.9401 2.67382 30.2676C2.09922 29.1826 1.66747 28.0077 1.27584 26.8087ZM4.54528 28.6304C4.30774 28.2131 3.96908 27.8215 3.63844 27.4764C3.19546 27.0158 2.71074 26.5872 2.2196 26.1796C1.69797 25.7462 1.16028 25.3289 0.616178 24.9212C0.551977 26.1571 0.547161 27.4523 0.750999 28.6673C0.925947 29.7074 1.27424 30.7667 1.9949 31.5596C2.2838 31.8774 2.61925 32.1374 2.99804 32.3412L3.01409 32.3493L3.17619 32.513C3.57424 32.6269 3.95463 32.7537 4.31255 32.8934C4.47145 32.0861 4.6464 31.2819 4.78925 30.4714L4.91765 29.6914L4.80851 29.5967V29.5934V29.5806V29.5678C4.84221 29.2419 4.70258 28.9033 4.54528 28.6256V28.6304ZM6.45848 29.7716C6.92875 27.1923 6.23538 25.1395 4.4233 23.3258C4.28848 23.6597 4.14403 23.9903 3.99636 24.3193C3.85833 24.6243 3.71388 24.9276 3.57424 25.2326C3.36719 25.6836 3.15533 26.1587 3.06545 26.6498L3.07026 26.7558C3.74919 27.3753 4.28366 27.9563 4.60306 28.4844L4.41528 25.186L4.86468 29.0413C4.92567 29.2323 4.94975 29.4121 4.9337 29.5838C4.98988 29.1777 5.03482 28.7701 5.0621 28.3592C5.5725 28.8246 6.04438 29.2933 6.46008 29.7716H6.45848ZM3.43621 18.9746C3.71548 20.4833 3.82784 21.9166 3.60634 23.199C3.81339 23.9036 3.79895 24.3386 3.77327 24.5087C3.95624 24.1091 4.16168 23.6516 4.37836 23.1075C4.54689 23.2696 4.70739 23.435 4.85987 23.6051C5.41842 22.9839 5.41842 22.0964 5.24828 21.3243C5.17927 21.0146 5.08297 20.7064 4.97864 20.4063C4.85024 20.0371 4.709 19.6696 4.56454 19.3052C4.2323 18.4578 3.89685 17.6183 3.58548 16.7645C3.41374 17.3214 3.22595 17.8719 3.02211 18.4176C2.78296 19.0532 2.51974 19.6808 2.22762 20.2939L2.24528 20.4801C2.77173 21.265 3.12162 21.9359 3.35435 22.4944C3.41855 21.2987 3.42337 20.127 3.4346 18.9714L3.43621 18.9746ZM0.839276 24.9373C1.61771 25.5247 2.33516 26.0961 2.94186 26.6418C3.04298 26.0688 3.30139 25.5263 3.64486 24.7864V24.6564C3.61918 24.6098 3.63202 24.5472 3.64486 24.4991L3.6561 24.4574C3.66894 24.3466 3.66412 24.215 3.6561 24.1155C3.63363 23.7913 3.55659 23.4622 3.46189 23.1541C3.07026 21.8909 2.24528 20.6262 1.44598 19.5877C1.26942 19.3582 1.08966 19.1351 0.924343 18.8959C0.765445 18.668 0.617782 18.4289 0.490985 18.1801C0.247021 19.1961 0.0496031 20.2506 0.00787245 21.2906C-0.0322532 22.2842 0.0736787 23.3033 0.495801 24.215C0.584077 24.406 0.686799 24.5922 0.802361 24.7687L0.818411 24.7928L0.836066 24.9389L0.839276 24.9373ZM1.3272 23.0754C0.988543 21.8861 0.853721 20.7257 0.832856 19.5813C1.47968 22.159 2.04786 24.3065 2.53739 26.0239C2.00613 25.0416 1.58561 24.0577 1.3272 23.0754Z" fill="#EBB811"/>
<path fill-rule="evenodd" clip-rule="evenodd" d="M8.41501 12.3411C8.41501 12.0843 8.20636 11.8773 7.95116 11.8773C7.69596 11.8773 7.4873 12.0859 7.4873 12.3411C7.4873 12.5963 7.69596 12.805 7.95116 12.805C8.20636 12.805 8.41501 12.5963 8.41501 12.3411Z" fill="#EBB811"/>
<path fill-rule="evenodd" clip-rule="evenodd" d="M4.59018 14.8931C4.59018 14.6362 4.38153 14.4292 4.12633 14.4292C3.87113 14.4292 3.66248 14.6379 3.66248 14.8931C3.66248 15.1483 3.87113 15.3569 4.12633 15.3569C4.38153 15.3569 4.59018 15.1483 4.59018 14.8931Z" fill="#EBB811"/>
<path fill-rule="evenodd" clip-rule="evenodd" d="M24.0913 12.3411C24.0913 12.0843 23.8826 11.8773 23.6274 11.8773C23.3722 11.8773 23.1636 12.0859 23.1636 12.3411C23.1636 12.5963 23.3706 12.805 23.6274 12.805C23.8842 12.805 24.0913 12.5979 24.0913 12.3411Z" fill="#EBB811"/>
<path fill-rule="evenodd" clip-rule="evenodd" d="M27.916 14.8931C27.916 14.6362 27.7073 14.4292 27.4521 14.4292C27.1969 14.4292 26.9883 14.6379 26.9883 14.8931C26.9883 15.1483 27.1969 15.3569 27.4521 15.3569C27.7073 15.3569 27.916 15.1483 27.916 14.8931Z" fill="#EBB811"/>
<path fill-rule="evenodd" clip-rule="evenodd" d="M22.1669 32.359L24.9548 17.9105L15.7901 23.7207L6.62378 17.9105L9.41171 32.359L15.7901 37.3378L22.1669 32.359Z" fill="white"/>
<path fill-rule="evenodd" clip-rule="evenodd" d="M6.5564 16.1739L15.7901 22.2039L25.0222 16.1739L21.2199 13.1693H10.3587L6.5564 16.1739Z" fill="#3B3DC4"/>
<path fill-rule="evenodd" clip-rule="evenodd" d="M15.7901 15.2413L22.2455 18.7676L20.6903 11.8772L26.2228 7.17607L18.822 6.44418L15.7901 0L12.7566 6.44418L5.35583 7.17607L10.8884 11.8772L9.3347 18.7676L15.7901 15.2413Z" fill="#EBB811"/>
<path fill-rule="evenodd" clip-rule="evenodd" d="M15.79 1.59863L17.8813 7.47945L24.3303 7.58057L19.175 11.3155L21.0673 17.2589L15.79 13.6877L10.5111 17.2589L12.4034 11.3155L7.24805 7.58057L13.697 7.47945L15.79 1.59863Z" fill="#DC0018"/>
<path fill-rule="evenodd" clip-rule="evenodd" d="M14.2188 24.979V25.3802H14.7035V24.5119H12.7887V27.4892H14.7549V26.6386H14.2188V26.9869H13.3248V24.979H14.2188Z" fill="#E30016"/>
<path fill-rule="evenodd" clip-rule="evenodd" d="M15.5798 27.0303V30.0766H16.1753V28.7396H16.6087L17.3149 30.0846L17.8509 30.0927L17.0099 28.5871V28.3833L17.7418 27.0897H17.1961L16.5332 28.3063L16.1673 28.3143V27.0303H15.5798Z" fill="#E30016"/>
<path fill-rule="evenodd" clip-rule="evenodd" d="M10.1532 22.0242H9.64124L9.64284 25.0705H11.4469V25.4702H11.9653V24.4991H11.625L11.617 22.0242H11.1066V24.5425H10.1532V22.0242Z" fill="#E30016"/>
<path fill-rule="evenodd" clip-rule="evenodd" d="M20.6871 32.5178L20.3725 29.5389H18.8076L18.509 32.5178H19.0018L19.0355 31.7939H20.0996L20.167 32.5178H20.6854H20.6871ZM19.1125 31.3092L19.265 29.9995H19.9632L20.0306 31.3092H19.1125Z" fill="#E30016"/>
</svg>
