<svg width="21" height="23" viewBox="0 0 21 23" fill="none" xmlns="http://www.w3.org/2000/svg">
<path fill-rule="evenodd" clip-rule="evenodd" d="M10.5808 0C14.1378 0 17.0223 2.92846 17.0223 6.54166C17.0214 7.49143 16.8188 8.42937 16.4288 9.28906C16.0387 10.1487 15.4708 10.9091 14.7652 11.5164H14.8858C16.9257 12.4876 18.4011 13.8468 19.4641 15.5998C20.6714 17.5913 21.1676 19.8293 20.9504 22.2852C20.9298 22.4945 20.8299 22.6868 20.6727 22.82C20.5154 22.9533 20.3136 23.0166 20.1113 22.9963C20.0112 22.9882 19.9136 22.9597 19.8241 22.9125C19.7346 22.8654 19.655 22.8003 19.5899 22.7213C19.5247 22.6422 19.4753 22.5505 19.4444 22.4516C19.4136 22.3527 19.4019 22.2485 19.41 22.1449C19.5986 20.021 19.1774 18.122 18.1464 16.4226C17.121 14.729 15.5299 13.4531 13.35 12.5903L13.2149 12.5127C12.3845 12.8907 11.4869 13.0851 10.5797 13.0833C9.58011 13.0851 8.59355 12.8489 7.69631 12.3929L7.65 12.4157C5.47011 13.2785 3.87903 14.5544 2.85359 16.248C1.82263 17.9473 1.40143 19.8464 1.58998 21.9703C1.59812 22.0739 1.58642 22.1781 1.55555 22.277C1.52469 22.3759 1.47526 22.4675 1.41011 22.5466C1.34496 22.6257 1.26537 22.6907 1.1759 22.7379C1.08642 22.7851 0.988827 22.8136 0.888709 22.8216C0.686439 22.842 0.484597 22.7787 0.327344 22.6454C0.170091 22.5122 0.0702304 22.3199 0.0496118 22.1106C-0.167605 19.6547 0.328576 17.4167 1.53595 15.4252C2.59888 13.6722 4.1602 12.3096 6.20005 11.3384C5.55131 10.7326 5.03259 9.99267 4.67742 9.16643C4.32225 8.34018 4.13853 7.446 4.13814 6.54166C4.13814 2.92846 7.02371 0 10.5808 0ZM5.68513 6.54052C5.68513 3.79467 7.87604 1.56922 10.5808 1.56922C13.2844 1.56922 15.4764 3.79467 15.4764 6.54052C15.4764 9.28752 13.2844 11.513 10.5808 11.513C7.87604 11.513 5.68513 9.28638 5.68513 6.54052Z" fill="#DA6713"/>
</svg>
