<svg width="59" height="47" viewBox="0 0 59 47" fill="none" xmlns="http://www.w3.org/2000/svg">
<path d="M26.4183 41.4L27.4583 38.54L27.4783 39.38L25.1283 33.6H26.5383L28.1183 37.69H27.7983L29.3683 33.6H30.7283L27.6783 41.4H26.4183ZM34.0814 39.15C33.5448 39.15 33.0964 39.025 32.7364 38.775C32.3764 38.525 32.1048 38.185 31.9214 37.755C31.7414 37.325 31.6514 36.84 31.6514 36.3C31.6514 35.76 31.7414 35.275 31.9214 34.845C32.1014 34.415 32.3664 34.075 32.7164 33.825C33.0664 33.575 33.4981 33.45 34.0114 33.45C34.5281 33.45 34.9781 33.5733 35.3614 33.82C35.7448 34.0667 36.0414 34.405 36.2514 34.835C36.4648 35.2617 36.5714 35.75 36.5714 36.3C36.5714 36.84 36.4664 37.325 36.2564 37.755C36.0498 38.185 35.7598 38.525 35.3864 38.775C35.0131 39.025 34.5781 39.15 34.0814 39.15ZM31.4214 41.4V33.6H32.6214V37.3H32.7914V41.4H31.4214ZM33.8614 37.94C34.1548 37.94 34.3948 37.8667 34.5814 37.72C34.7681 37.5733 34.9064 37.3767 34.9964 37.13C35.0864 36.88 35.1314 36.6033 35.1314 36.3C35.1314 36 35.0848 35.7267 34.9914 35.48C34.8981 35.23 34.7531 35.0317 34.5564 34.885C34.3631 34.735 34.1148 34.66 33.8114 34.66C33.5281 34.66 33.2981 34.7283 33.1214 34.865C32.9481 35.0017 32.8214 35.1933 32.7414 35.44C32.6614 35.6867 32.6214 35.9733 32.6214 36.3C32.6214 36.6267 32.6614 36.9133 32.7414 37.16C32.8214 37.4067 32.9514 37.5983 33.1314 37.735C33.3148 37.8717 33.5581 37.94 33.8614 37.94Z" fill="#DA6713"/>
<path d="M20.5194 0C27.4176 0 33.0115 5.38852 33.0115 12.037C33.0098 13.7846 32.6169 15.5105 31.8605 17.0924C31.104 18.6743 30.0027 20.0734 28.6344 21.1908C29.2203 21.4701 29.7527 21.7515 30.2338 22.035C31.2709 22.644 32.3465 23.4 33.4627 24.3008C33.6133 24.4208 33.7379 24.5692 33.8292 24.7373C33.9205 24.9053 33.9765 25.0896 33.994 25.2793C34.0116 25.469 33.9903 25.6602 33.9313 25.8416C33.8724 26.0231 33.777 26.1911 33.6509 26.3357C33.3924 26.6306 33.0267 26.8146 32.632 26.8483C32.2372 26.8821 31.8447 26.7629 31.5382 26.5163C30.6348 25.7761 29.6771 25.1023 28.6728 24.5003C27.6933 23.9406 26.6759 23.4474 25.6279 23.0241C24.0173 23.7196 22.2766 24.0772 20.5173 24.0741C18.5788 24.0773 16.6655 23.6426 14.9255 22.8036L14.8357 22.8456C10.6082 24.4331 7.52263 26.7809 5.53398 29.8973C3.53465 33.0241 2.7178 36.5185 3.08346 40.4265C3.09924 40.6171 3.07656 40.8089 3.0167 40.9909C2.95684 41.1729 2.86099 41.3415 2.73465 41.4871C2.6083 41.6326 2.45394 41.7522 2.28042 41.8391C2.10691 41.9259 1.91764 41.9782 1.72348 41.9931C1.33122 42.0306 0.939782 41.9141 0.63482 41.6689C0.329858 41.4237 0.136198 41.0699 0.0962127 40.6848C-0.325038 36.1657 0.63721 32.0476 2.97868 28.3832C5.04003 25.1576 8.0679 22.6503 12.0238 20.8632C10.7657 19.7486 9.75975 18.3871 9.07096 16.8667C8.38218 15.3464 8.02589 13.7011 8.02514 12.037C8.02514 5.38852 13.6211 0 20.5194 0ZM20.5194 2.88746C15.2741 2.88746 11.0252 6.9824 11.0252 12.0349C11.0252 17.0875 15.2741 21.1845 20.5194 21.1845C25.7626 21.1845 30.0136 17.0896 30.0136 12.0349C30.0136 6.9824 25.7626 2.88746 20.5194 2.88746Z" fill="#DA6713"/>
<path d="M48.1221 29.6528V32.5836H43.1491V22.9408H39.11L45.4673 15.6132L51.7473 22.9408H48.1358V25.9754" stroke="#DA6713" stroke-width="2" stroke-linecap="round" stroke-linejoin="round"/>
<path d="M22.4852 39.1585C22.3169 38.4857 22.2274 37.7812 22.2274 37.0557C22.2274 32.2403 26.1604 28.3372 31.0106 28.3372C35.8608 28.3372 39.7923 32.2403 39.7923 37.0557C39.7923 41.871 35.8593 45.7742 31.0106 45.7742C28.0647 45.7742 25.4584 44.3352 23.8649 42.1269" stroke="#DA6713" stroke-width="2" stroke-linecap="round" stroke-linejoin="round"/>
<path d="M54.675 13.3763V19.2258" stroke="#DA6713" stroke-width="2" stroke-linecap="round" stroke-linejoin="round"/>
<path d="M57.621 16.301H51.7291" stroke="#DA6713" stroke-width="2" stroke-linecap="round" stroke-linejoin="round"/>
</svg>
