<svg width="48" height="48" viewBox="0 0 48 48" fill="none" xmlns="http://www.w3.org/2000/svg">
<path d="M37.6879 20.7817L39.8865 22.9798" stroke="#DA6713" stroke-width="1.5" stroke-linecap="round" stroke-linejoin="round"/>
<path d="M33.0558 16.1519L35.3021 18.3964" stroke="#DA6713" stroke-width="1.5" stroke-linecap="round" stroke-linejoin="round"/>
<path d="M28.5308 11.6265L30.7642 13.8594" stroke="#DA6713" stroke-width="1.5" stroke-linecap="round" stroke-linejoin="round"/>
<path d="M26.3555 9.45182L24.9637 8.06042" stroke="#DA6713" stroke-width="1.5" stroke-linecap="round" stroke-linejoin="round"/>
<path d="M21.3631 36.1051L20.7202 36.7479" stroke="#DA6713" stroke-width="1.5" stroke-linecap="round" stroke-linejoin="round"/>
<path d="M30.457 27.0016L23.6973 33.7598" stroke="#DA6713" stroke-width="1.5" stroke-linecap="round" stroke-linejoin="round"/>
<path d="M29.9212 21.3224L17.6062 33.6346" stroke="#DA6713" stroke-width="1.5" stroke-linecap="round" stroke-linejoin="round"/>
<path d="M21.8937 16.9211L11.3914 27.4212" stroke="#DA6713" stroke-width="1.5" stroke-linecap="round" stroke-linejoin="round"/>
<path d="M26.8137 18.2145L14.4988 30.528" stroke="#DA6713" stroke-width="1.5" stroke-linecap="round" stroke-linejoin="round"/>
<path d="M1 31.7269L31.7144 1L35.2802 4.56239C35.2802 4.56239 32.7137 9.07346 35.5707 11.9285C38.46 14.8159 43.0573 12.3338 43.0573 12.3338L47 16.2731L16.2856 47L12.3428 43.0607C12.3428 43.0607 14.6847 38.6155 11.7877 35.7217C8.89324 32.8305 4.56448 35.2906 4.56448 35.2906L1 31.7269Z" stroke="#DA6713" stroke-width="2" stroke-linecap="round" stroke-linejoin="round"/>
</svg>
