<svg width="40" height="42" viewBox="0 0 40 42" fill="none" xmlns="http://www.w3.org/2000/svg">
<path d="M20.5194 0C27.4176 0 33.0115 5.38852 33.0115 12.037C33.0098 13.7846 32.6169 15.5105 31.8605 17.0924C31.104 18.6743 30.0027 20.0734 28.6344 21.1908C29.2203 21.4701 29.7527 21.7515 30.2338 22.035C31.2709 22.644 32.3465 23.4 33.4627 24.3008C33.6133 24.4208 33.7379 24.5692 33.8292 24.7373C33.9205 24.9053 33.9765 25.0896 33.994 25.2793C34.0116 25.469 33.9903 25.6602 33.9313 25.8416C33.8724 26.0231 33.777 26.1911 33.6509 26.3357C33.3924 26.6306 33.0267 26.8146 32.632 26.8483C32.2372 26.8821 31.8447 26.7629 31.5382 26.5163C30.6348 25.7761 29.6771 25.1023 28.6728 24.5003C27.6933 23.9406 26.6759 23.4474 25.6279 23.0241C24.0173 23.7196 22.2766 24.0772 20.5173 24.0741C18.5788 24.0773 16.6655 23.6426 14.9255 22.8036L14.8357 22.8456C10.6082 24.4331 7.52263 26.7809 5.53398 29.8973C3.53465 33.0241 2.7178 36.5185 3.08346 40.4265C3.09924 40.6171 3.07656 40.8089 3.0167 40.9909C2.95684 41.1729 2.86099 41.3415 2.73465 41.4871C2.6083 41.6326 2.45394 41.7522 2.28042 41.8391C2.10691 41.9259 1.91764 41.9782 1.72348 41.9931C1.33122 42.0306 0.939782 41.9141 0.63482 41.6689C0.329858 41.4237 0.136198 41.0699 0.0962127 40.6848C-0.325038 36.1657 0.63721 32.0476 2.97868 28.3832C5.04003 25.1576 8.0679 22.6503 12.0238 20.8632C10.7657 19.7486 9.75975 18.3871 9.07096 16.8667C8.38218 15.3464 8.02589 13.7011 8.02514 12.037C8.02514 5.38852 13.6211 0 20.5194 0ZM20.5194 2.88746C15.2741 2.88746 11.0252 6.9824 11.0252 12.0349C11.0252 17.0875 15.2741 21.1845 20.5194 21.1845C25.7626 21.1845 30.0136 17.0896 30.0136 12.0349C30.0136 6.9824 25.7626 2.88746 20.5194 2.88746Z" fill="#DA6713"/>
<path d="M33.118 34L36 28.2361L38.882 34L36 39.7639L33.118 34Z" stroke="#DA6713" stroke-width="2" stroke-linejoin="round"/>
</svg>
