<svg width="8" height="10" viewBox="0 0 8 10" fill="none" xmlns="http://www.w3.org/2000/svg">
<path d="M1 9.80313C0.725001 9.80313 0.489501 9.71353 0.293501 9.53433C0.0975008 9.35513 -0.000332484 9.13996 8.48897e-07 8.88884V4.31741C8.48897e-07 4.06598 0.0980007 3.85067 0.294001 3.67147C0.490001 3.49227 0.725334 3.40282 1 3.40313H1.5V2.48884C1.5 1.85646 1.74383 1.31733 2.2315 0.871468C2.71917 0.425602 3.30867 0.202821 4 0.203125C4.69167 0.203125 5.28133 0.426059 5.769 0.871925C6.25667 1.31779 6.50033 1.85676 6.5 2.48884V3.40313H7C7.275 3.40313 7.5105 3.49273 7.7065 3.67193C7.9025 3.85113 8.00033 4.06629 8 4.31741V8.88884C8 9.14027 7.902 9.35558 7.706 9.53478C7.51 9.71398 7.27467 9.80343 7 9.80313H1ZM4 7.51741C4.275 7.51741 4.5105 7.42781 4.7065 7.24861C4.9025 7.06941 5.00033 6.85425 5 6.60313C5 6.3517 4.902 6.13638 4.706 5.95718C4.51 5.77798 4.27467 5.68853 4 5.68884C3.725 5.68884 3.4895 5.77844 3.2935 5.95764C3.0975 6.13684 2.99967 6.352 3 6.60313C3 6.85455 3.098 7.06987 3.294 7.24907C3.49 7.42827 3.72533 7.51772 4 7.51741ZM2.5 3.40313H5.5V2.48884C5.5 2.10789 5.35417 1.78408 5.0625 1.51741C4.77083 1.25074 4.41667 1.11741 4 1.11741C3.58333 1.11741 3.22917 1.25074 2.9375 1.51741C2.64583 1.78408 2.5 2.10789 2.5 2.48884V3.40313Z" fill="white"/>
</svg>
