<svg width="77" height="43" viewBox="0 0 77 43" fill="none" xmlns="http://www.w3.org/2000/svg">
<g clip-path="url(#clip0_58_96)">
<path fill-rule="evenodd" clip-rule="evenodd" d="M38.4991 0L77 21.5L38.5098 43L0 21.5L38.4991 0Z" fill="white"/>
<path fill-rule="evenodd" clip-rule="evenodd" d="M38.4991 1.37L2.45203 21.5L38.5099 41.63L74.5463 21.5L38.4991 1.37Z" fill="#E30C2C"/>
<path fill-rule="evenodd" clip-rule="evenodd" d="M43.5996 13.4618L44.8918 12.7405H45.721V17.8116H44.8292L44.7917 17.7062C44.0786 15.6785 41.8661 14.4538 39.8877 14.0905C37.4911 13.6489 35.0123 14.2921 33.3645 16.1799C30.8196 19.0925 30.9644 24.0219 33.6344 26.8109C34.9891 28.2263 36.8799 29.0276 38.8065 29.1603C40.9957 29.3092 43.1064 28.6006 44.8328 27.2325C44.9078 27.1725 44.9829 27.1126 45.058 27.049L45.142 26.9781L46.8022 27.9538L46.6521 28.101C46.2732 28.4716 45.8658 28.8132 45.435 29.1221C43.857 30.2559 41.9912 30.9554 40.0825 31.237C36.694 31.7349 32.8945 30.9391 30.3192 28.5407C28.3515 26.711 27.4472 24.269 27.458 21.5817C27.4705 18.6565 28.6107 16.0855 30.8786 14.2631C32.0367 13.331 33.3985 12.675 34.8211 12.2862C37.6788 11.5049 41.0976 11.752 43.6014 13.46L43.5996 13.4618ZM33.2484 16.0746C36.7709 12.0391 43.6121 13.8724 44.94 17.6535H45.5655V12.9003H44.9346L43.5925 13.6507C38.2614 9.91873 27.7082 12.6296 27.6152 21.5854C27.6242 31.6713 40.5025 33.9043 46.5449 27.9883L45.158 27.1725C45.083 27.2361 45.0079 27.2997 44.9311 27.3597C41.119 30.3849 36.19 29.7072 33.5254 26.9236C30.741 24.0146 30.7088 18.9871 33.2502 16.0764L33.2484 16.0746ZM33.2484 16.0746C36.7709 12.0391 43.6121 13.8724 44.94 17.6535H45.5655V12.9003H44.9346L43.5925 13.6507C38.2614 9.91873 27.7082 12.6296 27.6152 21.5854C27.6242 31.6713 40.5025 33.9043 46.5449 27.9883L45.158 27.1743C45.083 27.2379 45.0079 27.2997 44.9311 27.3597C41.119 30.3849 36.19 29.7072 33.5254 26.9236C30.741 24.0146 30.7088 18.9871 33.2502 16.0764L33.2484 16.0746ZM38.4991 3.57574L6.40515 21.5L38.5098 39.4224L70.5948 21.5L38.4991 3.57574ZM38.4991 37.084L66.4253 21.4945L57.0838 16.3017L36.9639 27.5504C36.0346 27.2179 35.1785 26.6874 34.4869 25.9679C32.8838 24.2926 32.3655 21.6562 32.9857 19.3978L40.1647 15.3914C41.5926 15.7693 43.1689 16.6851 43.6711 18.115L43.991 19.0235H46.9112V11.6248L47.8424 11.1034L38.5008 5.91053L10.6175 21.5L19.9179 26.691L26.3535 23.0989C26.7681 26.5493 28.6446 29.1475 31.2503 30.7446L29.2004 31.8911L38.5008 37.084H38.4991Z" fill="white"/>
</g>
<defs>
<clipPath id="clip0_58_96">
<rect width="77" height="43" fill="white"/>
</clipPath>
</defs>
</svg>
