<svg width="50" height="50" viewBox="0 0 50 50" fill="none" xmlns="http://www.w3.org/2000/svg">
<rect x="0.5" y="0.5" width="49" height="49" rx="19.5" fill="white" stroke="#DA6713"/>
<path d="M24.052 8.99885C24.129 8.80203 24.2601 8.63365 24.4286 8.51515C24.5972 8.39665 24.7956 8.33337 24.9986 8.33337C25.2015 8.33337 25.3999 8.39665 25.5685 8.51515C25.737 8.63365 25.8682 8.80203 25.9452 8.99885L29.8134 18.7494C29.8858 18.9319 30.0049 19.0898 30.1574 19.206C30.31 19.3221 30.4902 19.3919 30.6781 19.4076L40.7229 20.2508C41.6312 20.3271 41.9989 21.5157 41.3072 22.1357L33.6544 29.0074C33.5114 29.1356 33.4049 29.3026 33.3464 29.49C33.288 29.6775 33.2799 29.8781 33.3231 30.0701L35.6623 40.3434C35.7093 40.5495 35.697 40.7656 35.6269 40.9643C35.5567 41.1631 35.432 41.3357 35.2684 41.4602C35.1048 41.5847 34.9096 41.6556 34.7076 41.664C34.5055 41.6723 34.3056 41.6177 34.1332 41.5071L25.5319 36.0032C25.3713 35.9006 25.1867 35.8463 24.9986 35.8463C24.8104 35.8463 24.6259 35.9006 24.4652 36.0032L15.864 41.509C15.6915 41.6196 15.4916 41.6742 15.2896 41.6659C15.0875 41.6575 14.8924 41.5866 14.7287 41.4621C14.5651 41.3376 14.4404 41.165 14.3703 40.9662C14.3002 40.7675 14.2879 40.5514 14.3349 40.3453L16.674 30.0701C16.7174 29.8781 16.7095 29.6774 16.651 29.4899C16.5925 29.3024 16.4859 29.1355 16.3427 29.0074L8.68993 22.1357C8.53668 21.9976 8.42581 21.8151 8.37127 21.6111C8.31673 21.4072 8.32095 21.1909 8.38341 20.9894C8.44586 20.788 8.56375 20.6103 8.72227 20.4789C8.88078 20.3475 9.07283 20.2682 9.27426 20.2508L19.319 19.4076C19.507 19.3919 19.6871 19.3221 19.8397 19.206C19.9923 19.0898 20.1113 18.9319 20.1837 18.7494L24.052 8.99885Z" stroke="#DA6713" stroke-width="2" stroke-linecap="round" stroke-linejoin="round"/>
</svg>
