<svg width="66" height="29" viewBox="0 0 66 29" fill="none" xmlns="http://www.w3.org/2000/svg">
<path d="M0.491875 24L6.66788 15.264L0.619875 6.72H5.73988L9.19588 11.84L12.5879 6.72H17.7079L11.6599 15.264L17.8679 24H12.7479L9.19588 18.688L5.61188 24H0.491875ZM30.8494 24V5.696L26.5294 8.352V3.552L30.8494 0.959999H35.2974V24H30.8494ZM39.7794 28.32L40.0354 26.496C40.5474 26.5387 40.9634 26.4533 41.2834 26.24C41.6034 26.0373 41.822 25.7387 41.9394 25.344C42.0674 24.96 42.094 24.512 42.0194 24H39.7794V19.648H44.1314V24C44.1314 25.536 43.774 26.6987 43.0594 27.488C42.3447 28.2773 41.2514 28.5547 39.7794 28.32ZM57.0724 24.48C55.9097 24.48 54.8164 24.24 53.7924 23.76C52.779 23.28 51.9044 22.6133 51.1684 21.76C50.4324 20.9067 49.9044 19.9147 49.5844 18.784L53.7764 17.664C53.915 18.208 54.1604 18.6773 54.5124 19.072C54.875 19.4667 55.291 19.776 55.7604 20C56.2404 20.2133 56.731 20.32 57.2324 20.32C57.8937 20.32 58.4964 20.16 59.0404 19.84C59.595 19.52 60.0324 19.088 60.3524 18.544C60.683 18 60.8484 17.3973 60.8484 16.736C60.8484 16.0747 60.683 15.472 60.3524 14.928C60.0324 14.384 59.595 13.952 59.0404 13.632C58.4964 13.312 57.8937 13.152 57.2324 13.152C56.4217 13.152 55.7604 13.2907 55.2484 13.568C54.7364 13.8347 54.3524 14.0907 54.0964 14.336L50.4164 13.216L51.1204 0.959999H63.6964V5.024H53.5204L55.0564 3.584L54.5764 11.488L53.8404 10.592C54.4164 10.1227 55.0724 9.78133 55.8084 9.568C56.5444 9.35467 57.2324 9.248 57.8724 9.248C59.323 9.248 60.5977 9.57333 61.6964 10.224C62.8057 10.864 63.6697 11.7493 64.2884 12.88C64.9177 14 65.2324 15.2853 65.2324 16.736C65.2324 18.1867 64.8537 19.4987 64.0964 20.672C63.339 21.8347 62.3417 22.7627 61.1044 23.456C59.867 24.1387 58.523 24.48 57.0724 24.48Z" fill="#DA6713"/>
</svg>
