<svg width="42" height="41" viewBox="0 0 42 41" fill="none" xmlns="http://www.w3.org/2000/svg">
<path d="M21.6945 2.03909C21.4414 1.41494 20.5577 1.41486 20.3045 2.03896L16.0225 12.593C15.558 13.7379 14.4845 14.5203 13.2524 14.6121L1.94319 15.4549C1.27501 15.5047 1.00247 16.3389 1.5124 16.7736L10.1933 24.1731C11.127 24.9689 11.5329 26.2226 11.2429 27.4147L8.53938 38.5281C8.38047 39.1813 9.09498 39.6976 9.66526 39.3416L19.2789 33.3407C20.3322 32.6832 21.6679 32.6833 22.7211 33.3408L32.3309 39.3408C32.9012 39.6969 33.6158 39.1806 33.4569 38.5274L30.7536 27.4148C30.4635 26.2227 30.8696 24.9688 31.8035 24.173L40.4865 16.7736C40.9966 16.339 40.724 15.5046 40.0558 15.4549L28.7443 14.6121C27.512 14.5203 26.4384 13.7376 25.974 12.5924L21.6945 2.03909Z" stroke="#DA6713" stroke-width="2.5" stroke-linejoin="round"/>
</svg>
