<svg width="180" height="298" viewBox="0 0 180 298" fill="none" xmlns="http://www.w3.org/2000/svg">
<line x1="180" y1="149.5" x2="-1.46044e-08" y2="149.5" stroke="#DA6713"/>
<path d="M90.4639 183.758C71.0054 183.758 55.2423 168.19 55.2423 149C55.2423 129.81 71.0054 114.242 90.4639 114.242C109.922 114.242 125.686 129.81 125.686 149C125.686 168.19 109.922 183.758 90.4639 183.758Z" fill="white" stroke="#DA6713"/>
<rect x="179.5" y="0.5" width="297" height="179" transform="rotate(90 179.5 0.5)" stroke="#DA6713"/>
<path fill-rule="evenodd" clip-rule="evenodd" d="M180 7.08444e-07L180 13L179.629 13C177.97 13 176.328 12.6734 174.796 12.0387C173.264 11.4041 171.871 10.4738 170.699 9.30118C169.526 8.12851 168.596 6.73634 167.961 5.20417C167.327 3.672 167 2.02984 167 0.371429L167 -4.57211e-07L180 7.08444e-07ZM179.257 0.742858L167.749 0.742857C167.793 2.17704 168.098 3.59234 168.648 4.91989C169.245 6.36194 170.12 7.67221 171.224 8.7759C172.328 9.87959 173.638 10.7551 175.08 11.3524C176.408 11.9023 177.823 12.2065 179.257 12.2513L179.257 0.742858Z" fill="#DA6713"/>
<path fill-rule="evenodd" clip-rule="evenodd" d="M180 298L180 285L179.629 285C177.97 285 176.328 285.327 174.796 285.961C173.264 286.596 171.871 287.526 170.699 288.699C169.526 289.871 168.596 291.264 167.961 292.796C167.327 294.328 167 295.97 167 297.629L167 298L180 298ZM179.257 297.257L167.749 297.257C167.793 295.823 168.098 294.408 168.648 293.08C169.245 291.638 170.12 290.328 171.224 289.224C172.328 288.12 173.638 287.245 175.08 286.648C176.408 286.098 177.823 285.793 179.257 285.749L179.257 297.257Z" fill="#DA6713"/>
<path fill-rule="evenodd" clip-rule="evenodd" d="M0 7.08444e-07L-6.76019e-07 13L0.371428 13C2.02984 13 3.672 12.6734 5.20417 12.0387C6.73634 11.4041 8.12851 10.4738 9.30118 9.30118C10.4738 8.12851 11.4041 6.73634 12.0387 5.20417C12.6734 3.67201 13 2.02984 13 0.37143L13 4.77658e-07L0 7.08444e-07ZM0.742857 0.742858L12.2513 0.742858C12.2065 2.17704 11.9023 3.59234 11.3524 4.9199C10.7551 6.36194 9.87959 7.67221 8.7759 8.7759C7.67221 9.87959 6.36194 10.7551 4.91989 11.3524C3.59234 11.9023 2.17704 12.2065 0.742857 12.2513L0.742857 0.742858Z" fill="#DA6713"/>
<path fill-rule="evenodd" clip-rule="evenodd" d="M0 298L2.02806e-06 285L0.371431 285C2.02984 285 3.67201 285.327 5.20417 285.961C6.73634 286.596 8.12851 287.526 9.30118 288.699C10.4738 289.871 11.4041 291.264 12.0387 292.796C12.6733 294.328 13 295.97 13 297.629L13 298L0 298ZM0.742857 297.257L12.2513 297.257C12.2065 295.823 11.9023 294.408 11.3524 293.08C10.7551 291.638 9.87959 290.328 8.7759 289.224C7.67221 288.12 6.36194 287.245 4.91989 286.648C3.59234 286.098 2.17705 285.794 0.742859 285.749L0.742857 297.257Z" fill="#DA6713"/>
<path d="M149.263 0.5L149.263 6.75257C149.263 25.8064 133.817 41.2526 114.763 41.2526L66 41.2526C46.9462 41.2526 31.5 25.8064 31.5 6.75257L31.5 0.499996L149.263 0.5Z" stroke="#DA6713"/>
<path d="M149.263 297.252L149.263 291C149.263 271.946 133.817 256.5 114.763 256.5L66 256.5C46.9462 256.5 31.5 271.946 31.5 291L31.5 297.252L149.263 297.252Z" stroke="#DA6713"/>
<path d="M104.438 146.869C104.659 146.94 104.879 147.013 105.1 147.084L105.965 147.367V148.278C105.965 148.474 105.965 148.67 105.965 148.866C105.965 149.061 105.965 149.256 105.965 149.452C105.965 149.842 105.965 150.232 105.965 150.623C105.965 150.818 105.965 151.013 105.965 151.209C105.965 151.404 105.965 151.599 105.965 151.795C105.965 152.184 105.965 152.574 105.965 152.964V154.717L105.963 154.718L103.686 155.69C103.295 157.477 102.708 159.183 101.832 160.715C99.4304 164.909 95.3651 166.92 90.7734 167.836L90.4805 167.895L90.1881 167.836C85.8387 166.967 81.9153 165.101 79.4624 161.262C78.3964 159.594 77.7108 157.69 77.2724 155.687L75 154.717V152.964C75 152.574 75 152.184 75 151.795C75 151.599 75 151.404 75 151.209C75 151.013 75 150.818 75 150.623C75 150.232 75 149.842 75 149.452C75 149.256 75 149.061 75 148.866C75 148.67 75 148.474 75 148.278V147.369L75.8638 147.085C76.0833 147.013 76.3033 146.941 76.5228 146.869C76.5228 146.095 76.5305 145.335 76.5394 144.596C76.564 142.644 76.6052 140.691 76.5957 138.739L76.5913 137.874L77.3387 137.439C81.4063 135.072 85.651 133.181 90.4248 133.002L90.4805 133L90.5367 133.002C95.3105 133.181 99.5552 135.072 103.623 137.439L104.37 137.874L104.366 138.739C104.356 140.691 104.398 142.644 104.422 144.596C104.431 145.336 104.439 146.096 104.438 146.869Z" stroke="white" stroke-miterlimit="22.9256"/>
<path fill-rule="evenodd" clip-rule="evenodd" d="M104.438 146.869C104.659 146.94 104.879 147.013 105.1 147.084L105.965 147.367V148.278C105.965 148.474 105.965 148.67 105.965 148.866C105.965 149.061 105.965 149.256 105.965 149.452C105.965 149.842 105.965 150.232 105.965 150.623C105.965 150.818 105.965 151.013 105.965 151.209C105.965 151.404 105.965 151.599 105.965 151.795C105.965 152.184 105.965 152.574 105.965 152.964V154.717L105.963 154.718L103.686 155.69C103.295 157.477 102.708 159.183 101.832 160.715C99.4304 164.909 95.3651 166.92 90.7734 167.836L90.4805 167.895L90.1881 167.836C85.8387 166.967 81.9153 165.101 79.4624 161.262C78.3964 159.594 77.7108 157.69 77.2724 155.687L75 154.717V152.964C75 152.574 75 152.184 75 151.795C75 151.599 75 151.404 75 151.209C75 151.013 75 150.818 75 150.623C75 150.232 75 149.842 75 149.452C75 149.256 75 149.061 75 148.866C75 148.67 75 148.474 75 148.278V147.369L75.8638 147.085C76.0833 147.013 76.3033 146.941 76.5228 146.869C76.5228 146.095 76.5305 145.335 76.5394 144.596C76.564 142.644 76.6052 140.691 76.5957 138.739L76.5913 137.874L77.3387 137.439C81.4063 135.072 85.651 133.181 90.4248 133.002L90.4805 133L90.5367 133.002C95.3105 133.181 99.5552 135.072 103.623 137.439L104.37 137.874L104.366 138.739C104.356 140.691 104.398 142.644 104.422 144.596C104.431 145.336 104.439 146.096 104.438 146.869Z" fill="#231F20"/>
<path fill-rule="evenodd" clip-rule="evenodd" d="M78.0913 138.728C78.1002 140.555 78.0579 143.335 78.0351 145.162C78.0301 145.578 78.0262 145.991 78.0239 146.402C78.5848 146.231 79.2721 146.06 80.0274 145.828C81.6582 143.207 83.1787 140.851 85.4038 138.668C85.1075 138.405 84.9448 138.261 84.673 138.019C84.5956 137.93 84.6898 137.818 84.7939 137.883L84.9666 138.041L85.113 138.155L85.9702 138.927L87.0174 138.939L87.239 138.668C86.9934 138.446 86.657 138.143 86.6013 138.094C86.5239 138.005 86.6186 137.892 86.7227 137.957C87.2446 138.421 87.6679 138.788 88.2538 139.308L88.1213 139.46L88.1291 139.472L88.0383 139.549C87.4156 140.164 86.711 141.21 86.0833 142.32C85.5252 143.305 85.0435 144.287 84.7198 145.109C85.6505 144.73 87.4328 144.488 88.7434 144.339L88.7429 143.804C88.7429 143.752 88.7456 143.688 88.744 143.624C88.7429 143.557 88.8119 143.468 88.8849 143.478L88.9851 143.463V141.68C88.9773 141.396 89.1383 141.271 89.3522 141.225C89.3522 141.055 89.3522 140.884 89.3522 140.714C89.3076 140.713 89.2747 140.677 89.282 140.651C89.2848 140.613 89.3076 140.601 89.37 140.598C89.3767 140.375 89.3449 140.194 89.4853 140.191H89.4936H89.497L89.6067 137.18C89.5755 137.167 89.5538 137.137 89.5538 137.102C89.5538 137.064 89.5783 137.032 89.6123 137.021L89.639 136.294L89.6652 137.021C89.6991 137.032 89.7237 137.064 89.7237 137.102C89.7237 137.137 89.7019 137.167 89.6707 137.18L89.7799 140.191H89.7844C89.9253 140.194 89.893 140.375 89.9002 140.598C89.9621 140.601 89.9849 140.613 89.9877 140.651C89.9949 140.677 89.962 140.713 89.918 140.714C89.918 140.884 89.918 141.055 89.918 141.225C90.1319 141.271 90.2767 141.396 90.2695 141.68V143.46C90.3775 143.46 90.4834 143.439 90.5274 143.559V143.804C90.5274 144.082 90.5274 144.02 90.5257 144.302L91.4843 144.306V143.429C91.3522 143.401 91.374 143.247 91.5177 143.254C91.5127 143.01 91.5099 142.621 91.8619 142.585C91.8619 142.414 91.8619 142.258 91.8619 142.087C91.8624 142.032 91.8948 141.947 91.9443 141.897L91.9644 141.711C91.9527 141.702 91.9454 141.688 91.9454 141.672C91.9454 141.653 91.9566 141.637 91.9722 141.629L91.9944 141.418L92.0151 141.629C92.0312 141.637 92.0418 141.654 92.0418 141.672C92.0418 141.689 92.0345 141.702 92.0228 141.711L92.0407 141.897C92.0902 141.947 92.1226 142.032 92.1231 142.087C92.1231 142.258 92.1231 142.414 92.1231 142.585C92.4751 142.621 92.4723 143.01 92.4673 143.254C92.6116 143.247 92.6327 143.401 92.5007 143.429C92.5007 143.574 92.5007 143.719 92.5007 143.865C92.6093 143.766 92.6706 143.724 92.8149 143.725V143.433C92.7341 143.416 92.7469 143.322 92.8349 143.326C92.8321 143.178 92.8299 142.99 93.0449 142.968V142.82C93.0115 142.795 92.9914 142.755 92.9898 142.711C92.9864 142.622 93.0967 142.6 93.0889 142.483C93.0811 142.474 93.0761 142.468 93.0761 142.451C93.0761 142.434 93.09 142.411 93.11 142.405L93.1268 142.121L93.1429 142.406C93.1607 142.414 93.1724 142.435 93.1724 142.451C93.1724 142.468 93.1674 142.474 93.1602 142.483C93.1596 142.608 93.256 142.614 93.2593 142.711C93.2604 142.755 93.237 142.795 93.2036 142.82V142.968C93.4186 142.99 93.4169 143.178 93.4136 143.326C93.5016 143.322 93.5144 143.416 93.4342 143.433V143.729C93.9884 143.765 94.2925 144.353 94.2741 144.853C94.9748 144.95 95.4259 145.007 96.2241 145.132C95.5847 143.061 94.7932 140.379 93.8542 138.579L93.8514 138.574L93.7617 138.421L93.7456 138.398C94.3087 137.988 94.6935 137.712 95.2416 137.316C95.3513 137.261 95.4337 137.383 95.348 137.463C95.2299 137.55 95.4917 137.36 95.2043 137.568L94.4017 138.149L94.5454 138.421C94.8857 138.43 95.226 138.44 95.5658 138.45C96.2107 137.978 96.4569 137.806 96.981 137.425C97.0907 137.371 97.1732 137.493 97.0874 137.573C96.6591 137.884 96.4625 138.026 95.9901 138.368C97.9329 140.695 99.2986 143.068 100.497 145.15L100.922 145.895L102.941 146.477C102.937 146.111 102.933 145.516 102.928 145.162C102.906 143.335 102.864 140.555 102.873 138.728C99.0329 136.493 94.9971 134.662 90.4817 134.492C85.9663 134.662 81.9311 136.493 78.0913 138.728Z" fill="white"/>
<path fill-rule="evenodd" clip-rule="evenodd" d="M78.9052 156.123C79.0606 156.728 79.2405 157.316 79.4655 157.898C86.548 154.949 93.128 154.708 99.9537 157.653C92.5772 155.926 87.492 155.209 79.8264 158.794C80.0303 159.247 80.257 159.685 80.5076 160.108L80.746 160.477C83.0602 159.421 85.7493 158.611 88.6199 158.364C92.1528 158.06 95.3448 158.717 98.0968 159.874C92.0586 158.33 86.7529 158.397 81.2657 161.236C81.5608 161.625 81.8828 161.998 82.2325 162.353L82.6419 162.736C86.9445 160.747 91.8442 160.466 96.2387 162.308C91.3635 161.132 87.482 161.289 83.366 163.362C83.8756 163.759 84.4159 164.115 84.9795 164.432L85.5176 164.665C86.8682 164.037 88.6015 163.682 90.4802 163.663C92.3839 163.683 94.1384 164.047 95.4963 164.69C95.7224 164.577 95.9324 164.465 96.1206 164.355C97.8951 163.329 99.4157 161.916 100.531 159.968C101.213 158.777 101.705 157.451 102.059 156.053C98.7261 154.589 94.7856 153.742 90.562 153.742C86.2711 153.742 82.2721 154.616 78.9052 156.123Z" fill="#F36418"/>
<path fill-rule="evenodd" clip-rule="evenodd" d="M102.016 154.465C101.856 154.419 101.726 154.27 101.732 154.127C101.736 153.985 101.865 153.906 102.026 153.95C102.185 153.994 102.317 154.145 102.313 154.288C102.307 154.431 102.176 154.51 102.016 154.465Z" fill="white"/>
<path fill-rule="evenodd" clip-rule="evenodd" d="M76.8748 146.774C85.6031 143.311 94.6918 143.511 104.083 146.774V151.35H76.8748C76.8748 149.824 76.8748 148.299 76.8748 146.774Z" fill="#231F20"/>
<path fill-rule="evenodd" clip-rule="evenodd" d="M77.5305 150.96C77.4843 150.975 77.4375 150.991 77.3913 151.006C77.3913 151.267 77.3913 151.528 77.3913 151.788C77.3913 152.06 77.3913 152.332 77.3913 152.604V152.637L77.3601 152.647C77.0342 152.76 76.709 152.874 76.3832 152.988L76.3219 153.009V152.944C76.3219 152.335 76.3219 151.727 76.3219 151.118C76.3219 150.509 76.3219 149.9 76.3219 149.291C76.3219 148.959 76.3219 148.626 76.3219 148.294V148.259L76.3547 148.25C76.6806 148.156 77.0064 148.062 77.3322 147.97L77.3913 147.953V148.014C77.3913 148.344 77.3913 148.672 77.3913 149.002C77.3913 149.31 77.3913 149.618 77.3913 149.926C77.4392 149.911 77.4871 149.896 77.5344 149.881C77.7121 149.505 77.8898 149.128 78.0685 148.752C78.2479 148.375 78.4289 147.999 78.6105 147.623L78.6199 147.604L78.6406 147.599C78.9836 147.507 79.3279 147.416 79.671 147.325L79.7707 147.298L79.7244 147.391C79.4949 147.843 79.266 148.296 79.041 148.751C78.8177 149.202 78.5943 149.652 78.3738 150.104C78.6038 150.383 78.8338 150.662 79.0661 150.939C79.3022 151.222 79.5423 151.501 79.7829 151.781L79.8286 151.834L79.7617 151.855C79.403 151.968 79.0443 152.082 78.6862 152.195L78.6578 152.204L78.6378 152.182C78.4495 151.975 78.2601 151.77 78.073 151.562C77.8914 151.362 77.7104 151.162 77.5305 150.96ZM81.1887 150.45C81.1887 150.767 81.1887 151.084 81.1887 151.402V151.437L81.1553 151.446C80.8289 151.538 80.5014 151.629 80.1761 151.724L80.1165 151.741V151.679C80.1165 150.94 80.1165 150.201 80.1165 149.461C80.1165 148.722 80.1165 147.982 80.1165 147.242V147.205L80.1516 147.197C81.172 146.944 82.194 146.7 83.2228 146.483L83.2785 146.471V146.529C83.2785 147.089 83.2785 147.651 83.2785 148.211C83.2785 148.772 83.2785 149.333 83.2785 149.893V149.93L83.2428 149.938C82.5549 150.097 81.8699 150.267 81.1887 150.45ZM84.7695 148.417C84.9544 148.043 85.1399 147.67 85.3253 147.297C85.5381 146.869 85.7531 146.443 85.9725 146.018L85.9837 145.997L86.0076 145.994C86.334 145.953 86.6609 145.913 86.9873 145.871L87.0397 145.865V145.918C87.0397 146.631 87.0397 147.344 87.0397 148.057C87.0397 148.769 87.0397 149.482 87.0397 150.194V150.234L86.9996 150.24C86.6732 150.286 86.3463 150.331 86.0199 150.376L85.967 150.384V150.33C85.967 149.952 85.967 149.573 85.967 149.194C85.967 148.877 85.967 148.56 85.967 148.243C85.7781 148.598 85.5921 148.956 85.4078 149.314C85.1928 149.733 84.9789 150.154 84.7645 150.574L84.7539 150.594L84.7316 150.598C84.4052 150.661 84.0783 150.723 83.7524 150.789L83.6973 150.801V150.744C83.6973 150.179 83.6973 149.613 83.6973 149.047C83.6973 148.481 83.6973 147.915 83.6973 147.35C83.6973 147.04 83.6973 146.732 83.6973 146.423V146.386L83.7341 146.378C84.0593 146.31 84.3874 146.255 84.7154 146.199L84.7695 146.19V146.245C84.7695 146.64 84.7695 147.035 84.7695 147.43C84.7695 147.759 84.7695 148.087 84.7695 148.417ZM89.5165 149.045C89.5165 148.986 89.5165 148.927 89.5165 148.869V148.823L89.5617 148.822C89.888 148.813 90.215 148.804 90.5419 148.798L90.5887 148.797V148.845C90.5887 149.034 90.5887 149.223 90.5887 149.412C90.5887 149.601 90.5887 149.79 90.5887 149.979V150.024L90.5436 150.025C89.5204 150.052 88.4973 150.101 87.4769 150.188L87.4268 150.192V150.142C87.4268 149.429 87.4268 148.716 87.4268 148.003C87.4268 147.29 87.4268 146.577 87.4268 145.863V145.821L87.4697 145.817C88.4923 145.738 89.5165 145.689 90.5414 145.666L90.5887 145.665V145.713C90.5887 145.902 90.5887 146.092 90.5887 146.281C90.5887 146.47 90.5887 146.659 90.5887 146.848V146.894L90.543 146.894C90.2167 146.9 89.8903 146.908 89.5639 146.917L89.5165 146.918V146.871C89.5165 146.813 89.5165 146.756 89.5165 146.698C89.1773 146.707 88.8381 146.72 88.4995 146.746C88.4995 147.138 88.4995 147.531 88.4995 147.924C88.4995 148.314 88.4995 148.704 88.4995 149.094C88.8376 149.068 89.1773 149.054 89.5165 149.045ZM93.0594 146.793C93.0594 147.336 93.0594 147.878 93.0594 148.422C93.0594 148.981 93.0594 149.541 93.0594 150.1V150.151L93.0093 150.146C92.6829 150.119 92.3565 150.091 92.0296 150.067L91.9873 150.064V150.021C91.9873 149.462 91.9873 148.903 91.9873 148.344C91.9873 147.8 91.9873 147.256 91.9873 146.712C91.6536 146.703 91.3206 146.694 90.9875 146.685L90.9424 146.684V146.639C90.9424 146.334 90.9424 146.03 90.9424 145.724V145.677L90.9897 145.678C92.0162 145.704 93.0411 145.782 94.0625 145.882L94.1043 145.886V145.928C94.1043 146.234 94.1043 146.54 94.1043 146.845V146.898L94.0525 146.892C93.7222 146.85 93.3908 146.819 93.0594 146.793ZM96.3222 149.599C95.9908 149.537 95.6594 149.476 95.3274 149.419C95.2951 149.735 95.2634 150.051 95.2333 150.367L95.2288 150.415L95.1809 150.409C94.8546 150.363 94.5276 150.317 94.2012 150.271L94.1572 150.265L94.1617 150.22C94.2352 149.518 94.3082 148.815 94.3817 148.111C94.4552 147.407 94.5315 146.702 94.6078 145.998L94.6128 145.95L94.6602 145.957C95.4444 146.064 96.2253 146.196 97.005 146.33L97.0401 146.337L97.0435 146.372C97.117 147.107 97.1905 147.842 97.2634 148.578C97.337 149.315 97.4105 150.052 97.4868 150.789L97.4935 150.854L97.43 150.839C97.1064 150.763 96.7789 150.7 96.4519 150.638L96.418 150.632L96.4146 150.598C96.3818 150.264 96.3522 149.932 96.3222 149.599ZM100.009 148.037C99.8021 147.985 99.5949 147.934 99.3883 147.882C99.3148 148.419 99.2435 148.957 99.1722 149.494C99.0992 150.046 99.0257 150.598 98.9522 151.149L98.9449 151.201L98.8954 151.188C98.564 151.109 98.2331 151.03 97.9012 150.951L97.8594 150.941L97.8666 150.899C97.9792 150.201 98.0783 149.502 98.1713 148.801C98.2649 148.094 98.3551 147.388 98.4481 146.68L98.4548 146.63L98.5044 146.641C99.3538 146.839 100.201 147.043 101.046 147.258L101.081 147.267V147.303C101.081 148.045 101.081 148.787 101.081 149.528C101.081 150.269 101.081 151.011 101.081 151.752V151.815L101.021 151.796C100.698 151.693 100.37 151.601 100.043 151.51L100.009 151.501V151.466C100.009 150.889 100.009 150.311 100.009 149.733C100.009 149.168 100.009 148.602 100.009 148.037ZM103.578 149.032C103.367 148.969 103.155 148.906 102.943 148.842C102.878 149.338 102.81 149.833 102.747 150.328C102.682 150.841 102.614 151.352 102.549 151.865C102.532 151.979 102.518 152.093 102.504 152.206L102.497 152.262L102.444 152.245C102.35 152.215 102.256 152.186 102.162 152.156C101.936 152.085 101.71 152.013 101.484 151.942L101.447 151.93L101.452 151.892C101.546 151.174 101.636 150.456 101.726 149.737C101.817 149.014 101.91 148.291 102.003 147.568L102.009 147.515L102.061 147.529C102.914 147.763 103.766 148.007 104.617 148.25L104.651 148.259V148.294C104.651 149.069 104.651 149.844 104.651 150.619C104.651 151.395 104.651 152.169 104.651 152.944V153.009L104.589 152.987C104.262 152.873 103.936 152.76 103.609 152.647L103.578 152.636V152.603C103.578 152.002 103.578 151.402 103.578 150.801C103.578 150.212 103.578 149.622 103.578 149.032ZM81.1887 147.979C81.1887 148.222 81.1887 148.465 81.1887 148.707C81.1887 148.942 81.1887 149.177 81.1887 149.411C81.5279 149.322 81.8665 149.234 82.2063 149.148C82.2063 148.908 82.2063 148.667 82.2063 148.426C82.2063 148.194 82.2063 147.961 82.2063 147.728C81.8671 147.811 81.5279 147.895 81.1887 147.979ZM96.0921 147.346C96.0487 147.338 96.0052 147.331 95.9612 147.323C95.8515 147.303 95.7412 147.284 95.6315 147.265C95.6053 147.261 95.5803 147.257 95.5547 147.252C95.5524 147.269 95.5513 147.287 95.5496 147.305C95.5268 147.498 95.5018 147.691 95.4817 147.884C95.4633 148.062 95.4405 148.241 95.4215 148.419C95.69 148.467 95.9585 148.515 96.2269 148.564C96.2063 148.393 96.184 148.221 96.1662 148.049C96.1462 147.857 96.1239 147.665 96.1044 147.473C96.0999 147.43 96.0955 147.389 96.0921 147.346Z" fill="white"/>
<path d="M81.0952 152.795C80.8373 152.876 80.58 152.956 80.3221 153.036C80.3221 153.238 80.3221 153.439 80.3221 153.64C80.3221 153.842 80.3221 154.043 80.3221 154.244C80.58 154.165 80.8373 154.085 81.0952 154.005C81.0952 153.88 81.0952 153.754 81.0952 153.629C81.0117 153.654 80.9298 153.68 80.8479 153.706C80.8479 153.745 80.8479 153.784 80.8479 153.823C80.7538 153.852 80.6596 153.881 80.5677 153.909C80.5677 153.794 80.5677 153.679 80.5677 153.564C80.5677 153.449 80.5677 153.334 80.5677 153.219C80.6596 153.19 80.7538 153.161 80.8479 153.132C80.8479 153.171 80.8479 153.21 80.8479 153.249C80.9298 153.224 81.0117 153.199 81.0952 153.172C81.0952 153.046 81.0952 152.922 81.0952 152.795ZM82.5261 153.621C82.506 153.424 82.4876 153.226 82.4687 153.029C82.4509 152.831 82.4319 152.634 82.4136 152.436C82.213 152.492 82.0125 152.548 81.8142 152.603C81.7931 152.811 81.7752 153.019 81.7563 153.225C81.7385 153.433 81.7196 153.64 81.7017 153.847C81.783 153.824 81.8671 153.801 81.9513 153.779C81.959 153.681 81.9674 153.584 81.9758 153.486C82.0677 153.461 82.1601 153.436 82.252 153.41C82.2604 153.504 82.2682 153.597 82.2765 153.69C82.3584 153.667 82.4425 153.644 82.5261 153.621ZM81.9981 153.22C82.0103 153.081 82.0225 152.942 82.0348 152.802C82.086 152.787 82.1395 152.773 82.1924 152.758C82.2052 152.891 82.2169 153.023 82.2297 153.156C82.1518 153.177 82.0738 153.199 81.9981 153.22ZM83.1565 152.267C83.1565 152.471 83.1565 152.675 83.1565 152.878C83.1565 153.082 83.1565 153.285 83.1565 153.489C83.2406 153.472 83.3242 153.455 83.4105 153.438C83.4105 153.275 83.4105 153.114 83.4105 152.952C83.5069 152.932 83.6027 152.912 83.699 152.892C83.699 153.054 83.699 153.217 83.699 153.38C83.7832 153.362 83.8667 153.345 83.9525 153.328C83.9525 153.123 83.9525 152.918 83.9525 152.713C83.9525 152.508 83.9525 152.303 83.9525 152.098C83.8667 152.116 83.7832 152.134 83.699 152.152C83.699 152.311 83.699 152.47 83.699 152.629C83.6027 152.649 83.5069 152.669 83.4105 152.689C83.4105 152.53 83.4105 152.372 83.4105 152.213C83.3242 152.231 83.2406 152.249 83.1565 152.267ZM84.6548 151.947C84.6548 152.154 84.6548 152.359 84.6548 152.566C84.6548 152.772 84.6548 152.978 84.6548 153.184C84.7389 153.17 84.8247 153.155 84.911 153.141C84.911 152.976 84.911 152.812 84.911 152.648C84.9494 152.641 84.9884 152.635 85.0274 152.627C85.1032 152.779 85.1789 152.929 85.2563 153.082C85.3488 153.065 85.4429 153.049 85.5371 153.033C85.4346 152.836 85.3321 152.639 85.2324 152.443C85.3282 152.226 85.4245 152.008 85.5209 151.79C85.4307 151.806 85.3404 151.823 85.2524 151.839C85.1767 152.014 85.1009 152.188 85.0274 152.362C84.9884 152.369 84.9494 152.376 84.911 152.383C84.911 152.222 84.911 152.062 84.911 151.901C84.8247 151.916 84.7389 151.932 84.6548 151.947ZM86.8615 151.602C86.5914 151.641 86.3229 151.681 86.055 151.721C86.055 151.81 86.055 151.9 86.055 151.989C86.1447 151.975 86.2372 151.963 86.3291 151.949C86.3291 152.114 86.3291 152.278 86.3291 152.442C86.3291 152.606 86.3291 152.771 86.3291 152.934C86.4148 152.923 86.5012 152.912 86.5869 152.899C86.5869 152.735 86.5869 152.571 86.5869 152.406C86.5869 152.241 86.5869 152.076 86.5869 151.912C86.6772 151.899 86.7691 151.885 86.8615 151.872C86.8615 151.782 86.8615 151.692 86.8615 151.602ZM87.4079 152.272C87.4079 152.324 87.4079 152.375 87.4079 152.426C87.5427 152.412 87.6803 152.398 87.8173 152.384C87.8173 152.333 87.8173 152.281 87.8173 152.23C87.6803 152.244 87.5427 152.259 87.4079 152.272ZM89.2727 152.68C89.2727 152.467 89.2727 152.254 89.2727 152.041C89.2727 151.828 89.2727 151.615 89.2727 151.402C89.0025 151.42 88.7324 151.438 88.4617 151.457C88.4617 151.669 88.4617 151.881 88.4617 152.093C88.4617 152.305 88.4617 152.518 88.4617 152.729C88.548 152.724 88.6338 152.719 88.7196 152.713C88.7196 152.547 88.7196 152.379 88.7196 152.213C88.7196 152.046 88.7196 151.879 88.7196 151.712C88.8159 151.706 88.9145 151.699 89.0126 151.692C89.0126 151.86 89.0126 152.027 89.0126 152.194C89.0126 152.361 89.0126 152.528 89.0126 152.695C89.0983 152.69 89.1847 152.685 89.2727 152.68ZM90.7709 151.358C90.5047 151.362 90.2407 151.367 89.9767 151.373C89.9767 151.586 89.9767 151.8 89.9767 152.013C89.9767 152.226 89.9767 152.44 89.9767 152.653C90.2407 152.648 90.5047 152.643 90.7709 152.639C90.7709 152.547 90.7709 152.456 90.7709 152.364C90.5927 152.367 90.4144 152.37 90.2362 152.373C90.2362 152.298 90.2362 152.221 90.2362 152.145C90.327 152.143 90.4167 152.141 90.5086 152.139C90.5086 152.048 90.5086 151.956 90.5086 151.865C90.4167 151.867 90.327 151.868 90.2362 151.87C90.2362 151.794 90.2362 151.718 90.2362 151.642C90.4144 151.638 90.5927 151.636 90.7709 151.633C90.7709 151.541 90.7709 151.449 90.7709 151.358ZM92.1299 151.432C91.8598 151.414 91.5897 151.396 91.3195 151.379C91.3195 151.471 91.3195 151.563 91.3195 151.653C91.4114 151.66 91.5033 151.665 91.5958 151.671C91.5958 151.838 91.5958 152.006 91.5958 152.173C91.5958 152.34 91.5958 152.508 91.5958 152.675C91.6816 152.68 91.7679 152.685 91.8537 152.69C91.8537 152.523 91.8537 152.356 91.8537 152.189C91.8537 152.022 91.8537 151.855 91.8537 151.687C91.9456 151.693 92.0374 151.699 92.1299 151.706C92.1299 151.614 92.1299 151.523 92.1299 151.432ZM93.5402 151.546C93.2762 151.517 93.0122 151.488 92.7476 151.46C92.7476 151.672 92.7476 151.884 92.7476 152.095C92.7476 152.308 92.7476 152.519 92.7476 152.731C93.0122 152.758 93.2762 152.784 93.5402 152.811C93.5402 152.72 93.5402 152.63 93.5402 152.539C93.3619 152.522 93.1843 152.503 93.006 152.485C93.006 152.41 93.006 152.334 93.006 152.259C93.0957 152.267 93.1859 152.277 93.2778 152.287C93.2778 152.196 93.2778 152.105 93.2778 152.015C93.1859 152.006 93.0957 151.996 93.006 151.987C93.006 151.911 93.006 151.835 93.006 151.76C93.1843 151.779 93.3619 151.798 93.5402 151.817C93.5402 151.726 93.5402 151.636 93.5402 151.546ZM94.9833 151.717C94.7131 151.678 94.4447 151.638 94.1768 151.599C94.1768 151.809 94.1768 152.018 94.1768 152.228C94.1768 152.438 94.1768 152.648 94.1768 152.858C94.2626 152.87 94.3483 152.881 94.4347 152.893C94.4347 152.768 94.4347 152.642 94.4347 152.516C94.6168 152.542 94.7989 152.568 94.9833 152.593C94.9833 152.447 94.9833 152.301 94.9833 152.155C94.9833 152.009 94.9833 151.863 94.9833 151.717ZM94.4347 151.906C94.531 151.92 94.6268 151.934 94.7254 151.948C94.7254 152.062 94.7254 152.175 94.7254 152.289C94.6268 152.275 94.531 152.261 94.4347 152.247C94.4347 152.134 94.4347 152.02 94.4347 151.906ZM96.4754 151.975C96.2069 151.928 95.9413 151.879 95.6751 151.831C95.6751 152.038 95.6751 152.245 95.6751 152.452C95.6751 152.66 95.6751 152.867 95.6751 153.074C95.9413 153.121 96.2069 153.166 96.4754 153.211C96.4754 153.084 96.4754 152.957 96.4754 152.829C96.4754 152.702 96.4754 152.574 96.4754 152.447C96.2933 152.415 96.1112 152.383 95.9307 152.35C95.9307 152.281 95.9307 152.212 95.9307 152.143C96.1112 152.175 96.2933 152.208 96.4754 152.241C96.4754 152.152 96.4754 152.064 96.4754 151.975ZM95.9307 152.853C95.9307 152.774 95.9307 152.695 95.9307 152.616C96.027 152.634 96.1234 152.65 96.2192 152.667C96.2192 152.746 96.2192 152.824 96.2192 152.903C96.1234 152.886 96.027 152.869 95.9307 152.853ZM97.1711 153.343C97.4312 153.405 97.6907 153.468 97.9531 153.53C97.9531 153.327 97.9531 153.123 97.9531 152.919C97.9531 152.716 97.9531 152.512 97.9531 152.309C97.869 152.288 97.7854 152.267 97.7013 152.246C97.7013 152.413 97.7013 152.581 97.7013 152.748C97.6072 152.725 97.5147 152.703 97.4228 152.68C97.4228 152.513 97.4228 152.345 97.4228 152.177C97.3387 152.157 97.2552 152.135 97.1711 152.114C97.1711 152.242 97.1711 152.37 97.1711 152.498C97.1711 152.626 97.1711 152.753 97.1711 152.881C97.3471 152.924 97.5231 152.967 97.7013 153.01C97.7013 153.077 97.7013 153.142 97.7013 153.208C97.5231 153.166 97.3471 153.123 97.1711 153.08C97.1711 153.167 97.1711 153.255 97.1711 153.343ZM99.4246 152.67C99.1628 152.598 98.9027 152.525 98.6426 152.452C98.6426 152.655 98.6426 152.858 98.6426 153.06C98.6426 153.264 98.6426 153.466 98.6426 153.669C98.7245 153.692 98.8086 153.715 98.8927 153.737C98.8927 153.616 98.8927 153.494 98.8927 153.373C99.0687 153.422 99.2463 153.47 99.4246 153.519C99.4246 153.377 99.4246 153.236 99.4246 153.095C99.4246 152.953 99.4246 152.812 99.4246 152.67ZM98.8927 152.783C98.9868 152.809 99.0809 152.835 99.1751 152.861C99.1751 152.971 99.1751 153.081 99.1751 153.19C99.0809 153.165 98.9868 153.138 98.8927 153.113C98.8927 153.003 98.8927 152.893 98.8927 152.783ZM100.79 153.077C100.561 153.006 100.331 152.936 100.104 152.864C100.104 153.066 100.104 153.268 100.104 153.469C100.104 153.671 100.104 153.872 100.104 154.074C100.186 154.1 100.268 154.125 100.352 154.151C100.352 153.993 100.352 153.834 100.352 153.676C100.352 153.518 100.352 153.358 100.352 153.2C100.497 153.245 100.643 153.291 100.79 153.336C100.79 153.249 100.79 153.163 100.79 153.077Z" fill="white"/>
<path fill-rule="evenodd" clip-rule="evenodd" d="M86.8676 165.649C86.7166 165.649 86.5946 165.527 86.5946 165.376C86.5946 165.225 86.7166 165.103 86.8676 165.103C87.0181 165.103 87.1407 165.225 87.1407 165.376C87.1407 165.527 87.0181 165.649 86.8676 165.649Z" fill="white"/>
<path fill-rule="evenodd" clip-rule="evenodd" d="M94.0306 165.649C93.8796 165.649 93.757 165.527 93.757 165.376C93.757 165.225 93.8796 165.103 94.0306 165.103C94.181 165.103 94.3036 165.225 94.3036 165.376C94.3036 165.527 94.181 165.649 94.0306 165.649Z" fill="white"/>
<path fill-rule="evenodd" clip-rule="evenodd" d="M78.7703 154.465C78.9308 154.419 79.0606 154.27 79.0545 154.127C79.0506 153.985 78.9213 153.906 78.7603 153.95C78.6009 153.994 78.4694 154.145 78.4733 154.288C78.48 154.431 78.6098 154.51 78.7703 154.465Z" fill="white"/>
<path d="M88.1584 164.696H89.0607V165.209L88.5171 165.739H89.0607V166.012H88.1584V165.73L88.7493 165.143V164.968H88.4697V165.091H88.1584V164.696ZM89.4155 164.696H90.3172V166.012H89.4155V164.696ZM89.7268 164.968V165.739H90.0059V164.968H89.7268ZM90.6631 164.696H91.5648V166.012H90.6631V164.696ZM90.9745 164.968V165.739H91.2535V164.968H90.9745ZM92.8052 166.012H91.9035V164.696H92.8052V164.968C92.6086 164.968 92.4114 164.968 92.2148 164.968V165.222H92.8052V166.012ZM92.2148 165.485V165.739H92.4939V165.485H92.2148Z" fill="white"/>
<path fill-rule="evenodd" clip-rule="evenodd" d="M86.8676 165.649C86.7166 165.649 86.5946 165.527 86.5946 165.376C86.5946 165.225 86.7166 165.103 86.8676 165.103C87.0181 165.103 87.1407 165.225 87.1407 165.376C87.1407 165.527 87.0181 165.649 86.8676 165.649Z" fill="white"/>
<path fill-rule="evenodd" clip-rule="evenodd" d="M94.0306 165.649C93.8796 165.649 93.757 165.527 93.757 165.376C93.757 165.225 93.8796 165.103 94.0306 165.103C94.181 165.103 94.3036 165.225 94.3036 165.376C94.3036 165.527 94.181 165.649 94.0306 165.649Z" fill="white"/>
<path fill-rule="evenodd" clip-rule="evenodd" d="M86.8676 165.649C86.7166 165.649 86.5946 165.527 86.5946 165.376C86.5946 165.225 86.7166 165.103 86.8676 165.103C87.0181 165.103 87.1407 165.225 87.1407 165.376C87.1407 165.527 87.0181 165.649 86.8676 165.649Z" fill="white"/>
<path fill-rule="evenodd" clip-rule="evenodd" d="M94.0306 165.649C93.8796 165.649 93.757 165.527 93.757 165.376C93.757 165.225 93.8796 165.103 94.0306 165.103C94.181 165.103 94.3036 165.225 94.3036 165.376C94.3036 165.527 94.181 165.649 94.0306 165.649Z" fill="white"/>
<path d="M88.1584 164.696H89.0607V165.209L88.5171 165.739H89.0607V166.012H88.1584V165.73L88.7493 165.143V164.968H88.4697V165.091H88.1584V164.696ZM89.4155 164.696H90.3172V166.012H89.4155V164.696ZM89.7268 164.968V165.739H90.0059V164.968H89.7268ZM90.6631 164.696H91.5648V166.012H90.6631V164.696ZM90.9745 164.968V165.739H91.2535V164.968H90.9745ZM92.8052 166.012H91.9035V164.696H92.8052V164.968C92.6086 164.968 92.4114 164.968 92.2148 164.968V165.222H92.8052V166.012ZM92.2148 165.485V165.739H92.4939V165.485H92.2148Z" fill="white"/>
<path fill-rule="evenodd" clip-rule="evenodd" d="M86.8676 165.649C86.7166 165.649 86.5946 165.527 86.5946 165.376C86.5946 165.225 86.7166 165.103 86.8676 165.103C87.0181 165.103 87.1407 165.225 87.1407 165.376C87.1407 165.527 87.0181 165.649 86.8676 165.649Z" fill="white"/>
<path fill-rule="evenodd" clip-rule="evenodd" d="M94.0306 165.649C93.8796 165.649 93.757 165.527 93.757 165.376C93.757 165.225 93.8796 165.103 94.0306 165.103C94.181 165.103 94.3036 165.225 94.3036 165.376C94.3036 165.527 94.181 165.649 94.0306 165.649Z" fill="white"/>
</svg>
