<svg width="20" height="22" viewBox="0 0 20 22" fill="none" xmlns="http://www.w3.org/2000/svg">
<path d="M10.0044 14C11.586 14 12.8681 12.6569 12.8681 11C12.8681 9.34315 11.586 8 10.0044 8C8.42277 8 7.14062 9.34315 7.14062 11C7.14062 12.6569 8.42277 14 10.0044 14Z" stroke="white"/>
<path d="M11.6848 1.152C11.3345 1 10.8897 1 10 1C9.11033 1 8.66549 1 8.31516 1.152C8.08337 1.25251 7.87276 1.3999 7.69537 1.58572C7.51798 1.77155 7.37729 1.99218 7.28134 2.235C7.19352 2.458 7.1582 2.719 7.14484 3.098C7.13889 3.37199 7.06656 3.6399 6.93465 3.87657C6.80274 4.11324 6.61557 4.31091 6.39072 4.451C6.16247 4.58504 5.90545 4.6561 5.64379 4.6575C5.38213 4.6589 5.12442 4.59059 4.89488 4.459C4.57414 4.281 4.34218 4.183 4.11212 4.151C3.61032 4.08187 3.10284 4.22431 2.70125 4.547C2.40151 4.79 2.17813 5.193 1.7333 6C1.28846 6.807 1.06509 7.21 1.0164 7.605C0.9836 7.86545 1.0001 8.13012 1.06496 8.38389C1.12982 8.63767 1.24177 8.87556 1.39442 9.084C1.5357 9.276 1.7333 9.437 2.03972 9.639C2.49124 9.936 2.78143 10.442 2.78143 11C2.78143 11.558 2.49124 12.064 2.03972 12.36C1.7333 12.563 1.53474 12.724 1.39442 12.916C1.24177 13.1244 1.12982 13.3623 1.06496 13.6161C1.0001 13.8699 0.9836 14.1345 1.0164 14.395C1.06604 14.789 1.28846 15.193 1.73234 16C2.17813 16.807 2.40055 17.21 2.70125 17.453C2.90022 17.6129 3.12731 17.7302 3.36956 17.7981C3.6118 17.8661 3.86445 17.8834 4.11308 17.849C4.34218 17.817 4.57414 17.719 4.89488 17.541C5.12442 17.4094 5.38213 17.3411 5.64379 17.3425C5.90545 17.3439 6.16247 17.415 6.39072 17.549C6.85178 17.829 7.12575 18.344 7.14484 18.902C7.1582 19.282 7.19257 19.542 7.28134 19.765C7.37729 20.0078 7.51798 20.2284 7.69537 20.4143C7.87276 20.6001 8.08337 20.7475 8.31516 20.848C8.66549 21 9.11033 21 10 21C10.8897 21 11.3345 21 11.6848 20.848C11.9166 20.7475 12.1272 20.6001 12.3046 20.4143C12.482 20.2284 12.6227 20.0078 12.7187 19.765C12.8065 19.542 12.8418 19.282 12.8552 18.902C12.8743 18.344 13.1482 17.828 13.6093 17.549C13.8375 17.415 14.0946 17.3439 14.3562 17.3425C14.6179 17.3411 14.8756 17.4094 15.1051 17.541C15.4259 17.719 15.6578 17.817 15.8869 17.849C16.1355 17.8834 16.3882 17.8661 16.6304 17.7981C16.8727 17.7302 17.0998 17.6129 17.2988 17.453C17.5994 17.211 17.8219 16.807 18.2667 16C18.7115 15.193 18.9349 14.79 18.9836 14.395C19.0164 14.1345 18.9999 13.8699 18.935 13.6161C18.8702 13.3623 18.7582 13.1244 18.6056 12.916C18.4643 12.724 18.2667 12.563 17.9603 12.361C17.7367 12.2186 17.5513 12.019 17.4215 11.7809C17.2918 11.5428 17.2219 11.2741 17.2186 11C17.2186 10.442 17.5088 9.936 17.9603 9.64C18.2667 9.437 18.4653 9.276 18.6056 9.084C18.7582 8.87556 18.8702 8.63767 18.935 8.38389C18.9999 8.13012 19.0164 7.86545 18.9836 7.605C18.934 7.211 18.7115 6.807 18.2677 6C17.8219 5.193 17.5994 4.79 17.2988 4.547C17.0998 4.38709 16.8727 4.26981 16.6304 4.20187C16.3882 4.13392 16.1355 4.11664 15.8869 4.151C15.6578 4.183 15.4259 4.281 15.1042 4.459C14.8747 4.59042 14.6172 4.65862 14.3557 4.65722C14.0943 4.65582 13.8374 4.58486 13.6093 4.451C13.3844 4.31091 13.1973 4.11324 13.0654 3.87657C12.9334 3.6399 12.8611 3.37199 12.8552 3.098C12.8418 2.718 12.8074 2.458 12.7187 2.235C12.6227 1.99218 12.482 1.77155 12.3046 1.58572C12.1272 1.3999 11.9166 1.25251 11.6848 1.152Z" stroke="white"/>
</svg>
