<svg width="40" height="45" viewBox="0 0 40 45" fill="none" xmlns="http://www.w3.org/2000/svg">
<path d="M17.2804 12.5566C17.2854 12.0932 17.3155 11.6345 17.3705 11.1807C18.0806 11.1373 18.8107 11.1469 19.5508 11.229C20.1309 11.2918 20.691 11.3787 21.2311 11.4849C20.571 12.5421 19.7458 13.4207 18.7957 14.1932C18.3906 14.5214 17.9656 14.8304 17.5155 15.1249C17.3655 14.3911 17.2905 13.6428 17.2804 12.8897C17.2804 12.7787 17.2804 12.6676 17.2804 12.5566ZM18.0556 8.23589C18.9357 5.74968 20.411 4.05036 21.6312 4.39795C22.5313 4.65864 22.7113 5.88485 22.4063 8.6221C21.001 8.37589 19.5508 8.24555 18.0556 8.23589ZM20.2309 16.0132C21.4611 14.787 22.5863 13.4642 23.5015 12.1125C29.6524 14.2994 32.4979 19.8559 32.3079 26.8415C32.1328 33.3298 29.1774 38.4132 22.6563 40.3298C20.951 40.8222 19.1157 40.6726 17.2804 40.2526C20.891 35.9367 23.4314 29.1829 25.5318 22.0959C21.8012 21.4877 19.6208 19.798 18.4506 17.6739C19.0607 17.1428 19.6608 16.5925 20.2409 16.0132H20.2309ZM25.0817 9.24486C25.5968 8.01382 25.8918 6.78278 25.8868 5.59519C25.8768 2.75173 24.4516 0.130345 22.0612 0C17.6455 0.00965521 15.4902 4.4414 14.75 8.44831C1.56792 10.2538 -3.65793 23.0808 2.6931 28.0918C7.81892 30.1725 11.7646 27.6911 12.0496 24.2104C8.83409 24.5822 7.75892 22.6849 7.77392 20.2615C7.79392 16.1676 10.6044 13.0007 14.445 11.7456C14.445 12.1849 14.47 12.5904 14.51 12.9573C14.535 13.1649 14.555 13.3725 14.58 13.5752C14.7 14.6373 14.8101 15.6463 14.9151 16.6166C13.6449 17.2635 12.2946 17.8718 10.9144 18.5283L10.9544 22.4677C12.2696 21.9463 13.7649 21.1256 15.2801 20.0973C15.3501 20.7684 15.4151 21.4346 15.4802 22.1008C15.8902 26.2429 15.8352 29.9794 15.0301 35.6181C14.8651 36.767 14.47 38.0608 13.8299 39.2146C11.3045 38.3264 8.95411 37.3415 7.16882 37.3077C5.47855 37.2257 3.06816 37.9981 2.7181 40.2091C2.20802 43.4629 5.76359 45.2153 8.97411 44.9788C9.4992 44.9402 10.0143 44.8629 10.5094 44.7519C12.1896 44.3657 13.7099 43.5691 15.0901 42.4346C17.6705 43.6898 20.631 44.9015 23.3064 44.8147C33.328 44.4912 40.3142 36.4919 39.9891 26.5808C39.6441 18.5139 33.5681 11.7311 25.0717 9.25452L25.0817 9.24486ZM9.66922 42.5022C9.37918 42.5505 9.07913 42.5795 8.76908 42.5795C8.21399 42.4443 6.88377 42.5312 6.77876 40.914C7.0338 40.0402 7.96395 39.7891 8.96411 39.7553C9.67923 39.7312 10.9044 40.3057 12.4247 41.0733C11.6695 41.7877 10.7544 42.314 9.66922 42.5022Z" fill="#0050A0"/>
</svg>
