<svg width="50" height="50" viewBox="0 0 50 50" fill="none" xmlns="http://www.w3.org/2000/svg">
<rect x="0.5" y="0.5" width="49" height="49" rx="19.5" fill="white" stroke="#DA6713"/>
<path d="M33.8897 31.4103V31.8138L34.1697 32.1043L36.2956 34.3095C36.5098 34.5317 36.5518 34.8337 36.4416 35.1088C36.332 35.3822 36.1124 35.5385 35.8455 35.5385H14.1421C13.8773 35.5385 13.663 35.3848 13.5564 35.1143C13.4486 34.8406 13.491 34.5351 13.7085 34.3095L15.8343 32.1043L16.1144 31.8138V31.4103V22.8633C16.1144 17.9206 18.6077 14.0537 22.7688 13.031L23.5301 12.8439V12.0599V10.8975C23.5301 9.99613 24.2207 9.33337 25.002 9.33337C25.7833 9.33337 26.4739 9.99613 26.4739 10.8975V12.0599V12.8432L27.2345 13.0308C31.3805 14.0533 33.8897 17.9386 33.8897 22.8633V31.4103ZM27.0917 39.2479C26.7232 40.0941 25.9051 40.6667 25.002 40.6667C24.4052 40.6667 23.8251 40.4211 23.3914 39.9713C23.1896 39.762 23.0275 39.5163 22.9117 39.2479H27.0917Z" stroke="#DA6713" stroke-width="2"/>
</svg>
