<svg width="32" height="45" viewBox="0 0 32 45" fill="none" xmlns="http://www.w3.org/2000/svg">
<g clip-path="url(#clip0_17_491)">
<path fill-rule="evenodd" clip-rule="evenodd" d="M31.2491 16.8054C31.2735 16.8162 31.32 16.8298 31.338 16.8369C31.4128 16.8663 31.4752 16.907 31.5277 16.9688C31.647 17.1094 31.6469 17.2661 31.6394 17.4356C31.7318 17.5208 31.8875 17.6071 31.98 17.6944C32.1466 17.8511 32.2279 17.9389 32.2836 18.169C32.3163 18.304 32.3045 18.4663 32.289 18.6092C32.3611 18.6815 32.3906 18.7824 32.387 18.8869C32.3768 19.1838 32.3721 19.481 32.353 19.7779C32.3603 19.7813 32.3675 19.7847 32.3741 19.7881C32.526 19.8667 32.6211 19.9824 32.6342 20.1574C32.642 20.2617 32.5819 20.4067 32.5607 20.5072C32.8514 20.5251 33.0245 20.6631 32.9917 20.9829C32.9512 21.3787 32.6677 21.7389 32.3535 21.9654C32.1546 22.1086 31.8859 22.2697 31.8285 22.5265C31.8215 22.5576 31.8106 22.5889 31.8006 22.6198C31.8022 22.6288 31.8037 22.6378 31.8051 22.6467C31.8662 22.7157 31.916 22.794 31.941 22.8818C32.0992 22.9228 32.1809 23.0518 32.1895 23.2297C32.2031 23.5064 32.111 24.0055 32.0036 24.3024C32.0115 24.3072 32.0193 24.3119 32.0269 24.3169C32.1795 24.4151 32.2901 24.547 32.278 24.7385C32.2742 24.8007 32.2489 24.8585 32.2167 24.911C32.1991 24.9394 32.1646 24.9811 32.1393 25.016C32.1784 25.0388 32.2386 25.0692 32.2645 25.089C32.3784 25.1759 32.4291 25.2972 32.4422 25.4375C32.4754 25.7939 32.1054 26.1524 31.8499 26.3569C31.7298 26.4531 31.5896 26.5278 31.4581 26.6071C31.3801 26.6541 31.1978 26.7543 31.1408 26.8168C31.1245 26.8346 31.0664 26.885 31.0856 26.9124C31.2125 27.0933 31.2476 27.2833 31.1452 27.4733C31.2223 27.8193 31.188 28.185 31.0729 28.5187C30.9242 28.9496 30.7227 29.3594 30.5371 29.7749C30.2405 30.4389 30.0496 31.2461 29.5139 31.7672C29.2857 31.9891 29.0699 32.1436 28.7828 32.2817C28.6991 32.322 28.614 32.3594 28.5279 32.3943C28.5072 32.8132 28.279 33.2772 28.0338 33.623C28.1541 33.7398 28.2132 33.8827 28.1699 34.051C28.1434 34.1534 28.0876 34.1867 28.0351 34.2479C28.0624 34.2781 28.1184 34.3325 28.1292 34.3449C28.2247 34.4572 28.2513 34.5861 28.2383 34.731C28.1934 35.2302 27.0787 35.6898 26.6536 35.7953C26.5418 35.823 26.5228 35.8324 26.5168 35.9502C26.4988 36.3021 26.5513 36.552 26.1729 36.7385C26.1053 36.7717 26.0365 36.8025 25.9658 36.8285C25.9013 37.2272 25.6061 37.5964 25.2201 37.7235C25.1424 37.749 25.0623 37.7623 24.9816 37.77C25.0181 37.8624 25.0272 37.9593 25.0123 38.0607C24.999 38.1511 24.9677 38.2284 24.9103 38.2997C24.8791 38.3387 24.8368 38.3737 24.8086 38.4125C24.7916 38.4359 24.786 38.4569 24.786 38.4857C24.786 38.8069 25.0062 39.1071 24.814 39.4387C24.6313 39.7538 24.1979 39.9588 23.8839 40.1213C23.7995 40.1649 23.6993 40.1738 23.6057 40.1747C23.5645 40.175 23.4543 40.1688 23.3858 40.1742L23.4275 40.1741L22.9094 40.6138C21.9989 41.3866 21.1382 42.2181 20.1866 42.9418C19.8992 43.1602 19.7248 43.3037 19.3433 43.1964C19.1676 43.1469 18.9912 43.1008 18.8136 43.0584C18.1768 43.604 17.5267 44.1342 16.8612 44.6443L16.3972 45L15.9412 44.6344C15.2934 44.1149 14.6602 43.5777 14.0343 43.0323C13.8435 43.0778 13.6539 43.1302 13.468 43.1927C13.1196 43.3099 13.0208 43.1891 12.755 43.004C11.7469 42.302 10.8794 41.4354 9.94124 40.6482L9.50055 40.2785C9.24425 40.1634 8.94247 40.0073 8.75626 39.818L5.70055 36.7106L6.15045 36.6199C6.2003 36.6099 6.25031 36.6005 6.30031 36.5916L3.95883 33.6477L4.15544 33.6405C4.3034 33.635 4.45143 33.6285 4.59939 33.6241C4.41119 33.131 4.18044 32.6573 3.89025 32.2149L3.84088 32.1397C3.58553 32.0341 3.34875 31.8967 3.14341 31.7095C2.5808 31.1969 2.52222 30.4511 2.22972 29.7959C2.0351 29.3602 1.77665 28.9501 1.62044 28.4977C1.50273 28.1567 1.45899 27.7841 1.54511 27.4305L1.62354 27.1084C1.46764 26.853 1.32588 26.5899 1.19801 26.3174L0.982663 25.859L1.45542 25.9644C1.37724 25.6054 1.2827 25.2499 1.17904 24.8975C0.91575 24.0021 0.596551 23.1157 0.219678 22.2617L0 21.7637L0.5202 21.9239C0.701739 21.9797 0.881539 22.0416 1.05926 22.1092C0.912416 21.7951 0.794909 21.4447 0.721193 21.1202C0.402455 19.7187 0.772279 18.123 1.56067 16.9355L1.68021 16.7554C1.6025 15.489 1.55456 14.2206 1.5448 12.9518L1.54027 12.3405C1.88547 12.364 2.21393 12.3023 2.55429 12.2385C3.68149 12.0275 4.66281 11.5475 5.72556 11.0592C7.41974 10.2806 9.06217 9.39641 10.7138 8.53297C11.0925 8.33493 11.4712 8.13673 11.8505 7.93996L9.00311 5.3968L14.2588 4.8818L16.3712 0L18.4835 4.8818L23.7393 5.3968L20.9442 7.89315C21.6287 8.25199 22.3093 8.61838 22.9907 8.98287C24.3629 9.71669 25.7366 10.4516 27.157 11.0889C28.2379 11.5739 29.4444 12.0677 30.6239 12.2251L31.2924 12.3143L31.2704 12.9885C31.2306 14.2067 31.2221 15.4257 31.1837 16.6438C31.2045 16.6982 31.225 16.7525 31.2491 16.8054ZM15.3068 42.8172C15.6711 43.128 16.0387 43.4352 16.4109 43.7364C16.7946 43.4394 17.1729 43.1357 17.5465 42.8262C17.1539 42.7776 16.7583 42.7514 16.3628 42.7537C16.0116 42.7556 15.6571 42.7786 15.3068 42.8172Z" fill="#161413"/>
<path fill-rule="evenodd" clip-rule="evenodd" d="M5.02066 14.6719C7.15537 13.8373 9.23182 12.811 11.255 11.7366C11.7625 11.467 12.2676 11.1935 12.7713 10.9169L13.227 8.83666L12.6834 8.35116C10.0319 9.70526 7.22903 11.2207 5.05987 12.1648C3.95497 12.6457 2.97651 12.9327 2.2973 13.0071C2.30897 14.9727 2.42168 16.8646 2.56027 18.6051C2.32326 18.1187 2.12482 17.617 1.95329 17.1495C1.86725 15.7513 1.80264 14.3516 1.792 12.9494L1.78906 12.5724C2.17427 12.548 2.81284 12.4388 3.33878 12.2718C4.21357 11.994 5.17822 11.5828 5.82798 11.2843C7.52073 10.5064 9.17657 9.61557 10.8277 8.75245C11.3102 8.50022 11.7956 8.24607 12.2839 7.99437L9.58988 5.58819L14.4275 5.11411L16.3699 0.625L18.3123 5.11411L23.1499 5.58819L20.5092 7.94666C21.3006 8.35775 22.0861 8.78086 22.8723 9.20123C24.2462 9.93601 25.632 10.677 27.054 11.3149C28.1338 11.7995 29.4116 12.3134 30.5897 12.4708L31.0354 12.5302L31.0207 12.9796C30.9837 14.1135 30.9735 15.2474 30.9414 16.3809C30.8844 16.3104 30.8119 16.2581 30.7404 16.1995C30.6524 16.1274 30.557 16.0596 30.4523 16.0571C30.4729 15.1746 30.4825 14.2325 30.5239 12.9634C27.7428 12.5921 23.7299 10.1706 20.1123 8.30115L19.5128 8.83666L19.9689 10.919C20.3441 11.1195 20.7197 11.3196 21.0957 11.5186C22.276 12.143 23.4626 12.7602 24.6668 13.3377C25.678 13.8227 26.7269 14.2993 27.7877 14.6649L28.142 14.7871L28.122 15.1613C27.9478 18.4153 27.6314 21.7169 26.7541 24.8654C25.1569 30.5972 22.0545 35.2508 18.0243 39.4776C17.8145 39.4523 17.6045 39.432 17.3935 39.4169C21.7725 34.8914 24.7395 30.2437 26.2753 24.7321C27.1036 21.7596 27.4414 18.5787 27.6257 15.1348C25.5529 14.4201 22.7793 12.9799 20.1087 11.5574L20.5601 13.6187L16.3699 11.1373L12.1796 13.6187L12.6304 11.5606C10.1777 12.8976 7.64868 14.178 5.20163 15.1348C5.45635 18.5079 5.64939 21.8085 6.48576 24.7979C8.02333 30.2939 11.4508 35.5766 15.5262 39.4256C15.3086 39.4426 15.0917 39.4646 14.8753 39.4911C10.8175 35.5575 7.51208 30.3116 6.00713 24.9318C5.88124 24.4818 5.76964 24.0267 5.67026 23.5678L5.67137 23.5653L5.79409 23.2837L5.6197 23.3293C5.06709 20.6595 4.90945 17.8659 4.70601 15.1722L4.67839 14.8057L5.02066 14.6719ZM14.8724 42.7715C15.4991 43.3105 16.0225 43.7443 16.4063 44.052C16.9376 43.6446 17.461 43.2224 17.9781 42.7876C18.1881 42.822 18.397 42.8626 18.6045 42.9081C17.9858 43.4369 17.3547 43.9511 16.7087 44.4464L16.3994 44.6835L16.0954 44.4398C15.467 43.936 14.8495 43.4128 14.2406 42.8831C14.4464 42.8399 14.6588 42.8028 14.8724 42.7715Z" fill="#F6CA00"/>
<path fill-rule="evenodd" clip-rule="evenodd" d="M3.09265 19.8063C2.46162 18.9206 2.04443 17.8343 1.76955 17.0742C0.889837 18.3991 0.711124 19.9484 0.965322 21.0664C1.07303 21.5399 1.24004 21.9344 1.39522 22.2148C1.49221 21.8998 1.62326 21.5963 1.7809 21.3151C1.81829 21.2485 1.85877 21.1815 1.90179 21.1142C1.70581 20.3905 1.55254 19.0616 1.65787 18.2539C1.65835 18.7791 1.70494 19.4012 1.78701 19.9704C1.83138 19.7238 1.91219 19.4373 2.03458 19.2117C1.92886 19.5822 1.84265 20.0404 1.84583 20.3349C1.88822 20.5703 1.93695 20.7894 1.99117 20.9797C2.27993 20.5613 2.66593 20.1464 3.09265 19.8063Z" fill="#F6CA00"/>
<path fill-rule="evenodd" clip-rule="evenodd" d="M4.28946 19.2812C3.27687 19.6361 2.33136 20.6343 1.91011 21.3855C1.72985 21.707 1.59031 22.049 1.49609 22.3962C1.8486 22.5546 2.20086 22.7416 2.53019 22.9566C2.55297 22.8566 2.57925 22.7504 2.60877 22.6393C2.58313 22.3479 2.43629 21.8839 2.28024 21.516C2.46915 21.7804 2.60393 22.1495 2.66957 22.4201C2.87246 21.7162 3.18377 20.8855 3.51563 20.3469C3.14535 21.1724 2.82959 22.1573 2.64473 23.033C3.13733 23.3699 3.57119 23.7712 3.86758 24.2339C4.00792 24.1197 4.15468 24.0118 4.30549 23.9128C4.322 23.8166 4.33494 23.7215 4.34407 23.6272C4.39265 23.1269 4.30168 22.5281 4.17063 21.9398C4.00982 21.2184 4.0453 19.9944 4.28946 19.2812Z" fill="#F6CA00"/>
<path fill-rule="evenodd" clip-rule="evenodd" d="M2.46415 27.8788C2.06227 27.3725 1.72922 26.8652 1.42188 26.2109C3.13923 26.5936 3.95807 27.166 4.67728 27.7853C4.52861 28.0057 4.39979 28.24 4.28993 28.4846C3.78066 28.0081 3.10963 27.4415 2.52003 27.1168C3.04962 27.5374 3.69946 28.0647 4.23437 28.6131C4.21008 28.6713 4.18674 28.7301 4.16452 28.7894C4.01371 28.729 3.86353 28.6662 3.71486 28.5988C3.26988 28.3973 2.84951 28.1652 2.46415 27.8788Z" fill="#F6CA00"/>
<path fill-rule="evenodd" clip-rule="evenodd" d="M1.74287 26.1334C1.46427 24.7284 0.855777 23.0903 0.445312 22.1602C1.84352 22.5905 3.14638 23.3774 3.74947 24.3307C3.41737 24.6165 3.12622 24.9371 2.9073 25.2624C2.68775 25.5888 2.5171 25.9463 2.39875 26.3205C2.18269 26.2499 1.96361 26.1884 1.74287 26.1334ZM1.17994 22.8922C1.59182 23.3401 1.996 23.8019 2.35342 24.2849C2.1665 24.176 1.94623 24.0935 1.62937 24.0198C1.93583 24.1491 2.25413 24.3 2.47304 24.4502C2.64425 24.6914 2.80316 24.938 2.94469 25.1909L3.02478 25.0701C2.64735 24.4021 1.9452 23.5741 1.17994 22.8922Z" fill="#F6CA00"/>
<path fill-rule="evenodd" clip-rule="evenodd" d="M5.53723 23.5078C4.49917 23.7795 3.515 24.6337 3.03398 25.3484C2.81729 25.6704 2.65481 26.0164 2.54297 26.3709C2.91714 26.5005 3.28124 26.6576 3.62779 26.8514C3.67962 26.8804 3.7305 26.9099 3.78058 26.94C3.91116 26.4175 4.09808 25.878 4.34304 25.4319C4.17651 25.9512 4.01545 26.4801 3.89306 27.0094C4.02823 27.0949 4.15785 27.1848 4.28422 27.2788C4.45321 27.0979 4.63267 26.8582 4.78928 26.6228C4.61831 26.9672 4.51044 27.162 4.35835 27.3346C4.49639 27.44 4.63093 27.5503 4.76531 27.6651C4.91731 27.456 5.08837 27.2604 5.2791 27.0823C5.27585 26.7551 5.2414 26.4079 5.19346 26.0631C5.09162 25.3311 5.236 24.1989 5.53723 23.5078Z" fill="#F6CA00"/>
<path fill-rule="evenodd" clip-rule="evenodd" d="M5.74456 32.5508C5.69217 32.9682 5.67257 33.5038 5.69964 33.7799C5.82235 33.8115 6.36123 33.9058 6.62888 33.9813C6.61165 33.6472 6.61245 33.2886 6.62761 32.9088C6.31947 32.751 6.06238 32.6492 5.74456 32.5508ZM6.75294 34.0176C6.88343 34.0571 7.01321 34.1008 7.14188 34.1486C7.20482 34.172 7.26745 34.1964 7.32952 34.2217C7.40255 33.9734 7.49335 33.728 7.60019 33.4865C7.30825 33.2917 7.0017 33.1043 6.68682 32.9394C6.70294 33.2974 6.72032 33.6599 6.75294 34.0176Z" fill="#F6CA00"/>
<path fill-rule="evenodd" clip-rule="evenodd" d="M6.65589 36.6357L4.46094 33.8762C5.57116 33.8352 6.51302 34.0457 7.28986 34.3637C7.212 34.6579 7.15961 34.9564 7.13603 35.2577C6.72027 34.9849 6.16536 34.6895 5.631 34.4489C6.10432 34.7355 6.67685 35.1024 7.12619 35.4203C7.12222 35.5102 7.12103 35.6003 7.12246 35.6908C6.94236 35.7057 6.76464 35.7181 6.43999 35.7453C6.66201 35.7706 6.91109 35.7787 7.12484 35.783C7.13437 36.0493 7.16778 36.3174 7.22676 36.5865C7.03721 36.5944 6.84687 36.6111 6.65589 36.6357Z" fill="#F6CA00"/>
<path fill-rule="evenodd" clip-rule="evenodd" d="M8.31838 32.4922C7.43001 33.8366 7.07004 35.2275 7.37754 36.5851C7.726 36.5791 8.07136 36.6022 8.4122 36.6562C8.23543 35.9256 8.13073 34.9816 8.18296 33.8907C8.22297 34.6297 8.2944 35.4103 8.43506 36.1479C8.51086 35.8698 8.62508 35.6835 8.87424 35.2844C8.6943 35.6415 8.51165 36.1207 8.48467 36.3929C8.50546 36.4896 8.52761 36.5853 8.55118 36.6799C8.76534 36.7192 8.97782 36.7711 9.18785 36.8354C9.29739 36.6447 9.44074 36.4776 9.59909 36.3204C9.50265 36.4674 9.38065 36.6496 9.28588 36.8664C9.59552 36.9675 9.90016 37.0964 10.1984 37.2545C10.2623 37.2883 10.3247 37.3227 10.3859 37.358C10.2973 36.8776 10.1142 36.4454 9.91453 36.0857C9.67434 35.6527 9.34644 35.2748 9.06355 34.7486C8.71335 34.0972 8.44688 33.1889 8.31838 32.4922Z" fill="#F6CA00"/>
<path d="M10.3058 40.3255C9.77649 40.1404 9.18062 39.8946 8.93321 39.6429L6.19922 36.8627C9.54035 36.1899 11.4255 38.2765 11.925 38.808C12.0727 38.9651 12.2983 39.5135 12.4589 39.9429C12.2689 39.9867 12.0792 40.0305 11.8892 40.0722C11.5759 39.7269 11.1762 39.3656 10.6594 38.9895C10.6406 38.6736 10.6122 38.4401 10.475 38.0902C10.5413 38.372 10.562 38.6426 10.5371 38.9016C9.78427 38.3689 8.7951 37.8066 7.48478 37.2168C8.02342 37.5118 8.56467 37.7962 9.09545 38.1037C8.85693 38.1245 8.70644 38.1263 8.29361 38.1395C8.6523 38.1803 9.05418 38.2037 9.28651 38.2157C9.8827 38.5698 10.4633 38.9588 11.01 39.4318C10.6786 39.4569 10.0749 39.4672 9.64187 39.481C9.99057 39.5208 10.8169 39.5356 11.1398 39.5461C11.3353 39.722 11.526 39.9094 11.7113 40.1107C11.5685 40.141 11.4257 40.1699 11.2826 40.1965C11.0053 40.2481 10.6201 40.3312 10.3058 40.3255Z" stroke="#161413" stroke-width="0.0481124"/>
<path fill-rule="evenodd" clip-rule="evenodd" d="M10.3058 40.3255C9.77649 40.1404 9.18062 39.8946 8.93321 39.6429L6.19922 36.8627C9.54035 36.1899 11.4255 38.2765 11.925 38.808C12.0727 38.9651 12.2983 39.5135 12.4589 39.9429C12.2689 39.9867 12.0792 40.0305 11.8892 40.0722C11.5759 39.7269 11.1762 39.3656 10.6594 38.9895C10.6406 38.6736 10.6122 38.4401 10.475 38.0902C10.5413 38.372 10.562 38.6426 10.5371 38.9016C9.78427 38.3689 8.7951 37.8066 7.48478 37.2168C8.02342 37.5118 8.56467 37.7962 9.09545 38.1037C8.85693 38.1245 8.70644 38.1263 8.29361 38.1395C8.6523 38.1803 9.05418 38.2037 9.28651 38.2157C9.8827 38.5698 10.4633 38.9588 11.01 39.4318C10.6786 39.4569 10.0749 39.4672 9.64187 39.481C9.99057 39.5208 10.8169 39.5356 11.1398 39.5461C11.3353 39.722 11.526 39.9094 11.7113 40.1107C11.5685 40.141 11.4257 40.1699 11.2826 40.1965C11.0053 40.2481 10.6201 40.3312 10.3058 40.3255Z" fill="#F6CA00"/>
<path fill-rule="evenodd" clip-rule="evenodd" d="M4.14062 32.1445C4.44868 32.626 4.69371 33.143 4.90056 33.7205C5.1009 33.7226 5.27997 33.7381 5.54874 33.7785C5.52294 33.3999 5.53866 32.9389 5.61025 32.499C5.13996 32.3713 4.62045 32.2998 4.14062 32.1445Z" fill="#F6CA00"/>
<path d="M1.7848 27.4883C1.70963 27.7971 1.75004 28.1158 1.85354 28.4157C1.98673 28.8013 2.22446 29.1779 2.45481 29.6936C2.71738 30.2816 2.80929 31.0697 3.30896 31.5249C3.92197 32.0834 4.72723 32.0977 5.57631 32.3291C6.25004 32.5127 6.95061 32.8773 7.66022 33.3477C7.73832 33.1816 7.82389 33.0174 7.91628 32.8552C7.6099 31.995 7.22501 30.9971 7.04713 30.6313C6.73741 29.9945 6.10328 29.7131 5.48987 29.46C4.39529 29.0084 2.9201 28.6341 1.7848 27.4883Z" stroke="#161413" stroke-width="0.0481124"/>
<path fill-rule="evenodd" clip-rule="evenodd" d="M5.81559 26.8398C5.04422 27.3689 4.57742 28.1156 4.30469 28.8445C4.57242 28.949 4.84198 29.0473 5.11042 29.1496C5.16464 28.6358 5.26798 28.1035 5.43626 27.6476C5.35268 28.1598 5.27536 28.6799 5.23115 29.1959C5.33744 29.237 5.44332 29.2792 5.54897 29.3228C5.87036 29.4553 6.15611 29.5855 6.40328 29.7386C6.34423 29.6037 6.28676 29.4635 6.2339 29.3159C5.9845 28.6198 5.83917 27.5479 5.81559 26.8398Z" fill="#F6CA00"/>
<path fill-rule="evenodd" clip-rule="evenodd" d="M1.7848 27.4883C1.70963 27.7971 1.75004 28.1158 1.85354 28.4157C1.98673 28.8013 2.22446 29.1779 2.45481 29.6936C2.71738 30.2816 2.80929 31.0697 3.30896 31.5249C3.92197 32.0834 4.72723 32.0977 5.57631 32.3291C6.25004 32.5127 6.95061 32.8773 7.66022 33.3477C7.73832 33.1816 7.82389 33.0174 7.91628 32.8552C7.6099 31.995 7.22501 30.9971 7.04713 30.6313C6.73741 29.9945 6.10328 29.7131 5.48987 29.46C4.39529 29.0084 2.9201 28.6341 1.7848 27.4883Z" fill="#D91521"/>
<path fill-rule="evenodd" clip-rule="evenodd" d="M30.8979 27.5C30.9731 27.8088 30.943 28.1382 30.8396 28.4378C30.7066 28.8233 30.5422 29.1581 30.3118 29.6738C30.0493 30.2616 29.8267 31.118 29.3423 31.5892C29.1091 31.8159 28.9323 31.935 28.6768 32.058C28.1341 32.319 27.4986 32.4632 26.9175 32.6039C26.2176 32.7733 25.3309 33.1238 24.4727 33.6771C24.8525 32.8273 25.586 31.0252 25.751 30.6535C26.1129 29.838 26.6634 29.6827 27.2768 29.4296C28.3503 28.9991 29.7732 28.6142 30.8979 27.5Z" fill="#D91521"/>
<path fill-rule="evenodd" clip-rule="evenodd" d="M20.3711 39.9366C20.3965 39.5547 20.4022 39.1425 20.6107 38.9047C20.7954 38.6939 21.1467 38.9189 21.3393 38.7452C21.5151 38.5865 21.4339 37.9188 21.8001 37.4889C21.9492 37.314 22.2704 37.4532 22.4952 37.4052C22.7979 37.3406 22.8343 37.0089 23.09 36.9782C23.3388 36.9484 23.4773 37.256 23.7183 37.1876C23.8588 37.1478 23.9696 36.9871 24.1122 36.851C24.2548 36.7146 24.4293 36.6027 24.5635 36.6598C24.7593 36.7431 24.797 36.9416 24.7701 37.1371C24.7431 37.3326 24.6099 37.4838 24.6392 37.6565C24.6583 37.7685 24.7947 37.8213 24.7647 38.0249C24.7333 38.2379 24.5357 38.203 24.5357 38.486C24.5357 38.7715 24.721 39.1011 24.5972 39.3145C24.4594 39.5522 24.098 39.7301 23.7679 39.9009C23.6667 39.9533 23.3358 39.902 23.2275 39.9597C23.0497 40.0544 22.9116 40.173 22.7748 40.2755L22.7465 40.2755C22.3136 40.2767 21.9017 40.2667 21.4767 40.1853C21.8395 39.9025 22.2057 39.5789 22.5966 39.1864C22.9806 39.2145 23.6009 39.1933 23.9687 39.136C23.6818 39.1432 23.0209 39.1581 22.6854 39.0965C23.1679 38.6037 23.6898 38.0049 24.2899 37.2492C23.9179 37.6513 23.5559 38.0599 23.1813 38.459C23.2088 38.1993 23.2288 38.0107 23.261 37.7007C23.1671 38.0341 23.1175 38.364 23.0563 38.5914C22.7804 38.8814 22.4962 39.1654 22.1951 39.4373C22.1923 39.1105 22.2272 38.4889 22.2451 38.0459C22.1792 38.3958 22.1033 39.2374 22.07 39.5486C21.8356 39.7544 21.5905 39.9523 21.3304 40.1402C21.2513 39.8659 21.1978 39.6805 21.1059 39.3641C21.1377 39.6478 21.1964 39.9177 21.2323 40.1348C20.9443 40.073 20.6577 40.0051 20.3711 39.9366Z" fill="#F6CA00"/>
<path fill-rule="evenodd" clip-rule="evenodd" d="M27.1242 32.7064C26.8447 33.2135 26.4783 33.8006 26.1246 34.3265C26.0377 33.9837 25.9534 33.7023 25.8448 33.4726C25.9287 33.771 26.007 34.0891 26.0633 34.4172C25.9378 34.6021 25.8145 34.7781 25.6982 34.9389C25.6955 34.9178 25.6915 34.8957 25.6859 34.8725C25.6384 34.6771 25.5237 34.6321 25.4423 34.4761C25.3886 34.3731 25.4262 34.0333 25.4144 33.8972C25.3954 33.6763 25.3347 33.5027 25.1445 33.4522C25.7158 33.1464 26.3363 32.8969 26.949 32.7487L27.1242 32.7064ZM28.2778 32.3828C28.2565 32.8131 27.9704 33.2989 27.7628 33.5693C27.6317 33.7399 27.9825 33.7754 27.9273 33.989C27.9066 34.0692 27.7534 34.1135 27.7718 34.2596C27.7983 34.4705 28.0129 34.4416 27.9889 34.7088C27.9658 34.9666 27.1513 35.4153 26.5918 35.5541C26.435 35.593 26.2813 35.6527 26.2667 35.9375C26.2543 36.1819 26.3217 36.3872 26.0612 36.5156C25.9966 36.5473 25.9376 36.5737 25.879 36.5956C25.8711 36.4484 25.819 36.327 25.6831 36.2086C25.5273 36.073 25.3887 35.917 25.3719 35.743C25.4904 35.5048 25.6102 35.2521 25.7792 34.9966C26.2842 34.9286 26.8159 34.9079 27.2649 34.8157C26.7769 34.8361 26.2914 34.8775 25.8595 34.8796C26.0317 34.6312 26.2408 34.3227 26.4504 33.9899C26.6265 33.9187 26.8298 33.8393 27.0312 33.7414C26.8218 33.802 26.6696 33.8463 26.5114 33.8924C26.7529 33.5031 26.9904 33.0861 27.1679 32.6959C27.5395 32.6061 27.9165 32.5119 28.2778 32.3828Z" fill="#F6CA00"/>
<path fill-rule="evenodd" clip-rule="evenodd" d="M22.5333 37.2351C22.4954 36.9887 22.4793 36.7547 22.5196 36.5981C22.5551 36.461 22.7983 36.3803 22.8788 36.2385C22.9955 36.0326 22.7805 35.491 22.8036 35.2697C22.8361 34.9586 23.1564 35.0482 23.3554 34.9838C23.5995 34.905 23.4574 34.6214 23.647 34.5284C23.866 34.4209 23.8146 34.6999 24.0415 34.5585C24.1422 34.4958 24.2539 34.2284 24.2953 34.1083C24.3388 33.9823 24.4498 33.9404 24.5214 33.8826C24.715 33.7259 24.9056 33.5902 25.0005 33.5864C25.2129 33.5779 25.2507 33.6988 25.2689 33.9097C25.2858 34.1059 25.2321 34.3895 25.3131 34.5446C25.3998 34.7109 25.5062 34.7516 25.544 34.9072C25.5906 35.0992 25.4854 35.1904 25.3703 35.3323C25.0423 35.7364 25.3262 36.0927 25.588 36.3207C25.7438 36.4562 25.7457 36.5889 25.7264 36.7542C25.6797 37.1528 25.3732 37.4114 25.1436 37.4869C25.0433 37.5199 24.9222 37.5269 24.798 37.532C24.827 37.4193 24.9025 37.289 24.9206 37.1567C24.9566 36.8946 24.8875 36.6337 24.6249 36.5219C24.4349 36.441 24.2344 36.5521 24.0839 36.678C24.2221 36.328 24.3729 35.924 24.5047 35.5095C24.6526 35.3817 24.8273 35.2356 24.9933 35.0712C24.8117 35.1979 24.6807 35.2897 24.5433 35.3857C24.6576 35.0138 24.7544 34.637 24.8113 34.2861C24.6323 35.0492 24.2584 36.041 23.9177 36.8414C23.8846 36.8768 23.8483 36.9148 23.8127 36.9485C23.7087 36.3865 23.6255 35.9558 23.4886 35.6249C23.5891 36.065 23.6757 36.5457 23.6987 37.0364C23.6923 37.0394 23.6863 37.0419 23.6806 37.0435C23.5508 37.0802 23.3631 36.7949 23.0751 36.8295C22.7806 36.8648 22.7137 37.1426 22.5333 37.2351Z" fill="#F6CA00"/>
<path fill-rule="evenodd" clip-rule="evenodd" d="M28.1758 26.5033C28.1764 26.3381 28.2009 26.1853 28.2739 26.0605C28.4156 25.8188 28.803 25.9735 28.9594 25.7665C29.1021 25.5775 28.8963 24.937 29.175 24.4458C29.2885 24.2459 29.606 24.2842 29.8176 24.1947C30.1026 24.0743 29.9398 24.0728 30.1775 23.9745C30.4476 23.8631 30.477 23.6736 30.6462 23.5946C30.7438 23.5492 30.8541 23.7144 31.1259 23.4148C31.2582 23.269 31.4743 23.181 31.6171 23.1525C31.7618 23.1237 31.9298 23.0466 31.9394 23.2435C31.9488 23.4351 31.8597 24.0325 31.735 24.3014C31.6445 24.4965 32.042 24.5046 32.0282 24.7247C32.0231 24.8073 31.8285 24.943 31.874 25.0829C31.9398 25.285 32.1679 25.1951 32.193 25.4622C32.2099 25.6448 32.0116 25.9093 31.6927 26.1645C31.548 26.2804 31.065 26.5308 30.9554 26.6508C30.8387 26.7786 30.7771 26.9096 30.8802 27.0566C31.0519 27.3014 30.8933 27.4457 30.662 27.6205C30.6124 27.4522 30.5346 27.2961 30.4176 27.1565C30.3754 27.1062 30.1976 26.9475 30.1798 26.9141C30.1636 26.8678 30.1774 26.6634 30.1604 26.5774C30.1486 26.5175 30.129 26.4649 30.1029 26.4183C30.4869 26.357 31.0625 26.2439 31.3292 26.139C30.9279 26.2271 30.3669 26.3023 30.0244 26.3142C29.9892 26.2786 29.9485 26.2484 29.9034 26.2231C30.2798 25.6246 31.1873 24.5566 31.5749 24.121C31.1657 24.4998 30.0862 25.5931 29.7952 26.1745C29.7589 26.1616 29.7209 26.1507 29.6813 26.1421C29.429 26.0867 28.9646 26.2303 28.7202 26.3095C28.5369 26.3689 28.3557 26.4347 28.1758 26.5033Z" fill="#F6CA00"/>
<path fill-rule="evenodd" clip-rule="evenodd" d="M28.8433 22.5346C28.8394 22.4831 28.8386 22.4326 28.8419 22.3837C28.8593 22.4472 28.8725 22.4992 28.8433 22.5346ZM29.8815 20.4503C29.9116 20.241 29.9865 20.0534 30.1224 19.9727C30.3882 19.8145 30.5416 19.8562 30.7638 19.7265C31.016 19.5794 30.8935 19.419 31.0504 19.3179C31.1407 19.2596 31.2832 19.3766 31.4696 19.1376C31.5907 18.9824 31.6674 18.8793 31.8051 18.8317C31.9444 18.7835 32.1436 18.6809 32.1368 18.8779C32.1303 19.0665 32.1233 19.4812 32.0994 19.8172C32.0841 20.0314 32.3682 19.9556 32.3846 20.1754C32.3908 20.2578 32.2584 20.5346 32.3227 20.667C32.4154 20.8583 32.7776 20.6165 32.7426 20.9571C32.719 21.1879 32.5594 21.509 32.2064 21.7633C32.0363 21.8858 31.7194 22.0749 31.6076 22.3907C31.5448 22.2782 31.4604 22.1819 31.3569 22.0936C31.3077 22.0517 31.0266 21.8673 31.0003 21.8334C30.9981 21.813 30.9964 21.7928 30.9951 21.7725C31.3407 21.6083 31.7938 21.3738 32.0016 21.2155C31.7054 21.3743 31.3038 21.5538 30.9891 21.6711C30.9876 21.6503 30.986 21.6297 30.9834 21.6094C31.1843 20.9035 31.476 20.0008 31.6241 19.5691C31.512 19.8153 31.3349 20.2583 31.1645 20.7321C31.0556 20.5462 30.9792 20.4255 30.8392 20.1855C30.9357 20.4443 31.0415 20.6547 31.1248 20.8438C31.0554 21.0403 30.9881 21.2397 30.9278 21.4308C30.9201 21.4178 30.9116 21.4049 30.9018 21.3923C30.8523 21.3288 30.7878 21.2929 30.7128 21.2685C30.6932 21.2621 30.6227 21.2446 30.6037 21.2335C30.5301 21.0979 30.4886 20.9625 30.4041 20.825C30.3008 20.6568 30.0925 20.4503 29.8815 20.4503ZM31.7038 22.9747C31.71 23.0118 31.7068 23.0478 31.6959 23.0834L31.6966 23.0723C31.6986 23.0399 31.7012 23.0076 31.7038 22.9747Z" fill="#F6CA00"/>
<path fill-rule="evenodd" clip-rule="evenodd" d="M28.9534 24.578C28.9378 24.5386 28.9257 24.5007 28.9181 24.4652C28.8883 24.3268 29.0696 24.1457 29.0781 23.9828C29.0903 23.7465 28.6555 23.3584 28.5771 23.1503C28.4666 22.8576 28.7931 22.7942 28.9423 22.6476C29.1253 22.4679 28.8712 22.2778 28.9991 22.1098C29.1468 21.9156 29.2259 22.188 29.3653 21.9601C29.4272 21.8589 29.4285 21.6539 29.4117 21.5281C29.3943 21.3961 29.4747 21.2287 29.5126 21.1408C29.5635 21.0229 29.6881 20.6847 29.7874 20.6298C29.942 20.5271 30.1664 20.7239 30.277 20.9039C30.3801 21.0717 30.3994 21.1718 30.475 21.3099C30.5335 21.4168 30.7007 21.3778 30.7842 21.485C30.8533 21.5735 30.8303 21.6631 30.8528 21.8569C30.8673 21.9818 31.0697 22.0455 31.2602 22.208C31.3745 22.3055 31.488 22.4324 31.5447 22.6257C31.5778 22.738 31.5626 22.8577 31.5512 23.0133C31.3582 23.0594 31.1472 23.1683 31.0156 23.3135C30.7808 23.572 30.7831 23.3651 30.5833 23.4584C30.4985 23.4979 30.4416 23.5555 30.3878 23.6155C30.3814 23.4948 30.3721 23.3664 30.3607 23.2336C30.476 23.0467 30.6326 22.8194 30.7692 22.5697C30.5971 22.7861 30.4848 22.9277 30.3485 23.0999C30.2831 22.4109 30.1665 21.6425 30.0894 21.274C30.1471 21.7978 30.2548 22.9763 30.2842 23.7271C30.2399 23.7693 30.1888 23.8074 30.1207 23.8356C30.0379 23.8698 29.9687 23.903 29.9086 23.9707C29.8727 24.0114 29.808 24.0357 29.7596 24.0561C29.5227 24.1563 29.2037 24.0919 29.0454 24.3711C29.0073 24.4383 28.9773 24.5075 28.9534 24.578Z" fill="#F6CA00"/>
<path fill-rule="evenodd" clip-rule="evenodd" d="M29.3979 21.0326C29.2052 20.876 29.0483 20.6773 28.9324 20.5673C28.6702 20.3183 28.8358 20.506 28.6777 20.2664C28.5521 20.076 28.7115 19.8194 28.891 19.6922C29.0083 19.609 29.0731 19.4851 29.0816 19.4031C29.1057 19.1679 28.8141 18.9093 28.7269 18.6312C28.6519 18.3916 28.8067 17.9039 29.3192 17.8209C29.4716 17.7962 29.4279 17.5156 29.5143 17.4337C29.7622 17.199 30.016 17.5395 29.9971 17.1045C29.9913 16.9716 30.0431 16.8085 30.0853 16.7226C30.1418 16.6074 30.2831 16.2756 30.3849 16.2258C30.4719 16.1738 30.5547 16.2387 30.6473 16.3146C30.7241 16.3774 30.8144 16.4397 30.8604 16.5235C30.9552 16.6961 30.9695 16.7973 31.0382 16.9388C31.0914 17.0485 31.2506 17.0252 31.3384 17.1286C31.4031 17.2048 31.3968 17.288 31.3887 17.4827C31.3835 17.6082 31.6276 17.7027 31.8098 17.8743C31.9191 17.9772 31.9949 18.0308 32.0422 18.2266C32.0655 18.3226 32.0538 18.4686 32.0382 18.6125C31.9727 18.6147 31.9059 18.6363 31.8453 18.6583C31.8163 18.6689 31.7875 18.6803 31.7583 18.6904C31.5725 18.7546 31.4702 18.8965 31.3541 19.0454C31.2083 19.2322 31.1315 19.0889 30.9715 19.1922C30.7557 19.3313 30.8764 19.4889 30.6905 19.5973C30.6213 19.6377 30.5549 19.6599 30.4779 19.6802L30.431 19.6927C30.4722 19.4115 30.5053 19.0394 30.5295 18.655C30.6698 18.4792 30.8675 18.2583 31.0358 18.0231C30.838 18.2182 30.6967 18.3577 30.5378 18.5149C30.5722 17.9115 30.5847 17.3011 30.5723 16.9838C30.5455 17.4501 30.4714 18.4502 30.3879 19.1949C30.143 18.9374 29.8323 18.6372 29.5931 18.5195C29.8839 18.7624 30.1707 19.0845 30.371 19.3408C30.354 19.4834 30.3368 19.6135 30.3195 19.7246C30.228 19.7531 30.1444 19.7868 30.0481 19.844C29.8403 19.9675 29.7549 20.2381 29.7281 20.4914C29.7224 20.4947 29.7167 20.498 29.711 20.5017C29.5736 20.5842 29.4679 20.8624 29.3979 21.0326Z" fill="#F6CA00"/>
<path fill-rule="evenodd" clip-rule="evenodd" d="M27.2183 29.2919C27.2097 29.1873 27.208 29.1074 27.2166 29.0697C27.2639 28.8615 27.5476 28.8343 27.6911 28.6365C27.8172 28.4626 27.7208 28.2628 27.6158 28.0113C27.4807 27.688 27.3171 27.2929 27.4482 26.9021C27.4805 26.5909 27.6647 26.8483 27.8636 26.7839C27.9262 26.7636 28.536 26.5059 29.0482 26.3661C28.9412 26.868 28.8153 27.3744 28.6778 27.8856C28.4403 27.5847 28.087 27.1887 27.8292 26.9801C28.0307 27.1952 28.4809 27.7125 28.6464 28.0015C28.5712 28.2781 28.4929 28.5561 28.4122 28.8357C28.0161 28.9916 27.6157 29.1326 27.2192 29.2916L27.2183 29.2919ZM29.0605 26.3628C29.304 26.2971 29.5242 26.2586 29.6511 26.2866C30.161 26.3986 29.9839 26.7985 30.0415 26.9636C30.0859 27.0909 30.3771 27.1942 30.5164 27.647C30.0621 28.035 29.5522 28.3344 29.0042 28.5859C28.8551 28.6542 28.7048 28.7181 28.5537 28.7793C28.5824 28.6649 28.6108 28.5475 28.6393 28.4267C28.9592 28.2133 29.5392 27.7915 29.7935 27.5077C29.573 27.6943 28.9816 28.1131 28.6756 28.272C28.7414 27.9871 28.8069 27.6837 28.8725 27.3583C29.0153 27.183 29.2153 26.9683 29.3966 26.7251C29.1958 26.9157 29.0649 27.0404 28.9056 27.1921C28.9572 26.9302 29.009 26.6542 29.0605 26.3628Z" fill="#F6CA00"/>
<path fill-rule="evenodd" clip-rule="evenodd" d="M16.3694 1.87891L14.7669 5.58248L10.7656 5.97463L13.7742 8.66164L12.9091 12.6111L16.3694 10.562L19.8298 12.6111L18.9647 8.66164L21.9733 5.97463L17.972 5.58248L16.3694 1.87891Z" fill="#D91521"/>
<path fill-rule="evenodd" clip-rule="evenodd" d="M16.4168 4.07422L16.3131 7.61029L12.8359 6.63708L16.2178 7.89937L14.2394 10.7827L16.4256 8.04526L18.5274 10.7158L16.6417 7.88286L19.8306 6.72894L16.5716 7.63521L16.4168 4.07422Z" fill="#F6CA00"/>
<path fill-rule="evenodd" clip-rule="evenodd" d="M10.1016 40.4573C11.0288 41.2354 11.8505 42.0703 12.8975 42.7995C13.099 42.9398 13.1408 43.0402 13.3894 42.9565C14.1512 42.7003 15.3823 42.5101 16.3619 42.5046C17.3726 42.4988 18.4172 42.677 19.4111 42.9565C19.6999 43.0377 19.8165 42.9108 20.0367 42.7434C20.9831 42.0236 21.8423 41.1935 22.7492 40.4237C22.2724 40.4251 21.8614 40.4145 21.4037 40.3216C19.965 40.0295 18.4971 39.5123 16.3908 39.5359C14.2845 39.5597 12.4723 40.127 11.3107 40.3433C10.83 40.4329 10.4197 40.5105 10.1016 40.4573Z" fill="#D91521"/>
<path fill-rule="evenodd" clip-rule="evenodd" d="M4.96811 14.5331C7.10274 13.6985 9.16403 12.6792 11.1869 11.6049C11.6738 11.3463 12.1586 11.0839 12.642 10.8188L13.0645 8.88989L12.6599 8.52849C12.1461 8.79281 11.6357 9.05999 11.1287 9.32502C9.46772 10.1934 7.80243 11.0888 6.0996 11.8714C5.72098 12.0454 5.26473 12.2509 4.78245 12.4436C3.99806 12.7566 3.22598 13.0225 2.44922 13.138C2.46351 14.8311 2.54526 16.4728 2.67456 18.1607C2.69481 18.4239 2.71616 18.6866 2.73814 18.9495C2.88134 19.2155 3.03715 19.4732 3.20812 19.7135C3.53951 19.4644 3.89178 19.2632 4.23952 19.1413L4.52948 19.0397L4.42994 19.3303C4.19515 20.0161 4.15785 21.2007 4.31548 21.908C4.43725 22.4545 4.54623 23.0825 4.49178 23.6424C4.48646 23.6979 4.47987 23.753 4.47209 23.8083C4.7988 23.6117 5.14059 23.4579 5.47642 23.3673C4.91842 20.6829 4.76459 17.9055 4.55909 15.1835L4.52313 14.707L4.96811 14.5331ZM12.608 39.9087C12.8939 39.843 13.1802 39.7784 13.4673 39.721C13.8731 39.6402 14.2797 39.57 14.6882 39.5152C10.6472 35.5703 7.3669 30.3395 5.86528 24.972C5.75876 24.5911 5.66248 24.2075 5.57517 23.8219C5.35292 24.4865 5.25259 25.4099 5.34029 26.0404C5.38046 26.3294 5.41554 26.6398 5.4257 26.9494C5.52278 26.8674 5.62454 26.7897 5.73114 26.7167L5.95545 26.5628L5.9645 26.8347C5.98934 27.5802 6.12309 28.5646 6.37423 29.2654C6.45305 29.4852 6.54799 29.6966 6.64585 29.9065C6.74214 29.9817 6.83096 30.0629 6.91176 30.1524C7.12576 30.3888 7.25609 30.6975 7.41151 31.0943C7.5601 31.4732 7.87569 32.299 8.01698 32.6973L8.39782 32.0991L8.46489 32.4629C8.5911 33.146 8.87217 34.0757 9.19475 34.6757C9.44763 35.146 9.78887 35.5498 10.0449 36.0111C10.2949 36.4618 10.4781 36.9493 10.5532 37.4555C11.1128 37.8018 11.5704 38.2124 12.0344 38.7061C12.2129 38.8961 12.445 39.4645 12.608 39.9087ZM15.0701 42.7445C15.5116 43.1238 15.9581 43.498 16.41 43.8624C16.8755 43.5035 17.3331 43.1344 17.7839 42.7573C17.3117 42.6885 16.8356 42.6509 16.3627 42.6536C15.9684 42.6559 15.5203 42.6867 15.0701 42.7445ZM20.2257 39.9001C20.2486 39.5268 20.2612 39.0787 20.5008 38.8053C20.7376 38.5351 21.1235 38.7401 21.2416 38.6334C21.2883 38.5913 21.3406 38.2582 21.3542 38.1889C21.4111 37.9003 21.4941 37.6197 21.6888 37.3912C21.8821 37.1644 22.1565 37.2777 22.3858 37.268C22.3448 37.0039 22.3272 36.7444 22.3746 36.5605C22.4312 36.3411 22.6749 36.294 22.7485 36.1646C22.8195 36.0393 22.6329 35.4634 22.6547 35.254C22.6671 35.1352 22.7149 35.0298 22.8145 34.9597C22.9835 34.8406 23.1444 34.8949 23.3089 34.8417C23.4279 34.8032 23.3244 34.5199 23.5807 34.3942C23.6624 34.3533 23.7805 34.3489 23.838 34.402C23.858 34.4205 23.8769 34.4334 23.8944 34.4414L23.9009 34.4338C23.9467 34.3814 23.9984 34.3469 24.0524 34.3244L24.1531 34.1048C24.1955 33.9415 24.2607 33.7786 24.3353 33.6155C24.5292 33.1818 24.713 32.742 24.8965 32.3038C25.1344 31.7355 25.3638 31.1547 25.6135 30.5921C25.9508 29.8322 26.3962 29.6299 27.0721 29.3513C27.0597 29.2137 27.0572 29.0996 27.0717 29.0356C27.1385 28.7414 27.4381 28.7309 27.5709 28.548C27.6583 28.4273 27.5277 28.1848 27.4788 28.0678C27.3192 27.6857 27.1703 27.2831 27.3023 26.8689C27.3161 26.7606 27.3553 26.651 27.467 26.609C27.609 26.5557 27.7379 26.667 27.8181 26.641C27.8867 26.6181 27.9589 26.588 28.0295 26.5592C28.025 26.3508 28.0504 26.1487 28.1475 25.9828C28.3291 25.6728 28.7468 25.8014 28.8427 25.6744C28.8806 25.6241 28.8691 25.2873 28.8694 25.2165C28.8701 25.0777 28.877 24.9395 28.8994 24.8049C28.8397 24.6954 28.7949 24.5902 28.7745 24.4954C28.7271 24.275 28.9236 24.1236 28.9314 23.974C28.9388 23.8302 28.5141 23.3988 28.4399 23.2018C28.3978 23.0902 28.3933 22.9742 28.4509 22.867C28.5162 22.7454 28.613 22.6944 28.7067 22.638C28.6828 22.4526 28.6872 22.2712 28.7538 22.1107C28.853 21.8715 29.1048 21.8412 29.2667 21.791C29.2783 21.7078 29.2735 21.601 29.2661 21.5466C29.2493 21.4193 29.2892 21.2948 29.3373 21.1769C29.1535 21.0314 29.0064 20.843 28.83 20.6756C28.7878 20.6356 28.674 20.5425 28.6418 20.4959C28.6119 20.4527 28.5844 20.3957 28.5536 20.3489C28.3739 20.0765 28.5715 19.7362 28.805 19.5709C28.856 19.5348 28.9268 19.4534 28.9335 19.3882C28.9445 19.2805 28.791 19.0688 28.7347 18.9787C28.6753 18.8835 28.6187 18.7837 28.5849 18.6761C28.526 18.4882 28.5776 18.2602 28.6738 18.0933C28.8052 17.8649 29.0227 17.7226 29.2797 17.6767C29.3224 17.6022 29.2978 17.434 29.412 17.3257C29.5 17.2424 29.6017 17.1991 29.7222 17.1928C29.7536 17.1912 29.8084 17.1966 29.8472 17.1966C29.8503 17.1677 29.8492 17.1284 29.8484 17.1112C29.8422 16.9677 29.8888 16.7853 29.9517 16.6571C30.0272 16.5035 30.1528 16.1905 30.3043 16.1003C30.3299 15.0979 30.3414 14.095 30.3725 13.0921C29.1657 12.9073 27.8926 12.3987 26.7912 11.9045C25.3556 11.2603 23.9567 10.513 22.5693 9.77103C21.7603 9.33835 20.9519 8.90266 20.1371 8.48047L19.6788 8.88989L20.1015 10.8199C20.4564 11.0096 20.8115 11.1987 21.1672 11.3868C22.3462 12.0106 23.5301 12.6263 24.733 13.2032C25.7455 13.689 26.7754 14.1577 27.838 14.524L28.2987 14.6828L28.2727 15.1693C28.0976 18.44 27.7814 21.7406 26.8995 24.9055C25.3054 30.626 22.2116 35.2853 18.2096 39.5009C18.5315 39.5442 18.8533 39.599 19.1769 39.6641C19.5285 39.7348 19.8773 39.8169 20.2257 39.9001Z" fill="#D91521"/>
<path fill-rule="evenodd" clip-rule="evenodd" d="M5.35938 15.2353C5.59607 18.392 5.77554 21.7046 6.63017 24.7597C8.15377 30.206 11.5706 35.5209 15.7295 39.4132C15.9484 39.3994 16.1679 39.3911 16.3881 39.3886C16.6609 39.3855 16.9305 39.3916 17.1985 39.4064C21.3288 35.1583 24.5175 30.4898 26.1325 24.6939C26.9866 21.6289 27.2989 18.4096 27.4716 15.2406C26.4232 14.8718 25.3882 14.4019 24.3882 13.9222C23.1764 13.3408 21.9822 12.72 20.7943 12.0915C20.6376 12.0085 20.4807 11.9254 20.3241 11.8422L20.78 13.9235L16.3707 11.3125L11.9614 13.9235L12.4157 11.8492C12.1308 12.0037 11.8453 12.1569 11.559 12.309C9.54601 13.3782 7.48147 14.3988 5.35938 15.2353Z" fill="#D91521"/>
<path fill-rule="evenodd" clip-rule="evenodd" d="M5.35938 15.2353C5.59607 18.392 5.77554 21.7046 6.63017 24.7597C7.31652 27.2131 8.38721 29.6399 9.73675 31.922V13.2527C8.30443 13.9729 6.84615 14.6493 5.35938 15.2353ZM14.2252 37.9088C14.7138 38.4303 15.216 38.9326 15.7295 39.4132C15.9484 39.3994 16.1679 39.3911 16.3881 39.3886C16.6609 39.3855 16.9305 39.3916 17.1985 39.4064C17.6497 38.9423 18.0896 38.473 18.5175 37.998V12.5838L16.3707 11.3125L14.2252 12.583V37.9088ZM23.0059 31.9783C24.3347 29.7394 25.3969 27.3337 26.1325 24.6939C26.9866 21.6289 27.2989 18.4096 27.4716 15.2406C26.4232 14.8718 25.3882 14.4019 24.3882 13.9222C23.9251 13.7 23.4645 13.4722 23.0059 13.2403V31.9783Z" fill="#293484"/>
<path fill-rule="evenodd" clip-rule="evenodd" d="M12.8859 9.70079L8.77496 11.8179C8.12099 12.1497 7.46464 12.4772 6.79931 12.7857C5.87396 13.2146 4.89233 13.6343 3.90856 13.907L3.83664 13.9269L3.79688 13.7832L3.86871 13.7633C4.84439 13.4929 5.81879 13.0758 6.73661 12.6503C7.40026 12.3426 8.05495 12.0161 8.70701 11.6851L12.9273 9.51172L12.8859 9.70079Z" fill="#F6CA00"/>
<path fill-rule="evenodd" clip-rule="evenodd" d="M19.7969 9.4375L24.1629 11.6859C24.8151 12.0169 25.4697 12.3435 26.1335 12.6512C27.0512 13.0767 28.0257 13.4938 29.0014 13.7642L29.0732 13.7841L29.0334 13.9277L28.9616 13.9079C27.9777 13.6352 26.9961 13.2155 26.0708 12.7866C25.4055 12.4781 24.749 12.1506 24.095 11.8187L19.8382 9.62657L19.7969 9.4375Z" fill="#F6CA00"/>
<path fill-rule="evenodd" clip-rule="evenodd" d="M3.58704 14.1996C3.59657 15.902 3.74786 17.5908 3.9047 19.2828C3.85692 19.306 3.80929 19.3306 3.76183 19.3563C3.6026 17.64 3.44758 15.9272 3.4379 14.2003L3.4375 14.1258L3.58665 14.125L3.58704 14.1996Z" fill="#F6CA00"/>
<path fill-rule="evenodd" clip-rule="evenodd" d="M29.422 14.2003C29.4155 15.3663 29.3428 16.5255 29.2472 17.684C29.1941 17.6954 29.1428 17.711 29.0938 17.7307C29.1915 16.5564 29.2663 15.3813 29.273 14.1996L29.2734 14.125L29.4224 14.1258L29.422 14.2003Z" fill="#F6CA00"/>
<path fill-rule="evenodd" clip-rule="evenodd" d="M27.7091 26.4157L27.6421 26.6104C27.594 26.5976 27.5413 26.5897 27.4865 26.6046L27.568 26.3674L27.5922 26.2969L27.7332 26.3451L27.7091 26.4157ZM27.3017 27.5732C27.0526 28.2589 26.7892 28.9402 26.5027 29.611C26.4256 29.6525 26.3523 29.6964 26.2826 29.7446C26.6362 28.9321 26.9543 28.1034 27.2529 27.2691C27.2584 27.3714 27.276 27.4729 27.3017 27.5732ZM24.2577 33.7958C24.1268 34.0057 23.9935 34.2143 23.8577 34.4211C23.8512 34.416 23.8444 34.4105 23.8375 34.4042C23.8083 34.3773 23.7638 34.3652 23.7161 34.3651C24.0621 33.8395 24.3913 33.3031 24.7062 32.7582C24.5849 33.0458 24.462 33.3332 24.3348 33.6177C24.3075 33.6771 24.2816 33.7364 24.2577 33.7958ZM22.7586 35.9845C21.7791 37.3005 20.7271 38.5524 19.6176 39.7604C19.5615 39.7478 19.5054 39.7355 19.4492 39.7232C20.6098 38.4636 21.7079 37.1561 22.7261 35.778C22.7398 35.8518 22.7519 35.9228 22.7586 35.9845Z" fill="#F6CA00"/>
<path fill-rule="evenodd" clip-rule="evenodd" d="M5.41797 26.7852L5.4644 26.918C5.45139 26.9287 5.43861 26.9395 5.42583 26.9504C5.42392 26.8954 5.42122 26.8402 5.41797 26.7852ZM7.86359 32.2792C7.92892 32.3962 7.9948 32.5127 8.06139 32.6289L8.0171 32.6984C7.97734 32.5861 7.92352 32.4398 7.86359 32.2792ZM8.90213 34.02C9.17677 34.4498 9.46205 34.8728 9.75915 35.2876C10.8794 36.8513 12.1025 38.323 13.4039 39.7349C13.3471 39.7464 13.2905 39.7582 13.2338 39.7702C11.9508 38.374 10.7443 36.9189 9.63802 35.3743L9.61286 35.3392C9.46586 35.1247 9.31957 34.9088 9.19487 34.6768C9.09192 34.4852 8.99302 34.2599 8.90213 34.02Z" fill="#F6CA00"/>
<path fill-rule="evenodd" clip-rule="evenodd" d="M3.60449 13.4062C3.94254 13.4062 4.21686 13.6805 4.21686 14.0185C4.21686 14.3567 3.94254 14.6309 3.60449 14.6309C3.26635 14.6309 2.99219 14.3567 2.99219 14.0185C2.99219 13.6805 3.26635 13.4062 3.60449 13.4062Z" fill="#161413"/>
<path fill-rule="evenodd" clip-rule="evenodd" d="M3.60386 13.5547C3.8596 13.5547 4.06709 13.7622 4.06709 14.0179C4.06709 14.2737 3.8596 14.4812 3.60386 14.4812C3.34803 14.4812 3.14062 14.2737 3.14062 14.0179C3.14062 13.7622 3.34803 13.5547 3.60386 13.5547Z" fill="#F6CA00"/>
<path fill-rule="evenodd" clip-rule="evenodd" d="M8.71394 11.1484C9.052 11.1484 9.32624 11.4228 9.32624 11.7608C9.32624 12.0989 9.052 12.3731 8.71394 12.3731C8.3758 12.3731 8.10156 12.0989 8.10156 11.7608C8.10156 11.4228 8.3758 11.1484 8.71394 11.1484Z" fill="#161413"/>
<path fill-rule="evenodd" clip-rule="evenodd" d="M8.71714 11.3008C8.97281 11.3008 9.18029 11.5083 9.18029 11.764C9.18029 12.0198 8.97281 12.2272 8.71714 12.2272C8.46131 12.2272 8.25391 12.0198 8.25391 11.764C8.25391 11.5083 8.46131 11.3008 8.71714 11.3008Z" fill="#F6CA00"/>
<path fill-rule="evenodd" clip-rule="evenodd" d="M29.2568 13.4062C29.5949 13.4062 29.869 13.6805 29.869 14.0185C29.869 14.3567 29.5949 14.6309 29.2568 14.6309C28.9187 14.6309 28.6445 14.3567 28.6445 14.0185C28.6445 13.6805 28.9187 13.4062 29.2568 13.4062Z" fill="#161413"/>
<path fill-rule="evenodd" clip-rule="evenodd" d="M29.2601 13.5547C29.5159 13.5547 29.7233 13.7622 29.7233 14.0179C29.7233 14.2737 29.5159 14.4812 29.2601 14.4812C29.0044 14.4812 28.7969 14.2737 28.7969 14.0179C28.7969 13.7622 29.0044 13.5547 29.2601 13.5547Z" fill="#F6CA00"/>
<path fill-rule="evenodd" clip-rule="evenodd" d="M24.1318 11.1484C24.47 11.1484 24.7442 11.4228 24.7442 11.7608C24.7442 12.0989 24.47 12.3731 24.1318 12.3731C23.7938 12.3731 23.5195 12.0989 23.5195 11.7608C23.5195 11.4228 23.7938 11.1484 24.1318 11.1484Z" fill="#161413"/>
<path fill-rule="evenodd" clip-rule="evenodd" d="M24.1312 11.3008C24.387 11.3008 24.5944 11.5083 24.5944 11.764C24.5944 12.0198 24.387 12.2272 24.1312 12.2272C23.8755 12.2272 23.668 12.0198 23.668 11.764C23.668 11.5083 23.8755 11.3008 24.1312 11.3008Z" fill="#F6CA00"/>
<path fill-rule="evenodd" clip-rule="evenodd" d="M7.71089 15.1164L10.4233 14.4989L10.6782 15.3162L11.9759 14.2487L14.8571 14.0391L16.7558 15.4784L16.6101 22.4851L16.736 24.4069L15.1303 26.048L11.798 26.1984L11.067 25.5735L10.941 27.631L7.71097 27.9537L6.81078 26.8083L5.22351 27.1231L2.24219 25.649L5.19311 15.7036L7.71089 15.1164Z" fill="#161413"/>
<path fill-rule="evenodd" clip-rule="evenodd" d="M5.54061 22.518L6.35714 22.3952L7.96068 15.3679L10.1413 14.8715L8.93159 22.0449L9.33712 22.0188L10.286 16.0375L12.0532 14.5551L14.7659 14.3477L16.3604 15.5849L16.358 17.9571L13.7855 17.971L13.8132 16.3478L12.7481 16.3978L12.1549 21.8005L13.6758 21.7363L13.8155 19.3043L16.3782 19.2199L16.3155 22.3406L14.3905 23.8596L10.8654 24.0936L9.60049 23.0278L9.21123 25.9725L6.64313 26.1766L6.87657 24.5558L2.66406 25.2767L5.41512 15.9348L7.2979 15.5201L5.54061 22.518Z" fill="#F6CA00"/>
<path fill-rule="evenodd" clip-rule="evenodd" d="M5.59214 16.1278L2.98047 24.9961L7.14234 24.2839L6.90493 25.9318L9.01376 25.7642L9.43278 22.594L10.9411 23.8649L14.3069 23.6414L16.0945 22.2309L16.1505 19.4517L14.0275 19.5215L13.8879 21.9515L11.9047 22.0353L12.5471 16.1836L14.0555 16.1138L14.0275 17.7059H16.1224L16.1364 15.7228L14.6839 14.6055L12.1142 14.801L10.4942 16.1557L9.53049 22.2309L8.66459 22.2867L9.8657 15.1641L8.14786 15.5552L6.54179 22.594L5.24297 22.7895L6.9747 15.8484L5.59214 16.1278Z" fill="white"/>
<path fill-rule="evenodd" clip-rule="evenodd" d="M19.6387 16.1085L20.4353 14.1685L23.4092 14.6995L23.0684 15.6774L24.044 14.8644L27.6242 15.8663L30.7468 25.7226L28.2123 27.174L24.3516 26.5661L20.5831 26.1603L20.0084 25.1567L19.8914 26.128L16.2227 26.0214L16.3618 14.0039L19.5043 14.128L19.6387 16.1085Z" fill="#161413"/>
<path fill-rule="evenodd" clip-rule="evenodd" d="M19.4278 17.4091L20.6195 14.5065L23.0123 14.9339L21.676 18.7682L24.0985 22.7074L22.9183 16.1926L24.1144 15.196L27.3885 16.1121L30.3068 25.3241L27.9919 24.8217L27.536 22.9842L26.7043 22.9118L27.0431 24.7048L24.5878 24.3381L21.9088 24.1052L19.6455 20.1795L19.8807 23.9536L16.7959 23.888L16.6641 14.3164L19.2247 14.4175L19.4278 17.4091ZM25.2845 17.1745L26.1227 20.6612L27.0369 20.7879L26.0132 17.384L25.2845 17.1745Z" fill="#F6CA00"/>
<path fill-rule="evenodd" clip-rule="evenodd" d="M16.8906 14.5469L17.0163 23.6667L19.6419 23.7225L19.3625 19.2394L22.044 23.8901L24.6138 24.1135L26.7645 24.4348L26.4294 22.6611L27.7142 22.7729L28.1751 24.6303L29.9767 25.0214L27.2114 16.2926L24.1669 15.4407L23.1613 16.2787L24.53 23.8343L21.4295 18.7925L22.7144 15.1055L20.7591 14.7563L19.2927 18.4713L19.0134 14.6307L16.8906 14.5469ZM24.9769 16.8513L25.9405 20.8595L27.3511 21.055L26.1919 17.2005L24.9769 16.8513Z" fill="white"/>
<path fill-rule="evenodd" clip-rule="evenodd" d="M16.4176 26.5234C19.2453 26.5234 21.5384 28.8166 21.5384 31.6442C21.5384 34.4718 19.2453 36.765 16.4176 36.765C13.5899 36.765 11.2969 34.4718 11.2969 31.6442C11.2969 28.8166 13.5899 26.5234 16.4176 26.5234Z" fill="white"/>
<path fill-rule="evenodd" clip-rule="evenodd" d="M16.418 26.4492C19.2868 26.4492 21.6133 28.7758 21.6133 31.6446C21.6133 34.5134 19.2868 36.8399 16.418 36.8399C13.5492 36.8399 11.2227 34.5134 11.2227 31.6446C11.2227 28.7758 13.5492 26.4492 16.418 26.4492ZM20.0196 30.5344L18.1565 31.1939C18.0827 31.8493 17.8832 32.4849 17.5334 33.0966L18.6804 34.6754C19.1632 34.6587 19.6682 34.4886 20.1539 34.1404C20.6015 33.4718 20.8747 32.6765 20.9076 31.8197C20.7251 31.2701 20.4194 30.8296 20.0196 30.5344ZM18.1177 31.0758L19.9747 30.4184C20.1164 29.9514 20.128 29.4381 19.9462 28.8633C19.438 28.2195 18.7577 27.7179 17.9744 27.4287C17.3967 27.432 16.8842 27.5853 16.4801 27.8725V29.8961C17.0885 30.1667 17.6382 30.5523 18.1177 31.0758ZM18.5669 34.7305L17.4218 33.1543C16.7929 33.2803 16.1452 33.2869 15.475 33.1517L14.3179 34.79C14.4869 35.2367 14.7833 35.6438 15.2628 35.987C15.6315 36.0849 16.0185 36.1376 16.418 36.1376C16.8407 36.1376 17.2496 36.0788 17.6374 35.9696C18.1084 35.6239 18.4144 35.2103 18.5669 34.7305ZM14.2353 34.6916L15.3695 33.0858C15.0407 32.5089 14.8265 31.8735 14.7498 31.168L12.8245 30.5424C12.4332 30.8372 12.1204 31.2466 11.9289 31.8208C11.9629 32.7012 12.2506 33.5166 12.7205 34.1962C13.2068 34.534 13.7279 34.7033 14.2353 34.6916ZM12.8499 30.42L14.8091 31.0566C15.237 30.5932 15.7475 30.2124 16.3558 29.9295V27.8863C15.9538 27.6046 15.4665 27.4335 14.8598 27.4294C14.0767 27.7191 13.3967 28.2206 12.8886 28.8647C12.7142 29.414 12.702 29.9479 12.8499 30.42ZM20.0149 28.7504C20.2869 28.8216 20.5387 28.928 20.764 29.0792C20.0698 27.9058 18.9141 27.0378 17.5469 26.7252C17.7534 26.9103 17.946 27.1195 18.078 27.3351C18.8427 27.63 19.5092 28.1227 20.0149 28.7504ZM21.4448 31.1992C21.3323 31.4529 21.193 31.7005 21.0285 31.8927C20.984 32.7311 20.7155 33.5102 20.2821 34.1715C20.2983 34.4513 20.2751 34.7226 20.2015 34.9826C20.9871 34.093 21.4643 32.9245 21.4643 31.6446C21.4643 31.4945 21.4576 31.3458 21.4448 31.1992ZM18.3961 36.2879C18.1201 36.2596 17.8412 36.2035 17.6077 36.1065C17.2279 36.2076 16.8294 36.2617 16.418 36.2617C16.0223 36.2617 15.6384 36.2116 15.2721 36.118C15.0117 36.2239 14.7467 36.2893 14.4759 36.3031C15.0739 36.5526 15.7297 36.6907 16.418 36.6907C17.1201 36.6907 17.7887 36.5472 18.3961 36.2879ZM12.6609 35.0124C12.599 34.7423 12.5624 34.461 12.5789 34.2092C12.1271 33.5343 11.8481 32.7338 11.8065 31.8711C11.6285 31.6538 11.4877 31.4203 11.3944 31.1661C11.3797 31.3236 11.3717 31.4832 11.3717 31.6446C11.3717 32.9388 11.8596 34.1191 12.6609 35.0124ZM12.0896 29.0501C12.3298 28.9109 12.5885 28.7922 12.8345 28.7336C13.3431 28.1084 14.0118 27.6188 14.7782 27.3273C14.9299 27.0912 15.1089 26.8851 15.3221 26.7181C13.9519 27.0217 12.7913 27.8823 12.0896 29.0501Z" fill="#161413"/>
<path d="M16.5612 41.972V41.6679L16.7941 41.6674C16.9358 41.667 17.0596 41.6054 17.0596 41.4048V40.7386C17.0596 40.5669 16.9019 40.4864 16.7556 40.4864H16.5588V40.1875H16.2863V40.4864H16.0855C15.9437 40.4864 15.7852 40.5661 15.7852 40.7386C15.7852 40.9747 15.7852 41.1753 15.7852 41.4114C15.7852 41.607 15.9196 41.6679 16.0632 41.6679H16.2863V41.972H16.5612ZM16.5612 41.5091V40.6466L16.6599 40.6461C16.7317 40.6459 16.7847 40.653 16.7847 40.7725V41.4132C16.7847 41.4877 16.7357 41.5079 16.6875 41.5082L16.5612 41.5091ZM16.2863 40.6466V41.5091L16.1695 41.5092C16.1064 41.5092 16.0601 41.474 16.0601 41.4132V40.7593C16.0601 40.6733 16.1031 40.6467 16.1697 40.6467L16.2863 40.6466Z" fill="#F6CA00"/>
<path fill-rule="evenodd" clip-rule="evenodd" d="M3.71484 29.7266C3.81105 29.7062 3.91265 29.6806 3.97218 29.5234L4.15164 29.5492L4.59916 31.3312L4.31444 31.2929L3.97337 29.8894L3.75421 29.8916L3.71484 29.7266Z" fill="#F6CA00"/>
<path fill-rule="evenodd" clip-rule="evenodd" d="M28.4605 29.8204C28.5783 29.7831 28.7096 29.7263 28.8491 29.5222L29.026 29.4883L28.4983 31.2541L28.2305 31.3087L28.6181 29.9506L28.4054 30.0003L28.4605 29.8204Z" fill="#F6CA00"/>
<path fill-rule="evenodd" clip-rule="evenodd" d="M27.2531 30.2734C27.3711 30.2361 27.5027 30.1795 27.6432 29.9751L27.8202 29.9414L27.2837 31.7073L27.0156 31.7617L27.4101 30.4037L27.1972 30.4533L27.2531 30.2734Z" fill="#F6CA00"/>
<path fill-rule="evenodd" clip-rule="evenodd" d="M5.76756 30.3989L6.0514 31.4923C6.11323 31.7302 5.9852 31.8146 5.83495 31.7978L5.71969 31.7848C5.49736 31.76 5.35687 31.5411 5.33107 31.4363L5.29353 31.2837L5.5669 31.3403L5.60412 31.49C5.61587 31.5376 5.66794 31.5994 5.73692 31.6117C5.78907 31.6209 5.83217 31.603 5.80994 31.5145L5.71064 31.1182C5.66881 31.1318 5.61166 31.129 5.54872 31.1209C5.31782 31.0913 5.22249 30.9765 5.16986 30.7529L5.04834 30.2379C4.99365 30.0059 5.1162 29.9405 5.28519 29.9551L5.35989 29.9616C5.59547 29.982 5.70866 30.1719 5.76756 30.3989ZM5.64484 30.8849L5.47712 30.2676C5.46196 30.2111 5.43212 30.1546 5.3529 30.1422C5.26384 30.1283 5.284 30.2075 5.29647 30.2555L5.4499 30.8506C5.46728 30.9178 5.51697 30.9503 5.56094 30.9578C5.59738 30.9642 5.67342 30.99 5.64484 30.8849Z" fill="#F6CA00"/>
<path fill-rule="evenodd" clip-rule="evenodd" d="M14.9381 40.3203L15.2186 42.0539L14.9423 42.0789L14.691 40.5266L14.3763 40.5542L14.6284 42.1091L14.3521 42.1341L14.0703 40.3968L14.9381 40.3203Z" fill="#F6CA00"/>
<path fill-rule="evenodd" clip-rule="evenodd" d="M18.1701 40.3042L17.8932 40.2734L17.6484 42.0366L17.9255 42.0675L18.0529 41.149L18.2622 42.0997L18.5392 42.1307L18.3209 41.1616L18.7944 40.3884L18.5174 40.3576L18.0556 41.1293L18.1701 40.3042Z" fill="#F6CA00"/>
</g>
<defs>
<clipPath id="clip0_17_491">
<rect width="32.9956" height="45" fill="white"/>
</clipPath>
</defs>
</svg>
