<svg width="36" height="45" viewBox="0 0 36 45" fill="none" xmlns="http://www.w3.org/2000/svg">
<path d="M13.2804 12.5566C13.2854 12.0932 13.3155 11.6345 13.3705 11.1807C14.0806 11.1373 14.8107 11.1469 15.5508 11.229C16.1309 11.2918 16.691 11.3787 17.2311 11.4849C16.571 12.5421 15.7458 13.4207 14.7957 14.1932C14.3906 14.5214 13.9656 14.8304 13.5155 15.1249C13.3655 14.3911 13.2905 13.6428 13.2804 12.8897C13.2804 12.7787 13.2804 12.6676 13.2804 12.5566ZM14.0556 8.23589C14.9357 5.74968 16.411 4.05036 17.6312 4.39795C18.5313 4.65864 18.7113 5.88485 18.4063 8.6221C17.001 8.37589 15.5508 8.24555 14.0556 8.23589ZM16.2309 16.0132C17.4611 14.787 18.5863 13.4642 19.5015 12.1125C25.6524 14.2994 28.4979 19.8559 28.3079 26.8415C28.1328 33.3298 25.1774 38.4132 18.6563 40.3298C16.951 40.8222 15.1157 40.6726 13.2804 40.2526C16.891 35.9367 19.4314 29.1829 21.5318 22.0959C17.8012 21.4877 15.6208 19.798 14.4506 17.6739C15.0607 17.1428 15.6608 16.5925 16.2409 16.0132H16.2309ZM21.0817 9.24486C21.5968 8.01382 21.8918 6.78278 21.8868 5.59519C21.8768 2.75173 20.4516 0.130345 18.0612 0C13.6455 0.00965521 11.4902 4.4414 10.75 8.44831C-2.43208 10.2538 -7.65793 23.0808 -1.3069 28.0918C3.81892 30.1725 7.76456 27.6911 8.04961 24.2104C4.83409 24.5822 3.75892 22.6849 3.77392 20.2615C3.79392 16.1676 6.60437 13.0007 10.445 11.7456C10.445 12.1849 10.47 12.5904 10.51 12.9573C10.535 13.1649 10.555 13.3725 10.58 13.5752C10.7 14.6373 10.8101 15.6463 10.9151 16.6166C9.64486 17.2635 8.29465 17.8718 6.91442 18.5283L6.95443 22.4677C8.26964 21.9463 9.76488 21.1256 11.2801 20.0973C11.3501 20.7684 11.4151 21.4346 11.4802 22.1008C11.8902 26.2429 11.8352 29.9794 11.0301 35.6181C10.8651 36.767 10.47 38.0608 9.8299 39.2146C7.30449 38.3264 4.95411 37.3415 3.16882 37.3077C1.47855 37.2257 -0.931841 37.9981 -1.2819 40.2091C-1.79198 43.4629 1.76359 45.2153 4.97411 44.9788C5.4992 44.9402 6.01428 44.8629 6.50936 44.7519C8.18963 44.3657 9.70988 43.5691 11.0901 42.4346C13.6705 43.6898 16.631 44.9015 19.3064 44.8147C29.328 44.4912 36.3142 36.4919 35.9891 26.5808C35.6441 18.5139 29.5681 11.7311 21.0717 9.25452L21.0817 9.24486ZM5.66922 42.5022C5.37918 42.5505 5.07913 42.5795 4.76908 42.5795C4.21399 42.4443 2.88377 42.5312 2.77876 40.914C3.0338 40.0402 3.96395 39.7891 4.96411 39.7553C5.67923 39.7312 6.90442 40.3057 8.42467 41.0733C7.66955 41.7877 6.7544 42.314 5.66922 42.5022Z" fill="white"/>
</svg>
