<svg width="122" height="161" viewBox="0 0 122 161" fill="none" xmlns="http://www.w3.org/2000/svg">
<path d="M114.96 83.7501C115.82 84.0101 116.67 84.2701 117.52 84.5301L120.87 85.5601V112.28H120.86L112.04 115.82C110.53 122.32 108.25 128.52 104.86 134.09C95.56 149.34 79.81 156.65 62.03 159.98L60.8999 160.19L59.77 159.98C42.92 156.82 27.7299 150.04 18.2299 136.08C14.0999 130.01 11.45 123.09 9.74995 115.81L0.949951 112.28V85.5601L4.29996 84.5301C5.14996 84.2701 5.99996 84.0101 6.84996 83.7501C6.84996 80.9301 6.87996 78.1701 6.90996 75.4901C6.99996 68.3901 7.15996 61.2901 7.12996 54.1901L7.10995 51.0501L10.0099 49.4701C25.7699 40.8601 42.21 33.9901 60.7 33.3401H60.92H61.14C79.63 33.9901 96.0699 40.8701 111.83 49.4701L114.72 51.0501L114.7 54.1901C114.66 61.2901 114.82 68.3901 114.92 75.4901C114.96 78.1801 114.98 80.9401 114.98 83.7501H114.96Z" fill="#F36418" stroke="white" stroke-miterlimit="22.93"/>
<path fill-rule="evenodd" clip-rule="evenodd" d="M11.84 120.58C12.5 122.81 13.26 124.97 14.21 127.12C44.23 116.26 72.12 115.37 101.05 126.22C69.78 119.86 48.23 117.22 15.74 130.42C16.6 132.09 17.56 133.7 18.63 135.26L19.64 136.62C29.45 132.73 40.85 129.75 53.01 128.84C67.98 127.72 81.51 130.14 93.18 134.4C67.59 128.71 45.1 128.96 21.84 139.41C23.09 140.84 24.46 142.22 25.94 143.52L27.82 145.72C46.06 138.4 66.68 136.57 85.3 143.36C64.64 139.03 47.33 140.16 29.88 147.79C32.04 149.25 34.73 150.76 37.12 151.93L39.19 152.96C44.91 150.65 52.93 148.42 60.89 148.35C68.96 148.42 76.86 150.59 82.61 152.96C83.57 152.54 85.95 151.3 86.75 150.89C94.27 147.11 98.76 141.91 103.49 134.74C106.38 130.35 108.46 125.47 109.97 120.32C95.84 114.93 79.14 111.81 61.24 111.81C43.34 111.81 26.1 115.03 11.84 120.58Z" fill="white"/>
<path d="M64.75 9.45011L64.11 9.40011L63.87 8.81011L60.9 1.62012L57.93 8.81011L57.69 9.40011L57.05 9.45011L49.24 10.0201L55.21 15.0201L55.71 15.4301L55.55 16.0601L53.68 23.5901L60.36 19.5001L60.9 19.1701L61.44 19.5001L68.11 23.5901L66.25 16.0601L66.09 15.4301L66.59 15.0201L72.56 10.0201L64.75 9.45011Z" fill="white" stroke="white"/>
<path fill-rule="evenodd" clip-rule="evenodd" d="M6.67999 50.1602C6.71999 58.3602 6.52999 70.8302 6.42999 79.0302C6.40999 80.9002 6.39 82.7502 6.38 84.5902C8.83 83.8202 11.84 83.0602 15.15 82.0202C22.29 70.2602 28.94 59.6902 38.68 49.9002C37.38 48.7202 36.67 48.0702 35.48 46.9902C35.14 46.5902 35.55 46.0902 36.01 46.3802L36.77 47.0902L37.41 47.6002L41.16 51.0602L45.74 51.1202L46.71 49.9002C45.63 48.9102 44.16 47.5502 43.92 47.3302C43.58 46.9302 44 46.4302 44.45 46.7202C46.73 48.8002 48.59 50.4502 51.15 52.7802L50.57 53.4602L50.6 53.5102L50.2 53.8602C47.48 56.6202 44.39 61.3102 41.64 66.2902C39.2 70.7102 37.09 75.1102 35.67 78.8002C39.75 77.1002 47.54 76.0202 53.28 75.3502V72.9502C53.28 72.7202 53.28 72.4302 53.28 72.1402C53.28 71.8402 53.58 71.4402 53.9 71.4802L54.34 71.4202V63.4202C54.31 62.1502 55.01 61.5802 55.95 61.3802V59.0902C55.75 59.0902 55.61 58.9302 55.64 58.8102C55.65 58.6402 55.75 58.5902 56.03 58.5702C56.06 57.5702 55.92 56.7602 56.53 56.7502H56.58L57.06 43.2402C56.92 43.1802 56.83 43.0502 56.83 42.8902C56.83 42.7202 56.94 42.5802 57.09 42.5302L57.2 39.2702L57.32 42.5302C57.47 42.5802 57.58 42.7202 57.58 42.8902C57.58 43.0502 57.48 43.1802 57.35 43.2402L57.83 56.7502H57.85C58.46 56.7702 58.32 57.5802 58.35 58.5702C58.62 58.5802 58.72 58.6402 58.73 58.8102C58.76 58.9302 58.62 59.0902 58.42 59.0902V61.3802C59.36 61.5802 59.99 62.1502 59.96 63.4202V71.4002C60.44 71.4002 60.9 71.3002 61.09 71.8402V72.9402C61.09 74.1802 61.09 73.9102 61.09 75.1702L65.28 75.1902V71.2602C64.7 71.1302 64.8 70.4402 65.43 70.4802C65.41 69.3902 65.39 67.6402 66.94 67.4802V65.2402C66.94 64.9902 67.08 64.6202 67.3 64.3902L67.39 63.5602C67.39 63.5602 67.31 63.4602 67.31 63.3902C67.31 63.3102 67.36 63.2302 67.43 63.1902L67.52 62.2402L67.61 63.1902C67.68 63.2302 67.73 63.3002 67.73 63.3902C67.73 63.4602 67.7 63.5202 67.64 63.5602L67.72 64.4002C67.94 64.6202 68.08 65.0102 68.08 65.2502V67.4902C69.62 67.6502 69.61 69.4002 69.59 70.4902C70.22 70.4602 70.31 71.1502 69.74 71.2702V73.2202C70.22 72.7802 70.49 72.5902 71.11 72.5902V71.2802C70.76 71.2102 70.81 70.7802 71.2 70.8002C71.19 70.1302 71.18 69.2902 72.12 69.1902V68.5302C71.97 68.4202 71.89 68.2402 71.88 68.0402C71.87 67.6402 72.35 67.5402 72.31 67.0202C72.28 66.9802 72.25 66.9502 72.25 66.8802C72.25 66.8102 72.31 66.7002 72.4 66.6802L72.47 65.4102L72.54 66.6902C72.62 66.7302 72.67 66.8202 72.67 66.8902C72.67 66.9702 72.65 67.0002 72.62 67.0302C72.62 67.5902 73.04 67.6202 73.05 68.0502C73.05 68.2502 72.95 68.4302 72.81 68.5402V69.2002C73.75 69.3002 73.74 70.1402 73.73 70.8102C74.12 70.7902 74.17 71.2102 73.82 71.2902V72.6202C76.25 72.7802 77.58 75.4202 77.5 77.6602C80.57 78.0902 82.54 78.3502 86.03 78.9102C83.23 69.6202 79.77 57.5902 75.66 49.5102V49.4902L75.25 48.8002L75.18 48.7002C77.64 46.8602 79.33 45.6202 81.72 43.8502C82.2 43.6002 82.57 44.1502 82.19 44.5102C81.67 44.9002 82.82 44.0502 81.56 44.9802L78.05 47.5902L78.68 48.8102C80.17 48.8502 81.66 48.8902 83.15 48.9402C85.97 46.8302 87.05 46.0502 89.34 44.3502C89.82 44.1002 90.18 44.6502 89.81 45.0102C87.94 46.4002 87.08 47.0402 85.01 48.5702C93.51 59.0102 99.49 69.6602 104.73 79.0002L106.59 82.3402L115.42 84.4502C115.41 82.8102 115.38 80.6402 115.37 79.0502C115.27 70.8502 115.09 58.3802 115.13 50.1802C98.33 40.1602 80.67 31.9402 60.91 31.1802C41.15 31.9402 23.49 40.1602 6.69 50.1802L6.67999 50.1602Z" fill="white"/>
<path fill-rule="evenodd" clip-rule="evenodd" d="M103.13 114.44C102.38 114.22 101.77 113.47 101.8 112.76C101.82 112.05 102.42 111.66 103.18 111.87C103.93 112.09 104.54 112.84 104.53 113.55C104.5 114.26 103.89 114.65 103.14 114.43L103.13 114.44Z" fill="white"/>
<path fill-rule="evenodd" clip-rule="evenodd" d="M18.6799 114.44C19.4299 114.22 20.0399 113.47 20.0099 112.76C19.9899 112.05 19.3799 111.66 18.6299 111.87C17.8799 112.09 17.2699 112.84 17.2899 113.55C17.3199 114.26 17.9299 114.65 18.6799 114.43V114.44Z" fill="white"/>
<path fill-rule="evenodd" clip-rule="evenodd" d="M13.54 101.62C13.37 101.67 13.2 101.73 13.03 101.79V107.76L12.92 107.8C11.73 108.21 10.54 108.63 9.35001 109.05L9.13 109.13V91.74L9.25 91.71C10.44 91.37 11.63 91.02 12.82 90.69L13.04 90.63V97.85C13.22 97.79 13.39 97.74 13.57 97.68C14.22 96.3 14.87 94.92 15.52 93.55C16.18 92.17 16.84 90.79 17.5 89.42L17.53 89.35L17.61 89.33C18.86 89 20.12 88.66 21.38 88.33L21.74 88.23L21.57 88.57C20.73 90.23 19.9 91.88 19.07 93.55C18.25 95.2 17.44 96.85 16.63 98.5C17.47 99.52 18.31 100.54 19.16 101.56C20.02 102.59 20.9 103.62 21.78 104.64L21.95 104.84L21.7 104.92C20.39 105.33 19.08 105.75 17.77 106.16L17.67 106.19L17.6 106.11C16.91 105.35 16.22 104.6 15.53 103.84C14.87 103.11 14.2 102.38 13.55 101.64L13.54 101.62ZM26.91 99.76V103.37L26.79 103.4C25.59 103.74 24.4 104.07 23.21 104.42L22.99 104.48V87.88L23.12 87.85C26.85 86.92 30.59 86.03 34.35 85.24L34.55 85.2V97.86L34.42 97.89C31.91 98.47 29.4 99.09 26.91 99.76ZM40 92.31C40.68 90.94 41.35 89.58 42.03 88.21C42.81 86.64 43.6 85.08 44.4 83.53L44.44 83.45H44.53C45.73 83.29 46.92 83.14 48.11 82.99L48.3 82.97V98.96L48.15 98.98C46.96 99.15 45.76 99.31 44.57 99.48L44.38 99.51V91.67C43.69 92.97 43.01 94.28 42.34 95.59C41.55 97.12 40.77 98.66 39.99 100.2L39.95 100.27H39.87C38.68 100.51 37.48 100.74 36.29 100.99L36.09 101.03V84.87L36.23 84.84C37.42 84.59 38.62 84.39 39.82 84.19L40.02 84.16V92.31H40ZM57.36 94.61V93.8H57.52C58.72 93.76 59.91 93.73 61.11 93.71H61.28V93.88V98.2H61.11C57.37 98.3 53.63 98.48 49.9 98.8L49.71 98.82V82.82H49.87C53.61 82.52 57.35 82.34 61.1 82.25H61.27V82.42V86.74H61.1C59.91 86.76 58.71 86.79 57.52 86.83H57.35V86.66V86.03C56.11 86.06 54.87 86.11 53.63 86.21V94.81C54.87 94.71 56.11 94.67 57.35 94.63L57.36 94.61ZM70.32 86.37V98.66L70.14 98.64C68.95 98.54 67.75 98.44 66.56 98.35H66.4V86.07C65.18 86.04 63.96 86 62.74 85.97H62.57V82.28H62.74C66.49 82.38 70.24 82.67 73.98 83.03L74.13 83.05V86.75L73.94 86.73C72.73 86.58 71.52 86.46 70.31 86.37H70.32ZM82.25 96.64C81.04 96.41 79.83 96.19 78.61 95.98C78.49 97.14 78.38 98.3 78.27 99.45L78.25 99.63L78.08 99.61C76.89 99.44 75.69 99.27 74.5 99.11L74.34 99.09L74.36 98.93C74.63 96.36 74.9 93.78 75.16 91.21C75.43 88.63 75.71 86.05 75.99 83.47L76.01 83.3L76.18 83.32C79.05 83.71 81.9 84.19 84.75 84.69L84.88 84.71V84.84C85.16 87.53 85.43 90.22 85.7 92.92C85.97 95.62 86.24 98.32 86.52 101.02L86.54 101.26L86.31 101.2C85.12 100.92 83.93 100.69 82.74 100.47L82.61 100.45V100.33C82.48 99.11 82.37 97.89 82.26 96.67L82.25 96.64ZM95.73 90.92C94.97 90.73 94.22 90.54 93.46 90.36C93.19 92.33 92.93 94.29 92.67 96.26C92.4 98.28 92.13 100.3 91.87 102.32L91.84 102.51L91.66 102.47C90.45 102.18 89.24 101.89 88.03 101.6L87.88 101.56L87.9 101.4C88.31 98.85 88.67 96.29 89.01 93.72C89.35 91.13 89.68 88.55 90.02 85.96L90.04 85.77L90.22 85.81C93.33 86.53 96.43 87.28 99.51 88.07L99.64 88.1V104.75L99.42 104.68C98.24 104.3 97.04 103.97 95.85 103.64L95.73 103.61V90.93V90.92ZM108.78 94.57C108.01 94.34 107.23 94.11 106.46 93.87C106.22 95.68 105.97 97.49 105.74 99.31C105.5 101.19 105.26 103.06 105.02 104.94C104.96 105.36 104.91 105.77 104.85 106.19L104.83 106.39L104.64 106.33C104.3 106.22 103.95 106.11 103.61 106C102.78 105.74 101.96 105.48 101.13 105.22L101 105.18L101.02 105.04C101.36 102.41 101.69 99.78 102.02 97.15C102.35 94.5 102.69 91.85 103.03 89.21L103.06 89.02L103.25 89.07C106.37 89.93 109.48 90.82 112.6 91.71L112.72 91.74V109.13L112.5 109.05C111.3 108.63 110.11 108.22 108.92 107.8L108.81 107.76V94.57H108.78ZM26.91 90.71V95.95C28.15 95.62 29.39 95.3 30.63 94.99V89.79C29.39 90.09 28.15 90.4 26.91 90.71ZM81.41 88.39C81.25 88.36 81.09 88.33 80.93 88.31C80.53 88.24 80.12 88.17 79.72 88.1C79.63 88.08 79.53 88.07 79.44 88.05C79.44 88.11 79.43 88.18 79.42 88.24C79.34 88.95 79.24 89.65 79.17 90.36C79.1 91.01 79.02 91.67 78.95 92.32C79.93 92.5 80.91 92.67 81.89 92.85C81.81 92.22 81.73 91.59 81.67 90.96C81.6 90.26 81.52 89.55 81.44 88.85C81.42 88.69 81.41 88.54 81.4 88.38L81.41 88.39Z" fill="white"/>
<path d="M25.63 109.1C24.67 109.4 23.71 109.7 22.75 110V114.5C23.71 114.21 24.67 113.91 25.63 113.61V112.21C25.32 112.31 25.01 112.4 24.71 112.5V112.94C24.36 113.05 24.01 113.16 23.67 113.26V110.69C24.01 110.58 24.36 110.47 24.71 110.37V110.81C25.02 110.71 25.32 110.62 25.63 110.52V109.11V109.1ZM30.96 112.18C30.89 111.44 30.82 110.71 30.75 109.97C30.68 109.23 30.61 108.5 30.54 107.76C29.79 107.97 29.04 108.18 28.31 108.38C28.23 109.15 28.16 109.93 28.09 110.7C28.02 111.47 27.95 112.24 27.88 113.02C28.19 112.93 28.5 112.85 28.81 112.76C28.84 112.4 28.87 112.03 28.9 111.67C29.24 111.58 29.59 111.48 29.93 111.39C29.96 111.74 29.99 112.09 30.02 112.43C30.33 112.34 30.64 112.26 30.95 112.17L30.96 112.18ZM28.99 110.68C29.04 110.16 29.08 109.64 29.13 109.12C29.32 109.06 29.52 109.01 29.72 108.95C29.76 109.45 29.81 109.94 29.86 110.43C29.57 110.51 29.28 110.59 29 110.67L28.99 110.68ZM33.31 107.13V111.68C33.62 111.62 33.94 111.55 34.26 111.49V109.68C34.62 109.61 34.98 109.53 35.34 109.46V111.28C35.65 111.22 35.97 111.15 36.29 111.09V106.51C35.97 106.58 35.66 106.65 35.34 106.71V108.49C34.98 108.56 34.62 108.64 34.26 108.71V106.94C33.94 107.01 33.63 107.08 33.31 107.14V107.13ZM38.9 105.94V110.55C39.21 110.5 39.53 110.44 39.86 110.39V108.55C40 108.52 40.15 108.5 40.29 108.47C40.57 109.03 40.85 109.6 41.15 110.16C41.49 110.1 41.84 110.04 42.19 109.98C41.81 109.25 41.43 108.51 41.05 107.78C41.41 106.97 41.77 106.16 42.13 105.35C41.79 105.41 41.46 105.47 41.13 105.53C40.85 106.18 40.57 106.83 40.29 107.48C40.14 107.51 40 107.53 39.86 107.56V105.77C39.54 105.83 39.22 105.88 38.9 105.94ZM47.13 104.66C46.12 104.81 45.12 104.95 44.12 105.1V106.1C44.46 106.05 44.8 106 45.14 105.95V109.62C45.46 109.58 45.78 109.53 46.1 109.49V105.81C46.44 105.76 46.78 105.71 47.12 105.66V104.66H47.13ZM49.17 107.15V107.72C49.67 107.67 50.19 107.62 50.7 107.56V106.98C50.19 107.03 49.68 107.09 49.17 107.14V107.15ZM56.12 108.67V103.91C55.11 103.98 54.11 104.05 53.1 104.11V108.85C53.42 108.83 53.74 108.81 54.06 108.79V105.06C54.42 105.04 54.79 105.01 55.15 104.99V108.73C55.47 108.71 55.79 108.69 56.12 108.67ZM61.71 103.75C60.72 103.76 59.73 103.79 58.75 103.81V108.58C59.73 108.56 60.72 108.54 61.71 108.53V107.51C61.05 107.52 60.38 107.53 59.72 107.54V106.69C60.05 106.69 60.39 106.68 60.73 106.67V105.65C60.39 105.65 60.05 105.66 59.72 105.67V104.82C60.38 104.81 61.05 104.79 61.71 104.78V103.76V103.75ZM66.78 104.02C65.77 103.95 64.77 103.89 63.76 103.82V104.84C64.1 104.87 64.45 104.88 64.79 104.91V108.65C65.11 108.67 65.43 108.69 65.75 108.71V104.97C66.09 104.99 66.44 105.02 66.78 105.04V104.02ZM72.04 104.45C71.06 104.34 70.07 104.24 69.09 104.13V108.87C70.07 108.97 71.06 109.07 72.04 109.17V108.16C71.38 108.09 70.71 108.02 70.05 107.96V107.12C70.38 107.15 70.72 107.19 71.07 107.23V106.22C70.73 106.18 70.39 106.15 70.05 106.11V105.26C70.71 105.33 71.38 105.4 72.04 105.47V104.46V104.45ZM77.42 105.08C76.41 104.93 75.41 104.79 74.41 104.64V109.33C74.73 109.37 75.05 109.42 75.37 109.46V108.06C76.05 108.16 76.73 108.25 77.42 108.34V105.08ZM75.37 105.79C75.73 105.84 76.09 105.9 76.45 105.95V107.22C76.08 107.17 75.72 107.12 75.37 107.06V105.79ZM82.98 106.05C81.98 105.87 80.99 105.69 80 105.51V110.14C80.99 110.31 81.98 110.48 82.98 110.65V107.8C82.3 107.68 81.62 107.56 80.95 107.44V106.67C81.62 106.79 82.3 106.92 82.98 107.04V106.05ZM80.95 109.31V108.43C81.31 108.49 81.67 108.56 82.03 108.62V109.5C81.67 109.44 81.31 109.38 80.95 109.31ZM85.58 111.14C86.55 111.37 87.52 111.61 88.5 111.84V107.29C88.19 107.21 87.87 107.13 87.56 107.06V108.93C87.21 108.85 86.87 108.76 86.52 108.68V106.81C86.21 106.73 85.89 106.65 85.58 106.58V109.44C86.24 109.6 86.89 109.76 87.56 109.92V110.66C86.9 110.5 86.24 110.34 85.58 110.18V111.16V111.14ZM93.98 108.64C93 108.37 92.03 108.1 91.06 107.83V112.36C91.37 112.45 91.68 112.53 91.99 112.62V111.26C92.65 111.44 93.31 111.62 93.97 111.8V108.64H93.98ZM92 109.05C92.35 109.15 92.7 109.25 93.05 109.34V110.57C92.7 110.47 92.35 110.38 92 110.28V109.05ZM99.07 110.15C98.22 109.89 97.36 109.62 96.51 109.36V113.87C96.82 113.97 97.12 114.06 97.43 114.16V110.62C97.97 110.79 98.51 110.96 99.06 111.12V110.15H99.07Z" fill="white"/>
<path d="M52.73 152.14H55.38V153.19L53.79 154.27H55.38V154.83H52.73V154.25L54.46 153.05V152.69H53.64V152.94H52.73V152.13V152.14ZM56.42 152.14H59.06V154.83H56.42V152.14ZM57.33 152.69V154.26H58.15V152.69H57.33ZM60.08 152.14H62.72V154.83H60.08V152.14ZM60.99 152.69V154.26H61.81V152.69H60.99ZM66.36 154.82H63.72V152.13H66.36V152.69H64.63V153.21H66.36V154.82ZM64.63 153.75V154.27H65.45V153.75H64.63Z" fill="white"/>
<path fill-rule="evenodd" clip-rule="evenodd" d="M48.6399 154.82C47.8899 154.82 47.2799 154.22 47.2799 153.48C47.2799 152.74 47.8899 152.14 48.6399 152.14C49.3899 152.14 49.9999 152.74 49.9999 153.48C49.9999 154.22 49.3899 154.82 48.6399 154.82Z" fill="white"/>
<path fill-rule="evenodd" clip-rule="evenodd" d="M70.45 154.62C69.7 154.62 69.09 154.02 69.09 153.28C69.09 152.54 69.7 151.94 70.45 151.94C71.2 151.94 71.81 152.54 71.81 153.28C71.81 154.02 71.2 154.62 70.45 154.62Z" fill="white"/>
</svg>
