<svg width="51" height="48" viewBox="0 0 51 48" fill="none" xmlns="http://www.w3.org/2000/svg">
<path d="M32.3755 33.8347L32.7248 29.6315H46.5266L47.9266 46.5042H31.3248L32.0934 37.2416" stroke="#DA6713" stroke-width="2" stroke-linecap="round" stroke-linejoin="round"/>
<path d="M35.1653 29.6315C35.1653 27.2224 37.1624 25.058 39.6244 25.058C42.0865 25.058 44.0836 27.2224 44.0836 29.6315" stroke="#DA6713" stroke-width="2" stroke-linecap="round" stroke-linejoin="round"/>
<path d="M9.38473 41.061C6.91123 41.0287 4.45297 40.3602 4.45297 40.3602C4.45297 40.3602 0.493082 43.5273 1.29853 44.4517C4.14426 47.7144 24.4239 47.5367 27.2112 44.3001C27.9735 43.4155 24.147 40.3615 24.147 40.3615C24.147 40.3615 17.4582 41.7145 12.9978 41.189" stroke="#DA6713" stroke-width="2" stroke-linecap="round" stroke-linejoin="round"/>
<path d="M24.1292 40.2012C24.1292 38.0045 24.7657 29.6004 18.5317 29.6315H10.133C3.8508 29.5681 4.53175 40.2012 4.53175 40.2012" stroke="#DA6713" stroke-width="2" stroke-linecap="round" stroke-linejoin="round"/>
<path d="M21.5909 40.6249C21.5909 38.4282 22.0609 29.9807 17.4417 30.013H11.2179C6.56309 29.9496 7.06872 40.6249 7.06872 40.6249" stroke="#DA6713" stroke-width="2" stroke-linecap="round" stroke-linejoin="round"/>
<path d="M16.0748 29.429C16.0748 29.0016 16.2005 27.4721 15.0749 27.4783H13.5581C12.4236 27.4659 12.5354 29.429 12.5354 29.429" stroke="#DA6713" stroke-width="2" stroke-linecap="round" stroke-linejoin="round"/>
<path d="M38.9131 29.429C38.7632 17.1397 38.626 11.4405 40.115 9.25623" stroke="#DA6713" stroke-width="2" stroke-linecap="round" stroke-linejoin="round"/>
<path d="M25.2688 45.5451C27.3358 45.5836 29.4167 45.5078 31.3249 45.314" stroke="#DA6713" stroke-width="2" stroke-linecap="round" stroke-linejoin="round"/>
<path d="M11.5979 9.25623C12.8327 11.0677 12.8531 16.2961 12.7743 27.7529" stroke="#DA6713" stroke-width="2" stroke-linecap="round" stroke-linejoin="round"/>
<path d="M23.5525 9.46373C24.8483 10.1918 25.8558 10.6714 25.8558 10.6714C25.8558 10.6714 33.7501 6.62841 33.7501 4.14844" stroke="#DA6713" stroke-width="2" stroke-linecap="round" stroke-linejoin="round"/>
<path d="M17.9614 4.14722C17.9614 5.26171 19.5545 6.92414 21.309 8.09579" stroke="#DA6713" stroke-width="2" stroke-linecap="round" stroke-linejoin="round"/>
<path d="M20.1998 3.0166C22.4701 5.05425 25.8557 7.34786 25.8557 7.34786C25.8557 7.34786 29.1918 4.95113 31.5192 3.0166" stroke="#DA6713" stroke-width="2" stroke-linecap="round" stroke-linejoin="round"/>
<path d="M32.3743 6.57495C36.573 7.76897 39.2472 8.36038 40.2839 8.96298C41.5467 9.69604 42.9454 11.223 46.2485 14.6933" stroke="#DA6713" stroke-width="2" stroke-linecap="round" stroke-linejoin="round"/>
<path d="M19.1835 6.57495C14.9848 7.76897 12.402 8.36038 11.3654 8.96298C10.1026 9.69604 8.53868 11.3585 5.2356 14.8287" stroke="#DA6713" stroke-width="2" stroke-linecap="round" stroke-linejoin="round"/>
<path d="M12.651 18.7388L8.39767 21.2014C8.03941 21.4089 7.58079 21.3356 7.30892 21.0287L2.21201 15.2735C1.92108 14.9443 1.93378 14.4535 2.24123 14.1392L3.518 12.8383C6.82235 9.36807 9.11545 7.07696 10.3782 6.3439C11.4149 5.7413 18.5165 4.29009 20.2011 2.74694C21.2479 1.78776 22.8055 1.1864 25.7109 1.1864C28.7714 1.1864 30.5322 1.76539 31.5218 2.88983C32.6283 4.14721 40.4871 5.76491 41.5238 6.36751C42.7866 7.10056 44.9171 9.36807 48.2214 12.8383L49.5579 14.1379C49.8793 14.451 49.8984 14.9542 49.5998 15.2884L44.541 20.9628C44.2755 21.2598 43.836 21.338 43.4815 21.1492L38.9665 18.75" stroke="#DA6713" stroke-width="2" stroke-linecap="round" stroke-linejoin="round"/>
<path d="M3.36304 12.9961L9.80786 20.113" stroke="#DA6713" stroke-width="2" stroke-linecap="round" stroke-linejoin="round"/>
<path d="M48.1236 12.9961L41.6775 20.113" stroke="#DA6713" stroke-width="2" stroke-linecap="round" stroke-linejoin="round"/>
</svg>
