<svg width="60" height="66" viewBox="0 0 60 66" fill="none" xmlns="http://www.w3.org/2000/svg">
<path d="M31.9858 0C42.7389 0 51.4587 8.46768 51.4587 18.9153C51.4561 21.6616 50.8435 24.3737 49.6644 26.8595C48.4853 29.3453 46.7685 31.544 44.6355 33.2998C45.5488 33.7387 46.3788 34.1809 47.1288 34.6264C48.7454 35.5834 50.4221 36.7714 52.162 38.187C52.3968 38.3756 52.591 38.6088 52.7333 38.8728C52.8756 39.1369 52.9629 39.4265 52.9903 39.7246C53.0176 40.0227 52.9844 40.3231 52.8925 40.6082C52.8006 40.8934 52.652 41.1574 52.4553 41.3847C52.0524 41.8481 51.4824 42.1372 50.8671 42.1902C50.2517 42.2432 49.6399 42.056 49.1621 41.6685C47.7539 40.5053 46.261 39.4464 44.6955 38.5005C43.1686 37.621 41.5827 36.8459 39.949 36.1807C37.4385 37.2737 34.7251 37.8357 31.9825 37.8307C28.9608 37.8358 25.9784 37.1527 23.2661 35.8342L23.1261 35.9002C16.5362 38.3949 11.7264 42.0843 8.62643 46.9814C5.50984 51.8951 4.23654 57.3862 4.80653 63.5274C4.83113 63.8269 4.79577 64.1283 4.70246 64.4143C4.60916 64.7003 4.45975 64.9653 4.2628 65.194C4.06585 65.4227 3.82523 65.6107 3.55475 65.7471C3.28427 65.8836 2.98924 65.9658 2.68658 65.9892C2.07512 66.0481 1.46494 65.8649 0.989564 65.4797C0.514186 65.0944 0.212308 64.5384 0.149977 63.9333C-0.506673 56.8318 0.993289 50.3606 4.6432 44.6022C7.85645 39.5334 12.5763 35.5933 18.7428 32.785C16.7817 31.0335 15.2136 28.894 14.1399 26.5049C13.0662 24.1158 12.5108 21.5302 12.5097 18.9153C12.5097 8.46768 21.2328 0 31.9858 0ZM56.0619 46.9913C56.4956 46.5672 57.0802 46.3285 57.6898 46.3266C58.2995 46.3248 58.8855 46.5599 59.3218 46.9814C60.2218 47.8592 60.2218 49.2848 59.3285 50.1659L55.3553 54.0565L59.3285 57.9505C59.5417 58.1583 59.7109 58.4061 59.8262 58.6795C59.9415 58.9528 60.0006 59.2462 60 59.5424C59.9994 59.8387 59.9391 60.1318 59.8226 60.4047C59.7062 60.6775 59.5359 60.9247 59.3218 61.1316C58.8864 61.554 58.3008 61.7903 57.6912 61.7897C57.0816 61.7891 56.4965 61.5516 56.0619 61.1283L52.1053 57.2443L48.1488 61.1283C47.7604 61.5062 47.2506 61.7372 46.7079 61.7812C46.1652 61.8253 45.6241 61.6795 45.1789 61.3692L44.8922 61.1316C44.6781 60.9247 44.5078 60.6775 44.3914 60.4047C44.2749 60.1318 44.2147 59.8387 44.214 59.5424C44.2134 59.2462 44.2725 58.9528 44.3878 58.6795C44.5031 58.4061 44.6723 58.1583 44.8855 57.9505L48.8521 54.0565L44.8855 50.1626C44.6723 49.9548 44.5031 49.7069 44.3878 49.4336C44.2725 49.1602 44.2134 48.8668 44.214 48.5706C44.2147 48.2744 44.2749 47.9813 44.3914 47.7084C44.5078 47.4355 44.6781 47.1884 44.8922 46.9814C45.3279 46.5605 45.913 46.3254 46.5218 46.3266C47.1307 46.3278 47.7148 46.5653 48.1488 46.988L52.1053 50.8688L56.0619 46.9913ZM31.9858 4.53743C23.8094 4.53743 17.1862 10.9723 17.1862 18.912C17.1862 26.8517 23.8094 33.2899 31.9858 33.2899C40.159 33.2899 46.7855 26.855 46.7855 18.912C46.7855 10.9723 40.159 4.53743 31.9858 4.53743Z" fill="white"/>
</svg>
