<svg width="188" height="209" viewBox="0 0 188 209" fill="none" xmlns="http://www.w3.org/2000/svg">
<path d="M173.415 82.5317V82.5283C173.24 81.925 173.062 81.3251 172.874 80.7252C165.967 58.5094 150.973 39.8585 131.332 28.2175C130.427 27.6794 129.508 27.1583 128.582 26.6544C128.034 26.3494 127.486 26.0546 126.93 25.7666C127.095 31.7894 127.033 37.8498 126.92 43.9136C126.728 54.1389 126.389 64.3779 126.715 74.49C126.872 79.3712 127.184 84.2182 127.739 89.024C128.024 91.4989 128.374 93.9601 128.809 96.411C129.103 98.1009 129.436 99.7875 129.813 101.464C130.639 105.173 131.668 108.844 132.943 112.474C133.142 111.511 133.368 110.551 133.615 109.601C133.697 109.286 133.779 108.974 133.868 108.666C134.149 107.644 134.458 106.629 134.797 105.625C135.6 103.236 136.552 100.898 137.649 98.6288C138.116 97.6622 138.626 96.7675 139.171 95.9311C139.401 95.5781 139.641 95.2318 139.884 94.8994C142.044 91.924 144.686 89.6239 147.473 87.0222C148.265 86.2852 149.067 85.5242 149.873 84.7152C151.645 82.9396 153.582 81.2497 155.714 79.9402C157.394 78.9085 159.186 78.1098 161.113 77.6916C164.582 76.9409 167.269 77.0711 169.333 79.0936C169.874 79.6249 170.375 80.2865 170.834 81.0989C171.643 82.5283 171.945 83.8754 171.866 85.1677C171.678 88.3933 169.124 91.2624 166.227 94.1624L166.152 94.2378C164.828 95.5609 163.653 96.8498 162.415 98.1181C162.395 98.1318 162.381 98.1489 162.368 98.1661C161.853 98.6905 161.329 99.2116 160.777 99.7326L160.773 99.736C160.544 99.952 160.307 100.171 160.064 100.387C159.92 100.518 159.769 100.648 159.618 100.775C158.634 101.621 157.52 102.485 156.492 103.407C156.41 103.483 156.327 103.558 156.249 103.633C155.464 104.353 154.737 105.111 154.164 105.927C154.11 106.002 154.058 106.078 154.01 106.156C153.911 106.307 153.815 106.461 153.729 106.612C150.863 111.682 151.631 117.876 152.262 124.074V124.094C152.31 124.55 152.358 125.009 152.403 125.469V125.472C152.783 129.431 152.989 133.36 152.039 136.962C149.551 146.386 141.495 153.094 134.091 159.432C128.374 164.33 122.516 169.914 119.399 177.356C118.508 179.474 117.843 181.751 117.469 184.201V184.212C117.459 184.287 117.445 184.366 117.435 184.445C117.459 185.154 117.483 185.864 117.511 186.574C117.61 189.456 117.709 192.339 117.812 195.222C117.864 195.201 117.919 195.181 117.97 195.16C118.118 195.102 118.268 195.044 118.415 194.982C127.787 191.246 136.405 186.025 143.991 179.618C143.998 179.618 144.001 179.611 144.008 179.605C156.146 169.338 165.627 156.025 171.262 140.843C175.009 130.744 177.059 119.82 177.059 108.419C177.059 99.4378 175.787 90.7517 173.415 82.5317Z" fill="#118DC8"/>
<path d="M155.442 79.3318C150.187 67.492 141.587 55.4706 131.393 47.2164C130.488 46.4828 129.572 45.7801 128.643 45.1082C128.071 44.6969 127.498 44.2993 126.919 43.9119C126.727 54.1372 126.388 64.3761 126.714 74.4883C126.871 79.3695 127.183 84.2165 127.738 89.0223C128.023 91.4972 128.373 93.9584 128.808 96.4093C129.103 98.0992 129.435 99.7857 129.812 101.462C130.638 105.171 131.667 108.842 132.942 112.472C133.134 111.543 133.388 110.649 133.689 109.771C133.778 109.504 133.874 109.236 133.974 108.972C134.316 108.064 134.704 107.176 135.119 106.302C136.027 104.382 137.066 102.514 138.043 100.584C138.258 100.163 138.471 99.7412 138.677 99.3127C138.78 99.0967 138.886 98.8842 138.992 98.6751C138.995 98.6683 138.999 98.6648 138.999 98.658C139.575 97.5165 140.171 96.4539 140.802 95.4495C143.287 91.4664 146.235 88.3573 149.872 84.7135C151.644 82.9379 153.581 81.248 155.713 79.9385C155.624 79.7363 155.538 79.5341 155.442 79.3318ZM160.937 101.39C160.882 100.842 160.831 100.324 160.79 99.8646C160.786 99.8611 160.786 99.8611 160.79 99.8611C160.783 99.8166 160.779 99.7755 160.776 99.7309L160.773 99.7343C160.512 99.9674 160.231 100.211 159.933 100.461C159.926 100.464 159.919 100.471 159.912 100.478C158.863 101.363 157.619 102.363 156.491 103.406C156.409 103.481 156.327 103.556 156.248 103.632C155.449 104.386 154.716 105.161 154.167 105.928C154.112 106.004 154.061 106.079 154.009 106.155C153.91 106.305 153.814 106.46 153.728 106.611C150.863 111.68 151.631 117.874 152.261 124.072V124.093C152.309 124.548 152.357 125.008 152.402 125.467V125.471C152.782 129.43 152.988 133.358 152.038 136.961C149.55 146.384 141.494 153.092 134.09 159.43C128.373 164.329 122.514 169.913 119.399 177.354C119.683 177.207 119.964 177.06 120.245 176.909C143.123 164.747 159.178 141.455 161.201 114.255C161.348 112.328 161.42 110.381 161.42 108.417C161.42 106.504 161.153 103.659 160.937 101.39Z" fill="#1870AD"/>
<path d="M139.501 97.4934C137.376 101.895 138.89 103.649 134.795 111.338C130.486 99.0805 127.127 87.4526 126.712 74.485C132.176 81.3754 137.87 88.485 139.501 97.4934Z" fill="#EA3020"/>
<path d="M63.5758 194.3C26.7985 176.246 5.10368 141.916 5.10368 101.204V101.157C5.10368 100.139 6.47139 99.8215 6.92867 100.732C7.56316 101.995 8.28301 103.211 9.08752 104.366C10.6393 106.594 14.1333 105.514 14.1148 102.799C14.0853 98.4585 14.1957 94.4788 14.5131 90.5156C14.5851 89.6209 14.8833 88.4931 15.7746 88.3937C16.371 88.3286 16.9092 88.8325 17.0943 89.4049C17.2794 89.9739 17.1971 90.591 17.1217 91.1874C16.3401 97.2821 16.2956 103.473 16.9846 109.578C17.0459 110.138 17.1265 110.722 17.5111 111.162C17.763 111.45 18.148 111.616 18.5206 111.528C19.297 111.345 19.3981 110.309 19.3429 109.52C18.7499 100.792 19.2607 91.9895 20.8615 83.3856C21.3311 80.8662 21.9035 78.333 23.0553 76.0398C23.4118 75.3336 24.1008 74.5418 24.8446 74.8195C25.5885 75.1005 25.5782 76.1632 25.304 76.9105C25.0297 77.6577 24.6287 78.5044 25.0263 79.1934C25.1017 79.2997 25.1257 79.3236 25.1463 79.3476C25.5062 79.2859 25.8798 79.2962 26.2329 79.3819C29.0711 69.5577 31.9197 59.6239 37.5208 51.2462C36.7187 67.2645 37.0237 83.4473 37.0237 99.3285C37.0237 120.615 32.8658 142.197 46.6286 159.415C54.3789 169.106 62.1498 169.973 63.8329 190.098C64.0009 192.12 63.7541 192.264 63.5758 194.3Z" fill="#EB3020"/>
<path d="M162.46 167.474C151.948 183.301 136.2 195.352 117.689 201.153" stroke="#EB3020" stroke-miterlimit="10" stroke-linecap="round"/>
<path d="M60.3381 197.941C52.9209 194.277 46.032 189.683 39.83 184.306" stroke="#EB3020" stroke-miterlimit="10" stroke-linecap="round"/>
<path d="M25.095 171.012C11.8348 155.8 3.23638 136.33 1.67328 114.735C1.6294 114.128 1.59101 113.518 1.55811 112.908" stroke="#EB3020" stroke-miterlimit="10" stroke-linecap="round"/>
<path d="M62.9397 202.138C62.0622 201.785 61.1915 201.418 60.3312 201.038C60.5437 199.495 60.904 196.544 61.0784 193.03C61.1367 191.906 61.1744 190.72 61.1847 189.503C61.2498 180.776 59.7899 174.448 56.965 171.198C55.7139 169.947 54.473 168.765 53.2698 167.62C46.5307 161.196 40.7102 155.646 37.3989 142.829C36.1923 138.161 36.2643 127.466 36.3191 118.872C36.3328 117.131 36.3431 115.475 36.3431 113.964V112.593H39.0854V113.964C39.0854 115.479 39.0751 117.145 39.0614 118.89C39.0066 127.326 38.938 137.822 40.0521 142.141C43.168 154.203 48.7279 159.499 55.1623 165.635C56.3857 166.801 57.6506 168.007 58.9395 169.293L59.0012 169.358C66.3127 177.694 63.4985 198.522 62.9397 202.138Z" fill="white"/>
<path d="M102.808 7.97327H102.801C99.9213 7.57564 96.9596 7.36654 93.9435 7.36654C91.5471 7.36654 89.1959 7.4968 86.8852 7.75046C88.2838 4.7888 91.2968 2.73895 94.7936 2.73895C97.2068 2.73895 99.3934 3.71589 100.974 5.29955C101.666 5.99197 102.242 6.79752 102.674 7.68876C102.722 7.78131 102.767 7.87729 102.808 7.97327Z" fill="#1876B5"/>
<path d="M171.864 85.1656C171.716 85.7004 171.494 86.2386 171.202 86.7699C168.498 91.6683 163.953 96.4432 159.931 100.461C159.925 100.464 159.918 100.471 159.911 100.478C159.812 100.577 159.712 100.677 159.616 100.773C158.605 101.78 157.631 102.737 156.733 103.635C155.973 104.396 155.201 105.147 154.522 106.291C153.124 108.639 152.109 112.643 152.312 121.806V121.809C152.308 121.813 152.308 121.813 152.312 121.816C152.322 122.289 152.336 122.776 152.353 123.276C152.38 124.031 152.394 124.761 152.401 125.467V125.47C152.445 130.135 152.065 133.892 151.174 137.139C151.17 137.159 151.163 137.18 151.157 137.2C150.755 138.667 150.245 140.028 149.624 141.324C149.624 141.327 149.621 141.331 149.621 141.331C147.684 145.362 144.657 148.752 140.297 152.615C135.628 156.753 131.347 161.421 126.867 165.902C124.159 168.61 121.927 170.917 120.265 173.714C118.335 176.963 117.173 180.874 116.933 186.846C116.868 188.429 116.868 190.154 116.936 192.053L117.649 205.754C117.125 205.884 116.597 206.011 116.066 206.131C109.645 207.598 102.879 208.383 95.8929 208.383C95.485 208.383 95.0771 208.379 94.6726 208.376C92.9172 208.294 91.159 208.139 89.428 207.896C89.5994 205.257 90.6277 202.597 91.5635 199.666C94.011 192.005 100.572 178.818 98.9402 170.522C97.2503 161.936 87.3267 158.371 87.3267 158.371C101.463 144.234 127.165 121.175 130.415 118.697C132.238 117.305 133.887 116.229 135.454 113.336C136.688 111.066 137.87 107.683 139.049 102.154C139.505 100.022 140.455 98.0269 141.761 96.0456C143.687 93.1148 146.388 90.208 149.429 86.9207C157.906 77.7478 161.197 76.4075 168.669 78.831C168.902 78.9064 169.122 78.9921 169.331 79.0915C171.724 80.1953 172.573 82.6496 171.864 85.1656Z" fill="#1390CA"/>
<path d="M132.864 124.627C128.833 130.502 122.786 134.629 116.883 138.616C107.059 145.249 97.1475 151.737 87.3268 158.37C101.497 144.22 126.989 121.399 130.186 118.876C132.945 116.698 135.503 115.495 137.821 107.2C138.088 113.335 136.343 119.56 132.864 124.627Z" fill="#1871B5"/>
<path d="M103.536 11.4824V77.6397C103.536 82.4661 99.6213 86.3807 94.7949 86.3807C92.3817 86.3807 90.1951 85.4038 88.6145 83.8201C87.0312 82.2399 86.0539 80.0529 86.0539 77.6397V11.4824C86.0539 11.3453 86.0573 11.2082 86.0642 11.0711C86.119 9.88846 86.407 8.76756 86.8869 7.75291C88.2854 4.79125 91.2985 2.74141 94.7949 2.74141C97.2084 2.74141 99.3951 3.71835 100.975 5.30201C101.668 5.99443 102.244 6.79997 102.675 7.69122C102.7 7.7392 102.724 7.78719 102.741 7.83518C102.765 7.87975 102.786 7.92773 102.802 7.97572C103.251 8.99722 103.508 10.1181 103.529 11.3007C103.532 11.3316 103.532 11.3624 103.532 11.3933C103.536 11.4207 103.536 11.4516 103.536 11.4824Z" fill="#1490C9"/>
<path d="M77.9982 83.2745C77.9982 88.3169 74.3784 92.9068 70.6283 93.7294C66.3058 94.6755 59.0594 89.0162 59.0594 89.0162C59.0594 89.0162 59.0662 75.4378 59.0731 68.4793C59.0834 62.2338 59.0937 55.4535 59.1039 49.1531C59.1074 48.2482 59.1074 47.3535 59.1074 46.4725C59.1142 44.0045 59.1177 41.6359 59.1177 39.4352C59.1211 37.9955 59.1245 36.6278 59.1245 35.3492C59.1314 32.4253 59.1382 29.9709 59.1382 28.209C59.1416 27.1052 59.1416 26.2689 59.1416 25.7615C59.1451 25.3879 59.1451 25.1925 59.1451 25.1925C59.1451 20.3627 63.0562 16.4515 67.8861 16.4515H68.743C70.7243 16.4515 72.5514 17.1097 74.0151 18.2203C74.7109 18.7482 75.3279 19.3755 75.8352 20.0885C75.8901 20.157 75.9415 20.229 75.9929 20.301V20.3044C76.226 20.6541 76.4385 21.0208 76.6236 21.4013C76.6339 21.415 76.6408 21.4322 76.6476 21.4493C76.6991 21.5624 76.7505 21.6755 76.7985 21.7887C76.963 22.1829 77.1001 22.5873 77.2098 23.009C77.2441 23.1461 77.2784 23.2901 77.3058 23.4306C77.3298 23.5403 77.3503 23.65 77.3675 23.7597C77.3675 23.77 77.3709 23.7837 77.3743 23.7974C77.3846 23.8728 77.3949 23.9516 77.4052 24.0305C77.4326 24.2259 77.4532 24.4247 77.4635 24.6269C77.4703 24.7092 77.4737 24.7949 77.4772 24.8772V24.9011C77.484 24.9971 77.484 25.0931 77.484 25.1925L77.6006 37.8344L77.9982 83.2745Z" fill="#1490C9"/>
<path d="M103.532 11.4575V15.7388C100.423 15.2726 97.2184 15.0293 93.9448 15.0293C91.2608 15.0293 88.6282 15.1938 86.0539 15.5092V11.4746C86.0539 11.3375 86.0573 11.2004 86.0642 11.0633C88.6351 10.7479 91.2642 10.5834 93.9448 10.5834C97.2184 10.5834 100.423 10.8267 103.529 11.2929C103.532 11.3478 103.532 11.4026 103.532 11.4575Z" fill="#1876B5"/>
<path d="M86.0538 22.3485C88.6281 22.0331 91.2607 21.8686 93.9447 21.8686C97.2183 21.8686 100.423 22.112 103.532 22.5781V18.1905C100.423 17.7243 97.2183 17.4809 93.9447 17.4809C91.2607 17.4809 88.6281 17.6455 86.0538 17.9608V22.3485Z" fill="#1876B5"/>
<path d="M86.0539 29.1794C88.6282 28.864 91.2608 28.6995 93.9448 28.6995C97.2184 28.6995 100.423 28.9428 103.532 29.409V25.3265C100.423 24.8603 97.2184 24.6169 93.9448 24.6169C91.2608 24.6169 88.6282 24.7814 86.0539 25.0968V29.1794Z" fill="#1876B5"/>
<path d="M86.0539 36.2018C88.6282 35.8864 91.2608 35.7219 93.9448 35.7219C97.2184 35.7219 100.423 35.9652 103.532 36.4314V31.8793C100.423 31.4131 97.2184 31.1697 93.9448 31.1697C91.2608 31.1697 88.6282 31.3342 86.0539 31.6496V36.2018Z" fill="#1876B5"/>
<path d="M103.532 39.1134V44.1078C100.423 43.6416 97.2184 43.3982 93.9448 43.3982C91.2608 43.3982 88.6282 43.5627 86.0539 43.8781V38.8837C88.6282 38.5684 91.2608 38.4038 93.9448 38.4038C97.2184 38.4038 100.423 38.6472 103.532 39.1134Z" fill="#1876B5"/>
<path d="M86.0539 49.2688C88.6282 48.9534 91.2608 48.7889 93.9448 48.7889C97.2184 48.7889 100.423 49.0323 103.532 49.4984V46.3551C100.423 45.8889 97.2184 45.6456 93.9448 45.6456C91.2608 45.6456 88.6282 45.8101 86.0539 46.1254V49.2688Z" fill="#1876B5"/>
<path d="M86.0539 56.5801C89.4235 56.0282 92.9096 55.7369 96.4814 55.7369C98.8706 55.7369 101.226 55.8671 103.532 56.1208V51.7057C101.226 51.4521 98.8706 51.3218 96.4814 51.3218C92.9096 51.3218 89.4235 51.6132 86.0539 52.165V56.5801Z" fill="#1876B5"/>
<path d="M86.0539 56.5801C89.4235 56.0282 92.9096 55.7369 96.4814 55.7369C98.8706 55.7369 101.226 55.8671 103.532 56.1208V51.7057C101.226 51.4521 98.8706 51.3218 96.4814 51.3218C92.9096 51.3218 89.4235 51.6132 86.0539 52.165V56.5801Z" fill="#1876B5"/>
<path d="M86.0539 56.5801C89.4235 56.0282 92.9096 55.7369 96.4814 55.7369C98.8706 55.7369 101.226 55.8671 103.532 56.1208V51.7057C101.226 51.4521 98.8706 51.3218 96.4814 51.3218C92.9096 51.3218 89.4235 51.6132 86.0539 52.165V56.5801Z" fill="#1876B5"/>
<path d="M86.0539 49.2688C88.6282 48.9534 91.2608 48.7889 93.9448 48.7889C97.2184 48.7889 100.423 49.0323 103.532 49.4984V46.3551C100.423 45.8889 97.2184 45.6456 93.9448 45.6456C91.2608 45.6456 88.6282 45.8101 86.0539 46.1254V49.2688Z" fill="#1876B5"/>
<path d="M86.0539 56.5801C89.4235 56.0282 92.9096 55.7369 96.4814 55.7369C98.8706 55.7369 101.226 55.8671 103.532 56.1208V51.7057C101.226 51.4521 98.8706 51.3218 96.4814 51.3218C92.9096 51.3218 89.4235 51.6132 86.0539 52.165V56.5801Z" fill="#1876B5"/>
<path d="M86.0539 49.2688C88.6282 48.9534 91.2608 48.7889 93.9448 48.7889C97.2184 48.7889 100.423 49.0323 103.532 49.4984V46.3551C100.423 45.8889 97.2184 45.6456 93.9448 45.6456C91.2608 45.6456 88.6282 45.8101 86.0539 46.1254V49.2688Z" fill="#1876B5"/>
<path d="M86.0539 56.5801C89.4235 56.0282 92.9096 55.7369 96.4814 55.7369C98.8706 55.7369 101.226 55.8671 103.532 56.1208V51.7057C101.226 51.4521 98.8706 51.3218 96.4814 51.3218C92.9096 51.3218 89.4235 51.6132 86.0539 52.165V56.5801Z" fill="#1876B5"/>
<path d="M103.532 39.1134V44.1078C100.423 43.6416 97.2184 43.3982 93.9448 43.3982C91.2608 43.3982 88.6282 43.5627 86.0539 43.8781V38.8837C88.6282 38.5684 91.2608 38.4038 93.9448 38.4038C97.2184 38.4038 100.423 38.6472 103.532 39.1134Z" fill="#1876B5"/>
<path d="M86.0539 49.2688C88.6282 48.9534 91.2608 48.7889 93.9448 48.7889C97.2184 48.7889 100.423 49.0323 103.532 49.4984V46.3551C100.423 45.8889 97.2184 45.6456 93.9448 45.6456C91.2608 45.6456 88.6282 45.8101 86.0539 46.1254V49.2688Z" fill="#1876B5"/>
<path d="M86.0539 56.5801C89.4235 56.0282 92.9096 55.7369 96.4814 55.7369C98.8706 55.7369 101.226 55.8671 103.532 56.1208V51.7057C101.226 51.4521 98.8706 51.3218 96.4814 51.3218C92.9096 51.3218 89.4235 51.6132 86.0539 52.165V56.5801Z" fill="#1876B5"/>
<path d="M103.532 39.1134V44.1078C100.423 43.6416 97.2184 43.3982 93.9448 43.3982C91.2608 43.3982 88.6282 43.5627 86.0539 43.8781V38.8837C88.6282 38.5684 91.2608 38.4038 93.9448 38.4038C97.2184 38.4038 100.423 38.6472 103.532 39.1134Z" fill="#1876B5"/>
<path d="M86.0539 49.2688C88.6282 48.9534 91.2608 48.7889 93.9448 48.7889C97.2184 48.7889 100.423 49.0323 103.532 49.4984V46.3551C100.423 45.8889 97.2184 45.6456 93.9448 45.6456C91.2608 45.6456 88.6282 45.8101 86.0539 46.1254V49.2688Z" fill="#1876B5"/>
<path d="M86.0539 56.5801C89.4235 56.0282 92.9096 55.7369 96.4814 55.7369C98.8706 55.7369 101.226 55.8671 103.532 56.1208V51.7057C101.226 51.4521 98.8706 51.3218 96.4814 51.3218C92.9096 51.3218 89.4235 51.6132 86.0539 52.165V56.5801Z" fill="#1876B5"/>
<path d="M86.0539 36.2018C88.6282 35.8864 91.2608 35.7219 93.9448 35.7219C97.2184 35.7219 100.423 35.9652 103.532 36.4314V31.8793C100.423 31.4131 97.2184 31.1697 93.9448 31.1697C91.2608 31.1697 88.6282 31.3342 86.0539 31.6496V36.2018Z" fill="#1876B5"/>
<path d="M103.532 39.1134V44.1078C100.423 43.6416 97.2184 43.3982 93.9448 43.3982C91.2608 43.3982 88.6282 43.5627 86.0539 43.8781V38.8837C88.6282 38.5684 91.2608 38.4038 93.9448 38.4038C97.2184 38.4038 100.423 38.6472 103.532 39.1134Z" fill="#1876B5"/>
<path d="M86.0539 49.2688C88.6282 48.9534 91.2608 48.7889 93.9448 48.7889C97.2184 48.7889 100.423 49.0323 103.532 49.4984V46.3551C100.423 45.8889 97.2184 45.6456 93.9448 45.6456C91.2608 45.6456 88.6282 45.8101 86.0539 46.1254V49.2688Z" fill="#1876B5"/>
<path d="M86.0539 56.5801C89.4235 56.0282 92.9096 55.7369 96.4814 55.7369C98.8706 55.7369 101.226 55.8671 103.532 56.1208V51.7057C101.226 51.4521 98.8706 51.3218 96.4814 51.3218C92.9096 51.3218 89.4235 51.6132 86.0539 52.165V56.5801Z" fill="#1876B5"/>
<path d="M86.0539 36.2018C88.6282 35.8864 91.2608 35.7219 93.9448 35.7219C97.2184 35.7219 100.423 35.9652 103.532 36.4314V31.8793C100.423 31.4131 97.2184 31.1697 93.9448 31.1697C91.2608 31.1697 88.6282 31.3342 86.0539 31.6496V36.2018Z" fill="#1876B5"/>
<path d="M103.532 39.1134V44.1078C100.423 43.6416 97.2184 43.3982 93.9448 43.3982C91.2608 43.3982 88.6282 43.5627 86.0539 43.8781V38.8837C88.6282 38.5684 91.2608 38.4038 93.9448 38.4038C97.2184 38.4038 100.423 38.6472 103.532 39.1134Z" fill="#1876B5"/>
<path d="M86.0539 49.2688C88.6282 48.9534 91.2608 48.7889 93.9448 48.7889C97.2184 48.7889 100.423 49.0323 103.532 49.4984V46.3551C100.423 45.8889 97.2184 45.6456 93.9448 45.6456C91.2608 45.6456 88.6282 45.8101 86.0539 46.1254V49.2688Z" fill="#1876B5"/>
<path d="M86.0539 56.5801C89.4235 56.0282 92.9096 55.7369 96.4814 55.7369C98.8706 55.7369 101.226 55.8671 103.532 56.1208V51.7057C101.226 51.4521 98.8706 51.3218 96.4814 51.3218C92.9096 51.3218 89.4235 51.6132 86.0539 52.165V56.5801Z" fill="#1876B5"/>
<path d="M86.0539 29.1794C88.6282 28.864 91.2608 28.6995 93.9448 28.6995C97.2184 28.6995 100.423 28.9428 103.532 29.409V25.3265C100.423 24.8603 97.2184 24.6169 93.9448 24.6169C91.2608 24.6169 88.6282 24.7814 86.0539 25.0968V29.1794Z" fill="#1876B5"/>
<path d="M86.0539 36.2018C88.6282 35.8864 91.2608 35.7219 93.9448 35.7219C97.2184 35.7219 100.423 35.9652 103.532 36.4314V31.8793C100.423 31.4131 97.2184 31.1697 93.9448 31.1697C91.2608 31.1697 88.6282 31.3342 86.0539 31.6496V36.2018Z" fill="#1876B5"/>
<path d="M103.532 39.1134V44.1078C100.423 43.6416 97.2184 43.3982 93.9448 43.3982C91.2608 43.3982 88.6282 43.5627 86.0539 43.8781V38.8837C88.6282 38.5684 91.2608 38.4038 93.9448 38.4038C97.2184 38.4038 100.423 38.6472 103.532 39.1134Z" fill="#1876B5"/>
<path d="M86.0539 49.2688C88.6282 48.9534 91.2608 48.7889 93.9448 48.7889C97.2184 48.7889 100.423 49.0323 103.532 49.4984V46.3551C100.423 45.8889 97.2184 45.6456 93.9448 45.6456C91.2608 45.6456 88.6282 45.8101 86.0539 46.1254V49.2688Z" fill="#1876B5"/>
<path d="M86.0539 56.5801C89.4235 56.0282 92.9096 55.7369 96.4814 55.7369C98.8706 55.7369 101.226 55.8671 103.532 56.1208V51.7057C101.226 51.4521 98.8706 51.3218 96.4814 51.3218C92.9096 51.3218 89.4235 51.6132 86.0539 52.165V56.5801Z" fill="#1876B5"/>
<path d="M86.0539 29.1794C88.6282 28.864 91.2608 28.6995 93.9448 28.6995C97.2184 28.6995 100.423 28.9428 103.532 29.409V25.3265C100.423 24.8603 97.2184 24.6169 93.9448 24.6169C91.2608 24.6169 88.6282 24.7814 86.0539 25.0968V29.1794Z" fill="#1876B5"/>
<path d="M86.0539 36.2018C88.6282 35.8864 91.2608 35.7219 93.9448 35.7219C97.2184 35.7219 100.423 35.9652 103.532 36.4314V31.8793C100.423 31.4131 97.2184 31.1697 93.9448 31.1697C91.2608 31.1697 88.6282 31.3342 86.0539 31.6496V36.2018Z" fill="#1876B5"/>
<path d="M103.532 39.1134V44.1078C100.423 43.6416 97.2184 43.3982 93.9448 43.3982C91.2608 43.3982 88.6282 43.5627 86.0539 43.8781V38.8837C88.6282 38.5684 91.2608 38.4038 93.9448 38.4038C97.2184 38.4038 100.423 38.6472 103.532 39.1134Z" fill="#1876B5"/>
<path d="M86.0539 49.2688C88.6282 48.9534 91.2608 48.7889 93.9448 48.7889C97.2184 48.7889 100.423 49.0323 103.532 49.4984V46.3551C100.423 45.8889 97.2184 45.6456 93.9448 45.6456C91.2608 45.6456 88.6282 45.8101 86.0539 46.1254V49.2688Z" fill="#1876B5"/>
<path d="M86.0539 56.5801C89.4235 56.0282 92.9096 55.7369 96.4814 55.7369C98.8706 55.7369 101.226 55.8671 103.532 56.1208V51.7057C101.226 51.4521 98.8706 51.3218 96.4814 51.3218C92.9096 51.3218 89.4235 51.6132 86.0539 52.165V56.5801Z" fill="#1876B5"/>
<path d="M86.0538 22.3485C88.6281 22.0331 91.2607 21.8686 93.9447 21.8686C97.2183 21.8686 100.423 22.112 103.532 22.5781V18.1905C100.423 17.7243 97.2183 17.4809 93.9447 17.4809C91.2607 17.4809 88.6281 17.6455 86.0538 17.9608V22.3485Z" fill="#1876B5"/>
<path d="M86.0539 29.1794C88.6282 28.864 91.2608 28.6995 93.9448 28.6995C97.2184 28.6995 100.423 28.9428 103.532 29.409V25.3265C100.423 24.8603 97.2184 24.6169 93.9448 24.6169C91.2608 24.6169 88.6282 24.7814 86.0539 25.0968V29.1794Z" fill="#1876B5"/>
<path d="M86.0539 36.2018C88.6282 35.8864 91.2608 35.7219 93.9448 35.7219C97.2184 35.7219 100.423 35.9652 103.532 36.4314V31.8793C100.423 31.4131 97.2184 31.1697 93.9448 31.1697C91.2608 31.1697 88.6282 31.3342 86.0539 31.6496V36.2018Z" fill="#1876B5"/>
<path d="M103.532 39.1134V44.1078C100.423 43.6416 97.2184 43.3982 93.9448 43.3982C91.2608 43.3982 88.6282 43.5627 86.0539 43.8781V38.8837C88.6282 38.5684 91.2608 38.4038 93.9448 38.4038C97.2184 38.4038 100.423 38.6472 103.532 39.1134Z" fill="#1876B5"/>
<path d="M86.0539 49.2688C88.6282 48.9534 91.2608 48.7889 93.9448 48.7889C97.2184 48.7889 100.423 49.0323 103.532 49.4984V46.3551C100.423 45.8889 97.2184 45.6456 93.9448 45.6456C91.2608 45.6456 88.6282 45.8101 86.0539 46.1254V49.2688Z" fill="#1876B5"/>
<path d="M86.0539 56.5801C89.4235 56.0282 92.9096 55.7369 96.4814 55.7369C98.8706 55.7369 101.226 55.8671 103.532 56.1208V51.7057C101.226 51.4521 98.8706 51.3218 96.4814 51.3218C92.9096 51.3218 89.4235 51.6132 86.0539 52.165V56.5801Z" fill="#1876B5"/>
<path d="M86.0538 22.3485C88.6281 22.0331 91.2607 21.8686 93.9447 21.8686C97.2183 21.8686 100.423 22.112 103.532 22.5781V18.1905C100.423 17.7243 97.2183 17.4809 93.9447 17.4809C91.2607 17.4809 88.6281 17.6455 86.0538 17.9608V22.3485Z" fill="#1876B5"/>
<path d="M86.0539 29.1794C88.6282 28.864 91.2608 28.6995 93.9448 28.6995C97.2184 28.6995 100.423 28.9428 103.532 29.409V25.3265C100.423 24.8603 97.2184 24.6169 93.9448 24.6169C91.2608 24.6169 88.6282 24.7814 86.0539 25.0968V29.1794Z" fill="#1876B5"/>
<path d="M86.0539 36.2018C88.6282 35.8864 91.2608 35.7219 93.9448 35.7219C97.2184 35.7219 100.423 35.9652 103.532 36.4314V31.8793C100.423 31.4131 97.2184 31.1697 93.9448 31.1697C91.2608 31.1697 88.6282 31.3342 86.0539 31.6496V36.2018Z" fill="#1876B5"/>
<path d="M103.532 39.1134V44.1078C100.423 43.6416 97.2184 43.3982 93.9448 43.3982C91.2608 43.3982 88.6282 43.5627 86.0539 43.8781V38.8837C88.6282 38.5684 91.2608 38.4038 93.9448 38.4038C97.2184 38.4038 100.423 38.6472 103.532 39.1134Z" fill="#1876B5"/>
<path d="M86.0539 49.2688C88.6282 48.9534 91.2608 48.7889 93.9448 48.7889C97.2184 48.7889 100.423 49.0323 103.532 49.4984V46.3551C100.423 45.8889 97.2184 45.6456 93.9448 45.6456C91.2608 45.6456 88.6282 45.8101 86.0539 46.1254V49.2688Z" fill="#1876B5"/>
<path d="M86.0539 56.5801C89.4235 56.0282 92.9096 55.7369 96.4814 55.7369C98.8706 55.7369 101.226 55.8671 103.532 56.1208V51.7057C101.226 51.4521 98.8706 51.3218 96.4814 51.3218C92.9096 51.3218 89.4235 51.6132 86.0539 52.165V56.5801Z" fill="#1876B5"/>
<path d="M103.532 11.4575V15.7388C100.423 15.2726 97.2184 15.0293 93.9448 15.0293C91.2608 15.0293 88.6282 15.1938 86.0539 15.5092V11.4746C86.0539 11.3375 86.0573 11.2004 86.0642 11.0633C88.6351 10.7479 91.2642 10.5834 93.9448 10.5834C97.2184 10.5834 100.423 10.8267 103.529 11.2929C103.532 11.3478 103.532 11.4026 103.532 11.4575Z" fill="#1876B5"/>
<path d="M86.0538 22.3485C88.6281 22.0331 91.2607 21.8686 93.9447 21.8686C97.2183 21.8686 100.423 22.112 103.532 22.5781V18.1905C100.423 17.7243 97.2183 17.4809 93.9447 17.4809C91.2607 17.4809 88.6281 17.6455 86.0538 17.9608V22.3485Z" fill="#1876B5"/>
<path d="M86.0539 29.1794C88.6282 28.864 91.2608 28.6995 93.9448 28.6995C97.2184 28.6995 100.423 28.9428 103.532 29.409V25.3265C100.423 24.8603 97.2184 24.6169 93.9448 24.6169C91.2608 24.6169 88.6282 24.7814 86.0539 25.0968V29.1794Z" fill="#1876B5"/>
<path d="M86.0539 36.2018C88.6282 35.8864 91.2608 35.7219 93.9448 35.7219C97.2184 35.7219 100.423 35.9652 103.532 36.4314V31.8793C100.423 31.4131 97.2184 31.1697 93.9448 31.1697C91.2608 31.1697 88.6282 31.3342 86.0539 31.6496V36.2018Z" fill="#1876B5"/>
<path d="M103.532 39.1134V44.1078C100.423 43.6416 97.2184 43.3982 93.9448 43.3982C91.2608 43.3982 88.6282 43.5627 86.0539 43.8781V38.8837C88.6282 38.5684 91.2608 38.4038 93.9448 38.4038C97.2184 38.4038 100.423 38.6472 103.532 39.1134Z" fill="#1876B5"/>
<path d="M86.0539 49.2688C88.6282 48.9534 91.2608 48.7889 93.9448 48.7889C97.2184 48.7889 100.423 49.0323 103.532 49.4984V46.3551C100.423 45.8889 97.2184 45.6456 93.9448 45.6456C91.2608 45.6456 88.6282 45.8101 86.0539 46.1254V49.2688Z" fill="#1876B5"/>
<path d="M86.0539 56.5801C89.4235 56.0282 92.9096 55.7369 96.4814 55.7369C98.8706 55.7369 101.226 55.8671 103.532 56.1208V51.7057C101.226 51.4521 98.8706 51.3218 96.4814 51.3218C92.9096 51.3218 89.4235 51.6132 86.0539 52.165V56.5801Z" fill="#1876B5"/>
<path d="M74.0278 18.212C68.5364 20.0425 63.5112 22.6099 59.1407 25.7601C59.1441 25.3762 59.1441 25.1705 59.1441 25.1705C59.1441 23.3606 59.6926 21.6775 60.6352 20.2824C60.6387 20.279 60.6387 20.2756 60.6421 20.2756C62.1263 18.0817 64.5772 16.6009 67.3881 16.4432C67.5526 16.4329 67.7171 16.4295 67.8851 16.4295H68.7421C70.7268 16.4295 72.5607 17.0911 74.0278 18.212Z" fill="#1876B5"/>
<path d="M59.1234 35.3436C64.4023 31.5387 70.6341 28.5805 77.4932 26.7432L77.4795 25.1698V25.0395C77.4761 24.899 77.4727 24.7585 77.4624 24.6213C77.4555 24.5185 77.4487 24.4191 77.4384 24.3197C77.4281 24.2203 77.4178 24.1243 77.4041 24.0249C77.3938 23.9323 77.3801 23.8432 77.3664 23.7541C77.3458 23.641 77.3287 23.5313 77.3047 23.425C77.2773 23.2845 77.243 23.1439 77.2087 23.0034C77.1847 22.8971 77.1539 22.7943 77.123 22.6915C77.0647 22.4892 76.9962 22.2904 76.9208 22.095C76.9208 22.0813 76.9139 22.071 76.9071 22.0573C76.8762 21.9648 76.8385 21.8756 76.7974 21.7831C76.7494 21.6665 76.698 21.5534 76.6466 21.4437C76.6397 21.4266 76.6328 21.4095 76.6226 21.3957C76.4854 21.1078 76.3346 20.8301 76.1632 20.5628C76.1118 20.4737 76.0535 20.3845 75.9918 20.2988V20.2954C75.9438 20.2234 75.8924 20.1514 75.841 20.0795C75.8376 20.0795 75.8376 20.0795 75.8342 20.0829C69.6332 21.9339 63.9841 24.7105 59.1371 28.2034" fill="#1876B5"/>
<path d="M59.1186 39.4407C64.4112 35.6255 70.6567 32.6639 77.5329 30.8266L77.5569 33.298L77.6015 37.8399C70.691 39.6773 64.418 42.6492 59.1083 46.4781L59.1186 39.4407Z" fill="#1876B5"/>
<path d="M77.793 58.5248C70.6802 60.7289 64.3147 64.1533 59.0735 68.4792C59.0838 62.2337 59.0941 55.4535 59.1044 49.1531C64.4209 45.3173 70.7042 42.342 77.625 40.5046L77.6696 45.4853L77.6901 47.7305L77.721 50.867L77.7518 54.1234L77.793 58.5248Z" fill="#1876B5"/>
<path d="M103.532 11.4575V15.7388C100.423 15.2726 97.2184 15.0293 93.9448 15.0293C91.2608 15.0293 88.6282 15.1938 86.0539 15.5092V11.4746C86.0539 11.3375 86.0573 11.2004 86.0642 11.0633C88.6351 10.7479 91.2642 10.5834 93.9448 10.5834C97.2184 10.5834 100.423 10.8267 103.529 11.2929C103.532 11.3478 103.532 11.4026 103.532 11.4575Z" fill="#1876B5"/>
<path d="M86.0538 22.3485C88.6281 22.0331 91.2607 21.8686 93.9447 21.8686C97.2183 21.8686 100.423 22.112 103.532 22.5781V18.1905C100.423 17.7243 97.2183 17.4809 93.9447 17.4809C91.2607 17.4809 88.6281 17.6455 86.0538 17.9608V22.3485Z" fill="#1876B5"/>
<path d="M86.0539 29.1794C88.6282 28.864 91.2608 28.6995 93.9448 28.6995C97.2184 28.6995 100.423 28.9428 103.532 29.409V25.3265C100.423 24.8603 97.2184 24.6169 93.9448 24.6169C91.2608 24.6169 88.6282 24.7814 86.0539 25.0968V29.1794Z" fill="#1876B5"/>
<path d="M86.0539 36.2018C88.6282 35.8864 91.2608 35.7219 93.9448 35.7219C97.2184 35.7219 100.423 35.9652 103.532 36.4314V31.8793C100.423 31.4131 97.2184 31.1697 93.9448 31.1697C91.2608 31.1697 88.6282 31.3342 86.0539 31.6496V36.2018Z" fill="#1876B5"/>
<path d="M103.532 39.1134V44.1078C100.423 43.6416 97.2184 43.3982 93.9448 43.3982C91.2608 43.3982 88.6282 43.5627 86.0539 43.8781V38.8837C88.6282 38.5684 91.2608 38.4038 93.9448 38.4038C97.2184 38.4038 100.423 38.6472 103.532 39.1134Z" fill="#1876B5"/>
<path d="M86.0539 49.2688C88.6282 48.9534 91.2608 48.7889 93.9448 48.7889C97.2184 48.7889 100.423 49.0323 103.532 49.4984V46.3551C100.423 45.8889 97.2184 45.6456 93.9448 45.6456C91.2608 45.6456 88.6282 45.8101 86.0539 46.1254V49.2688Z" fill="#1876B5"/>
<path d="M86.0539 56.5801C89.4235 56.0282 92.9096 55.7369 96.4814 55.7369C98.8706 55.7369 101.226 55.8671 103.532 56.1208V51.7057C101.226 51.4521 98.8706 51.3218 96.4814 51.3218C92.9096 51.3218 89.4235 51.6132 86.0539 52.165V56.5801Z" fill="#1876B5"/>
<path d="M112.104 98.5256V19.191C112.104 14.3636 116.018 10.45 120.845 10.45C125.673 10.45 129.929 14.1922 129.929 19.0196L130.186 98.697C130.186 105.825 112.104 103.353 112.104 98.5256Z" fill="#1490C9"/>
<path d="M170.554 120.156C170.554 154.677 148.644 184.081 117.972 195.222C117.602 190.817 117.519 186.724 117.433 182.632C118.078 178.758 119.295 175.358 121.032 172.249C122.222 170.123 123.651 168.135 125.232 166.284C129.212 161.625 134.106 157.862 138.717 153.824C143.324 149.786 147.756 145.329 150.412 139.807C153.892 129.682 150.495 118.442 154.509 108.967C156.984 103.123 161.909 98.8277 166.198 94.0835C169.022 102.255 170.554 111.027 170.554 120.156Z" fill="#EB3020"/>
<path d="M132.04 40.2262C145.452 48.9103 154.437 62.8136 163.012 76.2957" stroke="#1870AD" stroke-miterlimit="10" stroke-linecap="round"/>
<path d="M55.4145 55.3257C55.4145 55.3257 55.2643 74.7626 54.9555 85.2929C54.8684 88.26 54.7073 90.554 54.4382 91.56C53.5442 94.8981 49.474 97.1316 46.4061 98.7119C43.9621 99.9733 41.2026 100.889 39.0877 102.613C39.5299 93.5221 42.4435 84.7263 45.1447 75.8379C47.743 67.2854 49.5769 59.3191 52.6551 50.9312C53.4263 52.0933 55.4145 53.8277 55.4145 55.3257Z" fill="#ED2F20"/>
<path d="M163.939 118.257C161.834 149.011 142.928 174.777 116.659 186.976" stroke="#1390CA" stroke-miterlimit="10" stroke-linecap="round"/>
<path d="M167.24 95.0586C168.602 100.597 169.509 106.247 169.949 111.933" stroke="#1B6FAD" stroke-miterlimit="10" stroke-linecap="round"/>
<path d="M172.177 88.7862C173.971 95.9788 174.83 103.404 174.728 110.816" stroke="#1B6FAD" stroke-miterlimit="10" stroke-linecap="round"/>
<path d="M57.3246 22.0852C56.4502 22.3289 55.6477 22.8259 55.0396 23.4998" stroke="#1490C9" stroke-miterlimit="10" stroke-linecap="round"/>
<path d="M45.1382 21.4525C44.7889 21.662 44.4397 21.8717 44.0904 22.0812" stroke="#1490C9" stroke-miterlimit="10" stroke-linecap="round"/>
<path d="M48.1434 26.4782C46.4679 27.5199 44.8787 28.7001 43.3979 30.0037" stroke="#1490C9" stroke-miterlimit="10" stroke-linecap="round"/>
<path d="M57.1952 41.6781C54.1455 42.7541 51.2997 44.4043 48.8512 46.5165" stroke="#1490C9" stroke-miterlimit="10" stroke-linecap="round"/>
<path d="M56.7229 46.2155C55.3662 46.5082 54.0835 47.1379 53.0226 48.0329" stroke="#1490C9" stroke-miterlimit="10" stroke-linecap="round"/>
<path d="M16.435 86.3807C19.8763 75.1367 23.2232 67.0055 29.9784 57.3809C36.734 47.7565 45.6049 39.467 56.1833 34.3324" stroke="#1490C9" stroke-miterlimit="10" stroke-linecap="round"/>
<path d="M10.6021 87.0223C16.4366 65.26 29.8422 45.6058 47.9735 32.2307" stroke="#1490C9" stroke-miterlimit="10" stroke-linecap="round"/>
<path d="M19.3503 57.2855C24.0872 49.3514 30.0243 42.1351 36.8967 35.9578" stroke="#1490C9" stroke-miterlimit="10" stroke-linecap="round"/>
<path d="M17.2642 52.3619C22.164 45.017 28.2272 38.4496 35.1586 32.9802" stroke="#1490C9" stroke-miterlimit="10" stroke-linecap="round"/>
<path d="M1.00212 108.667C0.90203 92.626 4.34255 76.573 11.0076 61.9824" stroke="#1490C9" stroke-miterlimit="10" stroke-linecap="round"/>
<path d="M113.6 15.2842C110.874 15.0418 108.132 14.9781 105.397 15.0936" stroke="#1870AD" stroke-miterlimit="10" stroke-linecap="round"/>
<path d="M111.596 19.7447C110.036 19.6916 107.192 19.6381 105.633 19.585" stroke="#1870AD" stroke-miterlimit="10" stroke-linecap="round"/>
<path d="M110.193 24.5707C108.845 24.5704 107.497 24.5697 106.149 24.569" stroke="#1870AD" stroke-miterlimit="10" stroke-linecap="round"/>
<path d="M105.218 29.8934C106.778 29.746 109.73 29.6528 111.268 29.953" stroke="#1870AD" stroke-miterlimit="10" stroke-linecap="round"/>
<path d="M105.05 34.4046C106.613 34.2897 109.306 34.4728 110.843 34.7789" stroke="#1870AD" stroke-miterlimit="10" stroke-linecap="round"/>
<path d="M105.281 39.366C106.655 39.4208 109.479 39.7824 110.781 40.225" stroke="#1870AD" stroke-miterlimit="10" stroke-linecap="round"/>
<path d="M104.878 44.8586C106.242 44.8336 109.666 45.2765 110.979 45.6456" stroke="#1870AD" stroke-miterlimit="10" stroke-linecap="round"/>
<path d="M104.703 50.0061C105.993 50.1795 109.254 50.7818 110.544 50.9556" stroke="#1870AD" stroke-miterlimit="10" stroke-linecap="round"/>
<path d="M83.3319 18.3169C80.8512 18.5263 79.8015 18.683 77.4939 19.6171" stroke="#1870AD" stroke-miterlimit="10" stroke-linecap="round"/>
<path d="M83.3887 24.0638C81.8074 24.1382 80.2341 24.3826 78.7049 24.7915" stroke="#1870AD" stroke-miterlimit="10" stroke-linecap="round"/>
<path d="M83.3307 28.9774C81.9966 29.0278 80.6731 29.3363 79.4542 29.8806" stroke="#1870AD" stroke-miterlimit="10" stroke-linecap="round"/>
<path d="M83.125 33.9419C81.9318 33.9988 80.7529 34.3327 79.7071 34.9103" stroke="#1870AD" stroke-miterlimit="10" stroke-linecap="round"/>
<path d="M83.2347 39.0728C81.9619 39.1815 80.7087 39.513 79.5484 40.0467" stroke="#1870AD" stroke-miterlimit="10" stroke-linecap="round"/>
<path d="M83.1237 44.7396C81.8047 44.7098 80.4805 44.9535 79.2585 45.4502" stroke="#1870AD" stroke-miterlimit="10" stroke-linecap="round"/>
<path d="M37.711 113.764C37.7213 107.519 37.7316 86.5738 37.7419 80.2735C37.7453 79.3685 37.7453 78.4738 37.7453 77.5932C37.7521 75.1248 37.7556 72.7562 37.7556 70.5555C37.759 69.1162 37.7624 67.7481 37.7624 66.4695C37.7693 63.5459 37.7761 61.0913 37.7761 59.3293C37.7796 58.2259 37.7796 57.3895 37.7796 56.8819C37.783 56.5082 37.783 56.3128 37.783 56.3128C37.783 51.483 41.6942 47.5718 46.524 47.5718H47.3809C49.3622 47.5718 51.1893 48.23 52.653 49.3406C53.3488 49.8685 53.9658 50.4958 54.4731 51.2088C54.528 51.2773 54.5794 51.3493 54.6308 51.4213V51.4247C54.8639 51.7744 55.0764 52.1415 55.2616 52.5216C55.2718 52.5354 55.2787 52.5525 55.2855 52.57C55.337 52.6828 55.3884 52.7959 55.4364 52.909C55.6009 53.3032 55.738 53.7077 55.8477 54.1293C55.882 54.2664 55.9163 54.4104 55.9437 54.5509C55.9677 54.6606 55.9883 54.7703 56.0054 54.88C56.0054 54.8906 56.0088 54.9043 56.0122 54.9177C56.0225 54.9931 56.0328 55.072 56.0431 55.1508C56.0705 55.3462 56.0911 55.545 56.1014 55.7476C56.1082 55.8295 56.1117 55.9152 56.1151 55.9978V56.0215C56.1219 56.1175 56.1219 56.2134 56.1219 56.3128L56.2385 87.8414" stroke="white" stroke-miterlimit="10"/>
<path d="M172.402 87.4278C170.89 90.1701 168.841 92.8473 166.633 95.377C164.775 97.5023 162.804 99.5247 160.936 101.386C160.36 101.962 159.795 102.521 159.246 103.066C158.715 103.597 158.197 104.108 157.704 104.601L157.614 104.69C156.891 105.414 156.161 106.144 155.53 107.33C154.276 109.678 153.402 113.819 153.724 123.225C154.272 139.274 150.306 145.578 141.209 153.637C137.963 156.513 134.833 159.724 131.806 162.83C130.51 164.157 129.174 165.531 127.837 166.868C124.001 170.704 121.657 173.899 120.244 176.905C118.764 180.052 118.3 182.986 118.215 186.229C118.164 188.028 118.232 189.924 118.307 192.001L118.414 194.976L118.417 195.048V195.052L118.623 200.845L118.787 205.455C118.41 205.558 118.03 205.654 117.65 205.75C117.125 205.88 116.597 206.007 116.066 206.127L115.565 192.104C115.01 176.6 118.924 171.9 125.897 164.928C127.223 163.605 128.553 162.237 129.842 160.914C132.903 157.774 136.071 154.524 139.389 151.583C147.986 143.97 151.496 138.359 150.982 123.321C150.608 112.383 151.845 107.889 153.518 105.283C154.194 104.231 154.938 103.487 155.674 102.75L155.764 102.661C156.26 102.164 156.782 101.65 157.316 101.119C161.639 96.8407 167.014 91.5138 170.003 86.1013C170.767 84.7164 170.945 83.2596 170.489 82.1078C170.119 81.172 169.344 80.4865 168.248 80.1334C161.683 78.0013 158.903 78.6869 150.436 87.8495L150.221 88.0791C147.286 91.2567 144.719 94.0333 142.909 96.7859C141.689 98.6437 140.811 100.488 140.393 102.435C139.454 106.826 138.474 108.314 137.524 109.753C137.232 110.196 136.955 110.617 136.677 111.128L135.471 113.363L135.454 113.332L133.726 110.127L133.777 109.98C133.75 109.914 133.722 109.846 133.688 109.767C133.664 109.712 133.64 109.657 133.613 109.596C133.198 108.646 132.396 106.96 131.72 105.534C130.857 103.717 130.243 102.411 129.811 101.458C129.033 99.7406 128.834 99.1545 128.814 98.7637V98.6986L128.807 96.4054L128.79 90.9517V90.9448L128.783 89.4297L128.745 77.0621V77.0586L128.642 45.1043L128.581 26.6488L128.557 19.0219C128.557 15.1141 125.026 11.82 120.844 11.82C116.779 11.82 113.474 15.1244 113.474 19.1898V90.4375H110.732V19.1898C110.732 13.6127 115.267 9.07768 120.844 9.07768C126.61 9.07768 131.299 13.5373 131.299 19.0184L131.33 28.2119L131.391 47.2124L131.498 80.6819V80.6853L131.529 90.5883L131.556 98.5478C131.789 99.2848 133.232 102.325 134.199 104.358C134.415 104.817 134.614 105.235 134.795 105.619C134.908 105.859 135.015 106.086 135.117 106.298C135.337 106.771 135.529 107.176 135.693 107.532C136.372 106.428 137.031 105.04 137.709 101.862C137.802 101.427 137.912 101.002 138.042 100.58C138.388 99.4253 138.864 98.3147 139.45 97.228C139.79 96.5836 140.174 95.946 140.588 95.3153C142.357 92.6176 144.746 89.9713 147.472 87.0165C147.715 86.7526 147.962 86.4852 148.208 86.2178L148.421 85.9882C151.143 83.0436 153.395 80.8601 155.441 79.3279C159.994 75.9206 163.552 75.7252 169.095 77.5248C170.822 78.087 172.152 79.2113 172.872 80.7196C172.934 80.843 172.989 80.9698 173.04 81.1001C173.222 81.556 173.345 82.0324 173.413 82.5226V82.526C173.633 84.1028 173.286 85.8236 172.402 87.4278Z" fill="white"/>
<path d="M94.7934 0.00107574C90.3715 0.00107574 86.2941 2.58498 84.4057 6.5839C83.7588 7.95195 83.3941 9.42044 83.3235 10.9458C83.3149 11.1183 83.3101 11.3027 83.3101 11.4843V77.6417C83.3101 80.713 84.5054 83.5975 86.6759 85.7633C88.8379 87.9296 91.7221 89.1249 94.7934 89.1249C101.126 89.1249 106.277 83.9736 106.277 77.6417V11.4843C106.277 11.4247 106.276 11.3579 106.272 11.2831C106.271 11.2516 106.27 11.216 106.268 11.1772C106.232 9.70872 105.921 8.28514 105.341 6.9428C105.311 6.86499 105.278 6.78854 105.243 6.71416C105.2 6.6151 105.161 6.53557 105.134 6.48106C104.571 5.32417 103.824 4.27594 102.913 3.36482C100.749 1.19637 97.8647 0.00107574 94.7934 0.00107574ZM94.7934 2.74335C97.2069 2.74335 99.3936 3.72028 100.974 5.30395C101.666 5.99638 102.242 6.80192 102.674 7.69315C102.698 7.74114 102.722 7.78913 102.739 7.83712C102.763 7.88168 102.784 7.92968 102.801 7.97767C103.25 8.99916 103.507 10.1201 103.528 11.3027C103.531 11.3335 103.531 11.3644 103.531 11.3952C103.534 11.4226 103.534 11.4535 103.534 11.4843V77.6417C103.534 82.4681 99.6198 86.3827 94.7934 86.3827C92.3802 86.3827 90.1936 85.4057 88.613 83.8221C87.0297 82.2418 86.0524 80.0549 86.0524 77.6417V11.4843C86.0524 11.3472 86.0558 11.2101 86.0627 11.073C86.1175 9.8904 86.4055 8.76949 86.8854 7.75485C88.2839 4.7932 91.297 2.74335 94.7934 2.74335Z" fill="white"/>
<path d="M68.3092 13.7051C63.8873 13.7051 59.8099 16.289 57.9215 20.2879C57.2743 21.656 56.9099 23.1245 56.8393 24.6498C56.8308 24.8216 56.826 25.006 56.826 25.1884V83.6145C56.826 86.6859 58.0212 89.5704 60.1918 91.7361C62.3533 93.9025 65.2379 95.0978 68.3092 95.0978C74.6411 95.0978 79.7925 89.9464 79.7925 83.6145V25.1884C79.7925 25.1284 79.7918 25.0615 79.7877 24.9868C79.787 24.9553 79.7856 24.9196 79.7836 24.8809C79.7483 23.4127 79.4367 21.9892 78.857 20.6468C78.8265 20.569 78.7936 20.4926 78.7587 20.4178C78.7161 20.3191 78.6771 20.2396 78.6496 20.1851C78.0868 19.0282 77.3399 17.98 76.4287 17.0688C74.2651 14.9004 71.3806 13.7051 68.3092 13.7051ZM68.3092 16.4474C70.7224 16.4474 72.9094 17.4243 74.4896 19.008C75.182 19.7004 75.7579 20.5059 76.1898 21.3972C76.2138 21.4452 76.2378 21.4931 76.255 21.5411C76.279 21.5857 76.2995 21.6337 76.3167 21.6817C76.7657 22.7032 77.0228 23.8241 77.0434 25.0067C77.0468 25.0375 77.0468 25.0684 77.0468 25.0992C77.0502 25.1267 77.0502 25.1575 77.0502 25.1884V83.6145C77.0502 88.4409 73.1356 92.3555 68.3092 92.3555C65.896 92.3555 63.7091 91.3786 62.1288 89.7949C60.5452 88.2147 59.5682 86.0277 59.5682 83.6145V25.1884C59.5682 25.0512 59.5717 24.9141 59.5785 24.777C59.6334 23.5944 59.9213 22.4735 60.4012 21.4589C61.7998 18.4972 64.8128 16.4474 68.3092 16.4474Z" fill="white"/>
<path d="M128.371 104.422L61.821 129.436C61.821 129.436 94.5555 102.764 109.586 87.7332C112.028 85.2909 111.921 82.9664 112.031 80.9166C113.536 52.6852 114.507 17.6664 114.507 17.6664C114.721 13.6449 118.155 10.5584 122.177 10.773L122.674 10.7994C126.696 11.014 129.782 14.448 129.567 18.4695C129.567 18.4695 123.85 73.3184 126.648 91.3328C126.913 93.0436 129.045 97.8919 130.039 99.6422C133.869 106.386 134.172 108.127 133.919 111.567C132.994 124.193 90.1257 133.452 70.1188 139.542C89.3205 125.35 123.979 107.668 128.371 104.422Z" fill="#EB3020"/>
<path d="M165.289 149.865C169.233 142.428 171.964 134.35 173.34 126.046" stroke="#1B6FAD" stroke-miterlimit="10" stroke-linecap="round"/>
<path d="M172.321 65.8978C183.106 89.1039 184.203 116.635 175.297 140.625" stroke="#1B6FAD" stroke-miterlimit="10" stroke-linecap="round"/>
<path d="M180.779 72.0357C188.427 90.8381 189.315 118.799 181.222 140.927" stroke="#1B6FAD" stroke-miterlimit="10" stroke-linecap="round"/>
<path d="M135.637 22.8404C146.95 30.4784 156.858 40.1894 164.722 51.3464" stroke="#1870AD" stroke-miterlimit="10" stroke-linecap="round"/>
<path d="M140.94 20.4925C150.037 27.3784 158.293 35.3752 165.467 44.2478" stroke="#1870AD" stroke-miterlimit="10" stroke-linecap="round"/>
<path d="M154.002 26.309C159.416 31.217 164.461 36.5329 169.08 42.196" stroke="#1870AD" stroke-miterlimit="10" stroke-linecap="round"/>
<path d="M163.955 30.4396C165.892 32.5673 167.83 34.6946 169.767 36.8222" stroke="#1870AD" stroke-miterlimit="10" stroke-linecap="round"/>
<path d="M171.155 56.4049C171.965 57.9769 172.775 59.5493 173.585 61.1213" stroke="#1870AD" stroke-miterlimit="10" stroke-linecap="round"/>
<path d="M145.326 17.1763C145.822 17.6147 146.318 18.0531 146.813 18.4915" stroke="#1870AD" stroke-miterlimit="10" stroke-linecap="round"/>
<path d="M133.563 35.4781C140.039 39.7087 146.095 44.5824 151.612 50.0039" stroke="#1870AD" stroke-miterlimit="10" stroke-linecap="round"/>
<path d="M16.3882 169.28C16.8836 169.985 17.3792 170.69 17.8746 171.394" stroke="#EB3020" stroke-miterlimit="10" stroke-linecap="round"/>
<path d="M174.959 152.056C174.091 154.067 173.012 155.988 171.746 157.775" stroke="#1B6FAD" stroke-miterlimit="10" stroke-linecap="round"/>
</svg>
